<?xml version="1.0" standalone="no"?>
<!DOCTYPE svg PUBLIC "-//W3C//DTD SVG 20010904//EN"
 "http://www.w3.org/TR/2001/REC-SVG-20010904/DTD/svg10.dtd">
<svg version="1.0" xmlns="http://www.w3.org/2000/svg"
 width="1810.000000pt" height="1810.000000pt" viewBox="0 0 1810.000000 1810.000000"
 preserveAspectRatio="xMidYMid meet">
<metadata>
Created by potrace 1.11, written by Peter Selinger 2001-2013
</metadata>
<g transform="translate(0.000000,1810.000000) scale(0.100000,-0.100000)"
fill="#000000" stroke="none">
<path d="M120 13710 c-12 -23 -6 -34 83 -144 29 -35 66 -81 82 -102 17 -21 38
-46 48 -56 9 -10 17 -22 17 -27 0 -5 4 -11 8 -13 5 -1 37 -39 71 -83 35 -44
67 -81 72 -83 5 -2 9 -8 9 -13 0 -5 8 -17 18 -27 9 -11 24 -28 32 -38 73 -93
136 -170 142 -172 4 -2 8 -8 8 -13 0 -5 8 -17 17 -27 10 -10 32 -35 48 -56 17
-22 40 -49 53 -62 12 -13 22 -26 22 -29 0 -6 68 -90 105 -131 6 -6 21 -26 35
-44 22 -30 53 -68 85 -107 14 -17 14 -18 175 -218 156 -194 170 -211 185 -229
6 -6 33 -40 60 -75 28 -35 61 -75 74 -90 13 -14 37 -45 54 -68 17 -24 34 -43
39 -43 4 0 8 -5 8 -10 0 -21 245 -274 330 -340 24 -19 54 -45 67 -57 13 -13
24 -22 26 -20 1 1 42 -25 92 -58 49 -33 112 -72 140 -88 46 -25 194 -99 205
-102 3 -1 14 -5 25 -10 67 -28 165 -63 165 -59 0 3 10 -1 22 -7 13 -7 38 -16
58 -21 19 -5 44 -11 55 -14 35 -9 69 -16 90 -19 11 -2 20 -4 20 -5 0 -4 64
-15 145 -26 30 -4 66 -9 80 -11 14 -2 140 -6 280 -8 253 -4 412 -11 460 -20
14 -2 43 -7 65 -10 55 -9 59 -10 70 -16 6 -4 20 -5 33 -4 12 1 22 -2 22 -6 0
-3 14 -9 30 -12 32 -7 44 -10 75 -21 11 -5 34 -13 50 -18 62 -22 150 -63 157
-73 4 -5 8 -6 8 -2 0 5 14 -1 30 -13 17 -12 30 -18 30 -15 0 4 7 -1 16 -9 8
-9 21 -16 29 -16 7 0 15 -3 17 -8 2 -4 26 -22 53 -39 28 -18 62 -44 78 -58 15
-14 27 -23 27 -20 0 11 148 -130 218 -208 18 -21 30 -37 28 -37 -3 0 5 -10 17
-23 12 -13 29 -34 37 -46 8 -13 20 -29 25 -35 18 -19 91 -148 127 -221 59
-121 112 -289 132 -415 14 -89 19 -131 22 -180 4 -112 5 -510 0 -518 -6 -9
-1007 -8 -1023 1 -7 4 -14 4 -16 0 -5 -7 -174 -9 -202 -3 -5 1 -12 1 -15 0
-16 -6 -80 -5 -80 2 0 4 -6 5 -14 2 -24 -9 -107 -11 -112 -3 -3 5 -16 4 -29
-1 -18 -7 -25 -6 -25 3 0 7 -3 8 -8 2 -6 -9 -29 -11 -57 -5 -27 6 -51 4 -56
-4 -4 -4 -15 -3 -26 2 -14 8 -23 8 -30 1 -8 -8 -13 -8 -17 0 -5 7 -15 7 -32 1
-15 -6 -23 -6 -19 -1 3 6 -6 6 -23 2 -16 -5 -35 -5 -43 -1 -8 5 -33 5 -57 0
-23 -4 -42 -5 -42 -1 0 3 -13 6 -30 6 -16 0 -30 -3 -30 -7 0 -4 -7 -5 -16 -1
-9 3 -71 7 -138 7 -122 2 -176 -10 -176 -37 0 -14 92 -131 276 -352 36 -44 88
-105 114 -135 26 -30 60 -70 76 -89 31 -36 94 -107 134 -151 14 -15 50 -55 80
-89 355 -397 882 -924 1314 -1312 27 -24 69 -63 93 -87 25 -23 51 -45 58 -50
7 -4 35 -27 63 -52 27 -25 69 -61 93 -80 24 -19 52 -44 63 -55 36 -35 305
-257 441 -364 167 -131 195 -153 211 -169 7 -6 16 -12 21 -12 5 0 23 -13 40
-29 18 -16 54 -44 80 -63 26 -18 54 -38 63 -45 19 -16 182 -134 206 -151 11
-7 51 -35 89 -62 39 -27 78 -55 89 -62 10 -7 25 -19 32 -26 8 -7 14 -10 14 -6
0 4 10 -2 23 -13 12 -11 63 -46 112 -79 50 -32 96 -64 103 -71 6 -6 21 -15 32
-18 11 -3 20 -11 20 -16 0 -6 4 -8 9 -5 4 3 16 -3 26 -14 10 -11 22 -20 26
-20 4 0 42 -23 83 -50 42 -28 78 -50 81 -50 4 0 13 -6 20 -12 26 -23 41 -33
55 -36 8 -2 22 -9 30 -16 8 -7 38 -26 65 -42 28 -16 59 -34 70 -41 11 -7 27
-15 35 -19 8 -4 17 -10 20 -13 3 -4 30 -19 60 -35 30 -16 57 -32 60 -35 5 -6
20 -14 144 -80 94 -50 101 -54 108 -65 4 -6 8 -7 8 -2 0 5 6 4 13 -2 6 -5 55
-31 107 -58 52 -26 97 -51 100 -55 3 -4 17 -10 32 -14 15 -4 32 -13 39 -21 6
-8 15 -14 20 -14 5 0 68 -29 141 -64 73 -34 138 -64 143 -65 6 -1 21 -9 34
-18 18 -12 29 -13 48 -4 l24 11 -1 2144 c-1 1180 -4 2147 -7 2150 -4 3 -8 39
-9 78 -4 83 -10 180 -18 253 -3 28 -8 75 -11 105 -10 99 -15 144 -20 180 -7
55 -27 183 -31 205 -2 10 -6 35 -9 55 -3 20 -8 47 -11 60 -3 14 -7 36 -8 50
-2 14 -6 34 -9 45 -4 11 -9 36 -11 55 -3 19 -10 55 -17 80 -6 25 -13 56 -16
70 -2 14 -20 84 -39 155 -20 72 -36 137 -38 145 -1 9 -5 21 -10 28 -4 6 -4 12
0 12 3 0 1 7 -6 15 -6 8 -9 19 -5 25 3 5 1 10 -5 10 -7 0 -10 7 -7 15 4 8 2
17 -3 20 -6 4 -10 16 -10 29 0 12 -3 26 -7 30 -5 4 -8 11 -8 14 0 7 -60 180
-76 220 -5 12 -13 32 -18 45 -11 25 -24 60 -26 67 -1 3 -9 22 -18 44 -9 21
-17 41 -17 45 0 4 -14 33 -31 66 -17 33 -30 61 -30 63 1 1 -14 36 -34 78 -19
42 -35 80 -35 85 0 5 -4 9 -10 9 -5 0 -10 9 -10 20 0 11 -4 20 -9 20 -5 0 -11
8 -14 18 -3 9 -27 55 -53 102 -26 47 -52 95 -58 107 -6 13 -14 23 -18 23 -5 0
-8 5 -8 11 0 6 -12 29 -27 52 -16 23 -32 50 -38 59 -41 72 -225 325 -272 378
-13 14 -23 28 -23 31 0 3 -10 17 -22 31 -13 14 -48 53 -78 88 -56 65 -324 336
-395 401 -22 19 -89 75 -150 124 -60 48 -112 91 -115 95 -3 4 -18 14 -35 23
-16 8 -39 24 -50 34 -11 10 -67 50 -125 87 -58 38 -131 86 -164 108 -32 21
-65 38 -72 38 -8 0 -14 4 -14 9 0 5 -8 11 -17 14 -10 3 -40 19 -68 36 -66 39
-310 160 -405 201 -41 18 -95 41 -120 52 -24 11 -49 21 -55 23 -5 1 -21 7 -35
13 -27 11 -59 23 -75 28 -23 6 -80 29 -85 34 -3 3 -14 6 -25 8 -11 1 -29 7
-40 12 -23 10 -182 60 -265 84 -141 40 -160 45 -160 40 0 -3 -9 0 -21 6 -11 7
-30 13 -42 16 -12 2 -92 19 -177 38 -85 19 -171 37 -190 39 -19 3 -35 6 -35 7
0 1 -13 3 -30 5 -16 2 -39 5 -50 8 -18 4 -37 7 -135 22 -14 3 -49 7 -78 10
-30 2 -57 7 -60 9 -4 2 -36 7 -72 11 -36 3 -94 9 -130 13 -36 4 -86 7 -112 7
-27 0 -48 3 -48 6 0 3 -30 7 -67 8 -38 2 -99 5 -138 8 -38 3 -802 8 -1697 10
l-1627 4 -11 -21z"/>
<path d="M14788 13725 c-2 -2 -62 -6 -133 -10 -72 -3 -148 -8 -170 -10 -22 -2
-70 -6 -106 -9 -121 -10 -173 -16 -280 -31 -58 -9 -121 -17 -140 -19 -19 -2
-54 -7 -79 -11 -25 -5 -54 -9 -65 -11 -11 -1 -20 -3 -20 -4 0 -1 -9 -3 -20 -5
-20 -3 -84 -13 -120 -20 -11 -2 -40 -8 -65 -14 -25 -5 -56 -12 -70 -15 -14 -3
-36 -8 -50 -11 -14 -3 -36 -7 -50 -10 -14 -2 -61 -14 -105 -26 -44 -12 -86
-22 -92 -22 -7 0 -13 -4 -13 -9 0 -5 -4 -6 -10 -3 -5 3 -16 3 -22 -2 -7 -4
-17 -8 -23 -9 -40 -7 -324 -94 -370 -113 -11 -5 -45 -18 -75 -29 -138 -51
-210 -81 -365 -150 -79 -36 -284 -140 -363 -186 -35 -20 -68 -36 -73 -36 -5 0
-9 -4 -9 -10 0 -5 -5 -10 -11 -10 -6 0 -31 -13 -56 -30 -24 -16 -48 -30 -54
-30 -5 0 -9 -3 -9 -8 0 -4 -20 -18 -45 -32 -25 -14 -45 -28 -45 -32 0 -5 -6
-8 -12 -8 -7 0 -47 -26 -89 -58 -43 -31 -87 -64 -99 -72 -29 -19 -85 -63 -135
-105 -22 -18 -51 -42 -65 -54 -58 -48 -109 -94 -159 -141 -29 -27 -57 -50 -62
-50 -5 0 -9 -3 -9 -7 0 -5 -42 -51 -93 -104 -103 -106 -139 -147 -212 -234
-28 -33 -54 -65 -60 -71 -5 -6 -19 -23 -30 -38 -39 -53 -105 -141 -117 -156
-14 -15 -29 -39 -49 -77 -7 -13 -16 -23 -21 -23 -4 0 -8 -7 -8 -15 0 -8 -4
-15 -10 -15 -5 0 -10 -6 -10 -14 0 -8 -4 -16 -8 -18 -10 -4 -72 -106 -72 -118
0 -6 -7 -13 -15 -16 -8 -4 -12 -10 -9 -15 3 -5 2 -9 -3 -9 -4 0 -13 -10 -19
-23 -39 -78 -98 -183 -106 -188 -6 -3 -9 -9 -8 -13 0 -3 -25 -59 -57 -124 -32
-64 -58 -119 -59 -122 -1 -7 -17 -44 -53 -122 -16 -38 -28 -68 -25 -68 2 0 -2
-10 -10 -22 -8 -13 -15 -25 -15 -28 0 -3 -5 -18 -12 -35 -7 -16 -13 -32 -14
-35 -1 -3 -4 -12 -8 -20 -3 -8 -17 -51 -32 -95 -14 -44 -30 -89 -35 -100 -9
-21 -30 -87 -34 -108 -2 -7 -11 -39 -21 -72 -10 -33 -20 -64 -21 -70 -1 -5 -7
-30 -14 -55 -7 -25 -12 -47 -12 -50 0 -3 -4 -15 -9 -28 -5 -13 -11 -35 -14
-50 -7 -41 -12 -61 -30 -132 -9 -36 -18 -78 -19 -95 -2 -16 -4 -31 -6 -32 -3
-4 -4 -9 -15 -68 -4 -27 -10 -57 -12 -65 -2 -8 -5 -28 -7 -45 -3 -16 -7 -46
-10 -65 -31 -188 -48 -321 -50 -397 0 -24 -3 -43 -6 -43 -3 0 -5 -17 -5 -37 1
-21 -1 -42 -4 -48 -3 -5 -5 -27 -6 -50 -1 -22 -5 -98 -10 -170 -13 -235 -18
-455 -10 -463 2 -2 0 -15 -5 -28 -5 -13 -6 -24 -1 -24 5 0 5 -15 1 -34 -4 -18
-3 -41 2 -50 5 -10 5 -23 -2 -36 -6 -11 -8 -26 -3 -32 9 -16 9 -50 0 -65 -4
-6 -3 -14 2 -17 5 -3 6 -21 1 -40 -4 -18 -3 -41 2 -50 6 -11 6 -22 0 -29 -5
-7 -8 -21 -5 -32 9 -42 9 -60 1 -72 -5 -6 -5 -14 0 -17 6 -3 7 -20 2 -40 -4
-18 -3 -41 2 -50 5 -10 5 -23 -2 -36 -6 -11 -8 -26 -3 -32 9 -16 9 -50 0 -65
-4 -6 -3 -14 2 -17 5 -3 6 -21 1 -40 -4 -18 -3 -41 2 -50 5 -10 5 -23 -2 -37
-8 -14 -8 -24 -1 -32 6 -8 6 -18 1 -27 -5 -9 -5 -19 1 -27 7 -8 7 -18 -1 -32
-8 -16 -8 -21 1 -21 8 0 8 -4 2 -12 -6 -7 -9 -22 -6 -33 9 -42 9 -60 1 -72 -5
-6 -5 -14 0 -17 6 -3 7 -20 2 -40 -4 -18 -3 -41 2 -50 5 -10 5 -23 -2 -36 -6
-11 -8 -26 -3 -32 9 -16 9 -50 0 -65 -4 -6 -3 -14 2 -17 5 -3 6 -21 1 -40 -4
-18 -3 -41 2 -50 5 -10 5 -23 -2 -37 -8 -14 -8 -24 -1 -32 6 -8 6 -18 1 -27
-5 -9 -5 -19 1 -27 7 -8 7 -19 -1 -33 -8 -14 -8 -25 -1 -33 6 -8 6 -18 1 -27
-5 -9 -5 -19 2 -27 7 -9 7 -13 -2 -13 -9 0 -9 -4 -2 -13 7 -8 7 -18 2 -27 -5
-9 -5 -19 2 -27 7 -9 7 -13 -2 -13 -9 0 -9 -4 -2 -13 7 -8 7 -18 2 -27 -5 -9
-5 -19 2 -27 7 -9 7 -13 -2 -13 -9 0 -9 -4 -2 -13 7 -8 7 -18 2 -27 -5 -9 -5
-19 2 -27 7 -9 7 -13 -2 -13 -9 0 -9 -4 -2 -13 7 -8 7 -18 2 -27 -5 -9 -5 -19
2 -27 7 -9 7 -13 -2 -13 -9 0 -9 -4 -2 -13 7 -8 7 -18 2 -27 -5 -9 -5 -19 2
-27 7 -9 7 -13 -2 -13 -9 0 -9 -4 -2 -13 7 -8 7 -18 2 -27 -5 -9 -5 -19 2 -27
8 -10 7 -13 -3 -13 -10 0 -10 -3 -1 -12 7 -7 8 -17 2 -29 -6 -11 -6 -20 -1
-24 6 -3 6 -17 1 -33 -4 -16 -4 -36 2 -45 5 -11 5 -24 -2 -37 -6 -11 -8 -26
-3 -32 9 -16 9 -50 0 -65 -4 -6 -3 -14 2 -17 5 -3 6 -21 1 -40 -4 -18 -3 -41
2 -50 6 -11 6 -22 0 -29 -5 -7 -8 -21 -5 -32 9 -42 9 -60 1 -72 -5 -6 -5 -14
0 -17 6 -3 7 -20 2 -40 -4 -18 -3 -41 2 -50 5 -10 5 -23 -2 -36 -6 -11 -8 -26
-3 -32 9 -16 9 -50 0 -65 -4 -6 -3 -14 2 -17 5 -3 6 -21 1 -40 -4 -18 -3 -41
2 -50 6 -11 6 -22 0 -29 -5 -7 -8 -21 -5 -32 9 -42 9 -60 1 -72 -5 -6 -5 -14
0 -17 6 -3 7 -20 2 -40 -4 -18 -3 -41 2 -50 5 -10 5 -23 -2 -36 -6 -11 -8 -26
-3 -32 9 -16 9 -50 0 -65 -4 -6 -3 -14 2 -17 5 -3 6 -21 1 -40 -4 -18 -3 -41
2 -50 6 -11 5 -16 -3 -16 -8 0 -8 -4 -1 -13 7 -8 7 -18 2 -27 -5 -9 -5 -19 2
-27 7 -9 7 -13 -2 -13 -9 0 -9 -4 -2 -13 7 -8 7 -18 2 -27 -5 -9 -5 -19 2 -27
7 -9 7 -13 -2 -13 -9 0 -9 -4 -2 -13 7 -8 7 -18 2 -27 -5 -9 -5 -19 2 -27 8
-10 7 -13 -3 -13 -10 0 -10 -3 -2 -11 6 -6 9 -17 6 -24 -2 -8 1 -23 7 -35 9
-16 17 -20 33 -15 12 3 28 7 35 7 6 1 12 4 12 7 0 4 27 17 60 30 33 13 60 28
60 33 0 4 7 8 15 8 14 0 434 208 445 221 3 3 28 17 55 31 86 44 162 87 250
139 28 16 59 34 70 39 11 6 38 21 60 35 22 14 56 34 75 45 19 11 78 47 130 80
52 33 103 63 113 66 9 4 17 10 17 15 0 5 7 9 15 9 8 0 15 5 15 10 0 6 7 10 15
10 8 0 15 5 15 10 0 6 6 10 14 10 7 0 19 7 26 15 7 9 15 13 18 11 2 -3 10 0
18 7 26 23 40 34 50 38 13 5 278 182 284 189 3 4 34 26 70 50 36 24 70 48 75
52 6 4 62 45 125 90 63 45 117 86 118 90 2 4 8 8 14 8 5 0 16 6 23 13 16 14 8
8 145 112 58 43 110 84 116 90 6 5 22 17 34 25 13 8 30 23 39 33 8 9 19 17 23
17 5 0 16 8 27 18 10 9 35 31 56 47 53 42 98 78 111 90 7 5 26 21 44 35 17 14
41 33 53 44 12 10 42 35 67 55 24 20 51 43 60 51 9 8 43 38 75 65 33 28 80 68
105 90 26 22 74 63 107 92 33 29 73 65 90 80 17 15 70 64 118 108 140 127 152
138 314 293 240 228 709 704 811 822 11 13 44 49 73 80 44 48 149 164 222 246
11 12 35 41 54 64 19 23 52 60 72 81 21 22 35 39 33 39 -2 0 9 15 25 33 52 57
73 81 100 117 14 19 31 40 37 45 5 6 28 33 49 60 22 28 44 55 50 62 20 23 60
76 78 104 17 27 17 28 -3 47 -15 14 -31 18 -58 15 -37 -4 -63 -4 -115 1 -16 1
-30 -1 -33 -5 -3 -5 -10 -6 -17 -3 -20 7 -117 11 -117 4 0 -7 -77 -3 -89 5 -5
3 -13 1 -16 -5 -4 -7 -11 -7 -18 -2 -7 5 -21 8 -32 6 -43 -7 -81 -7 -93 0 -7
4 -12 2 -12 -4 0 -7 -6 -8 -18 -1 -13 7 -22 7 -29 0 -8 -8 -13 -8 -17 0 -5 7
-15 7 -32 1 -17 -7 -32 -6 -45 0 -14 8 -19 7 -19 -2 0 -9 -3 -9 -11 -1 -8 8
-20 8 -35 3 -16 -6 -24 -6 -24 1 0 6 -5 7 -12 3 -14 -9 -58 -12 -58 -4 0 3 -9
6 -20 6 -11 0 -20 -3 -20 -6 0 -3 -18 -5 -40 -5 -22 0 -40 3 -40 7 0 4 -7 5
-16 1 -24 -9 -87 -10 -111 -1 -13 4 -23 4 -23 0 0 -12 -1124 -10 -1132 2 -4 6
-2 16 4 23 6 7 7 13 2 13 -10 0 -9 83 1 99 3 6 2 11 -2 11 -5 0 -9 11 -9 25 0
14 4 25 9 25 6 0 6 5 0 13 -9 13 -9 136 0 161 4 9 3 16 -2 16 -4 0 -7 12 -5
28 1 15 3 27 4 27 0 0 3 41 5 90 3 96 32 250 65 359 12 36 21 69 21 73 0 5 5
13 10 19 5 7 11 21 14 32 5 26 88 196 97 200 5 2 6 8 2 13 -3 5 -1 9 5 9 5 0
13 9 16 20 12 38 152 216 232 296 92 92 120 117 188 164 27 19 55 40 62 46 7
7 43 29 80 50 37 20 71 42 75 48 4 6 8 8 8 4 0 -3 26 6 58 21 194 94 429 148
663 153 41 1 80 -2 86 -5 6 -4 13 -4 16 -1 3 3 95 8 204 10 189 3 237 6 328
20 87 13 104 17 199 40 34 8 68 16 77 19 111 26 384 134 401 159 4 6 8 7 8 3
0 -5 15 0 33 11 17 11 54 32 81 46 79 44 206 132 316 221 40 32 252 246 287
290 102 128 147 181 157 187 6 4 7 8 1 8 -6 0 -6 3 0 8 6 4 29 29 50 57 62 77
79 97 98 117 9 10 17 20 17 23 0 5 39 51 68 81 6 7 12 16 12 20 0 4 11 17 25
30 14 13 25 27 25 31 0 4 16 25 35 45 19 20 35 41 35 47 0 6 4 11 8 11 5 0 21
18 38 41 16 22 36 48 44 57 9 9 36 42 60 72 25 30 49 61 55 67 5 7 19 25 30
39 11 15 30 38 43 51 12 13 22 26 22 29 0 3 6 11 13 18 6 7 26 30 42 51 17 20
44 54 60 74 17 21 44 54 60 75 17 21 40 50 53 65 13 14 49 60 80 101 31 41 62
80 68 85 6 6 30 35 55 65 24 30 48 60 54 66 5 7 19 24 30 40 11 15 25 32 30
38 6 6 28 34 50 61 22 28 43 52 47 53 5 2 8 8 8 13 0 5 8 17 18 27 28 30 59
69 77 96 13 19 14 29 5 46 l-11 21 -1594 -1 c-876 -1 -1595 -3 -1597 -5z"/>
</g>
</svg>
