<?xml version="1.0" encoding="utf-8"?>
<!-- Generator: Adobe Illustrator 22.1.0, SVG Export Plug-In . SVG Version: 6.00 Build 0)  -->
<svg version="1.1" id="Layer_1" xmlns="http://www.w3.org/2000/svg" xmlns:xlink="http://www.w3.org/1999/xlink" x="0px" y="0px"
	 viewBox="0 0 182 86.5" style="enable-background:new 0 0 182 86.5;" xml:space="preserve">
<style type="text/css">
	.st0{display:none;}
	.st1{display:inline;}
	.st2{fill:#FEFEFE;}
	.st3{fill:#797979;}
	.st4{fill:#707070;}
	.st5{fill:#5D5D5D;}
	.st6{fill:#FDFDFD;}
	.st7{fill:#FBFBFB;}
	.st8{fill:#FAFAFA;}
	.st9{fill:#C9C9C9;}
	.st10{fill:#818181;}
	.st11{fill:#898989;}
	.st12{fill:#8C8C8C;}
	.st13{fill:#878787;}
	.st14{fill:#616161;}
	.st15{fill:#7C7C7C;}
	.st16{fill:#676767;}
	.st17{fill:#6A6A6A;}
	.st18{fill:#BAD1DA;}
</style>
<g id="Layer_2_1_" class="st0">
	<g id="cscbax.tif" class="st1">
		
			<image style="overflow:visible;enable-background:new    ;" width="199" height="70" id="Layer_1_1_" xlink:href="A4372523873E2EBC.png"  transform="matrix(1 0 0 1 -12.5 8.2)">
		</image>
	</g>
	<g id="OUW6xI.tif" class="st1">
		<g>
			<g>
				<path class="st2" d="M104.7,464.2c-124.1,0-248.1,0-372.2,0.1c-2.1,0-2.3-0.6-2.3-2.4c0.1-86.3,0.1-172.6,0-258.9
					c0-2,0.5-2.3,2.4-2.3c248.1,0.1,496.1,0.1,744.2,0c2.2,0,2.4,0.6,2.4,2.5c0,86.3,0,172.6,0,258.9c0,1.9-0.5,2.2-2.2,2.2
					C352.8,464.2,228.7,464.2,104.7,464.2z"/>
				<path d="M-238.1,415.3c-4-2.7-5.8-6.8-7.1-11.2c-1.8-5.8-2.5-11.9-3.6-17.8c-2.5-13.4-4.9-26.8-7.3-40.3
					c-2.7-15-5.2-30.1-8.1-45c-2.1-11-4-22-4.6-33.2c-0.3-4.6,0.2-9.1,1.3-13.5c1.9-7.9,6.9-12.9,14.2-15.8
					c9.5-3.9,19.6-4.4,29.7-4.6c10.2-0.1,20.5-0.1,30.7,0c2,0,3.2-0.6,4-2.5c3-6.8,7.5-12.4,13.1-17.2c6.8-5.7,14.6-9.5,23.3-11.1
					c13.7-2.6,26.3,0.1,37.9,7.8c7.9,5.3,13.9,12.2,17.7,21c0.6,1.4,1.3,2,2.8,2c5.8,0,11.5-0.1,17.3,0c1.8,0,2.3-1,2.9-2.3
					c2.7-6,6.5-11.2,11.3-15.7c4.7-4.5,10.2-7.9,16.2-10.3c6.3-2.5,12.9-3.8,19.7-3.5c16.4,0.6,29.6,7.5,39.6,20.4
					c2.3,2.9,4.1,6.1,5.5,9.5c0.6,1.4,1.5,1.9,2.9,1.9c22.6,0,45.1,0,67.7,0c0.6,0,1.2,0,1.6-0.2c4.1-2.7,8.5-5,10.3-10.1
					c0.9-2.4,1.7-4.8,3.4-6.9c1.9,2.2,2.6,5.1,3.7,7.7c2.1,4.8,8.8,9.6,14,9.6c21.6,0,43.2,0,64.8,0c1.9,0,2.9-0.6,3.8-2.5
					c4.3-9.3,10.8-16.7,19.6-22c9.3-5.5,19.4-8.2,30.2-7.2c17.1,1.6,30.4,9.7,39.5,24.4c0.6,0.9,1.5,1.8,1.7,2.9
					c0.9,4,3.4,4.6,7.1,4.4c4.5-0.3,9.1-0.1,13.7,0c1.7,0,2.6-0.6,3.3-2.1c6.1-13.1,16-22,29.6-26.8c11.8-4.1,23.6-3.8,35.1,0.7
					c12.5,5,21.8,13.7,27.4,26.1c0.7,1.5,1.6,2.1,3.3,2.1c13,0.1,26.1-0.3,39.1,0.3c7.3,0.3,14.4,1.5,21.3,4c2.7,1,5.1,2.6,7.4,4.2
					c1,0.9,2,1.8,2.9,2.9c4,4.6,5.1,10.3,5.6,16.2c0.5,6.2-0.2,12.3-1,18.4c-1.8,13.9-4.7,27.7-7.2,41.5c-1.6,8.7-3.1,17.5-4.6,26.2
					c-1.8,10.1-3.6,20.3-5.5,30.4c-1.2,6.8-2.3,13.7-3.8,20.5c-1.2,5.3-2.3,10.8-6.4,14.9c-3.3,3.4-7.6,5-12,6.2
					c-8,2.2-16.3,2.4-24.5,2.7c-3.1,0.1-6.2,0.1-9.4,0.1c-1.1,0-1.7,0.3-2,1.5c-1.7,7.3-4.9,13.9-9.5,19.7c-0.8,1.2-2,2.1-2.9,3.3
					c-4.9,5.6-11,9.5-17.8,12.3c-7.3,3-15,4.4-23,3.7c-13.4-1.3-24.8-6.7-34-16.7c-5.7-6.2-9.3-13.6-11.5-21.7
					c-0.3-1.3-0.8-1.7-2.1-1.6c-4.2,0.1-8.3,0.1-12.5,0c-1.2,0-1.8,0.3-2.1,1.6c-3,11.8-9.4,21.3-19.1,28.5
					c-5.9,4.4-12.6,7.3-19.9,8.9c-11.6,2.5-22.6,0.8-33.1-4.4c-9.4-4.6-16.5-11.7-21.6-20.7c-2.2-3.8-3.5-8-4.9-12.1
					c-0.2-0.6-0.3-1.2-1.2-1.3c-0.7,0-1,0.4-1.1,1c-2,7.1-7.7,10.3-13.8,12.9c-6.9,3-14.3,4.4-21.6,6.2c-19,4.7-38.4,5.5-57.9,4.7
					c-13.1-0.5-26-2.9-38.7-6.1c-6.2-1.6-12.3-3.2-18.1-5.9c-5.2-2.5-9.4-5.8-11.1-11.6c-0.2-0.6-0.4-1.2-1.3-1.1s-0.9,0.8-1.1,1.4
					c-1.5,5.1-3.5,10.1-6.4,14.6c-4.6,7.1-10.5,12.9-18,17c-9.1,5.1-18.8,7.4-29.2,6.4c-13.3-1.3-24.6-6.8-33.6-16.9
					c-5.5-6.2-9.3-13.2-11.2-21.3c-0.3-1.2-0.7-1.7-2.1-1.7c-4.2,0.1-8.5,0-12.7,0c-1.2,0-1.6,0.4-1.9,1.5
					c-2.7,9.4-7.2,17.8-14.5,24.6c-11.9,11.1-26,15.7-41.9,13.5c-15.8-2.2-28-10.5-36.6-24.2c-2.6-4.2-4.4-8.8-5.5-13.5
					c-0.5-1.9-1.2-2.6-3.2-2.5c-8.6,0.2-17.1-0.1-25.6-1.2c-4.8-0.7-9.5-1.4-13.9-3.8C-235.9,416.7-236.9,415.9-238.1,415.3z"/>
				<path class="st3" d="M388.8,446.9c0.6-1.4,1.7-2.4,2.9-3.3C391.2,445.1,390.1,446.1,388.8,446.9z"/>
				<path class="st4" d="M471.9,245.3c-1.2-0.8-2.2-1.7-2.9-2.9C470.4,243,471.4,243.9,471.9,245.3z"/>
				<path class="st5" d="M-238.1,415.3c1.4,0.2,2.5,0.9,3.4,1.9C-236.2,417.2-237.1,416.2-238.1,415.3z"/>
				<path class="st2" d="M185.6,332.2c0-21.1,0-42.2,0-63.3c0-0.4,0-0.8,0-1.2c0-0.6,0-1.4,0.8-1.5c0.9-0.2,1.3,0.5,1.5,1.2
					c0.6,1.9,1.2,3.8,2,5.6c8.4,19.8,28.1,31.8,48.7,30.8c15.2-0.7,27.8-7,37.4-19.1c3.9-4.9,6.7-10.2,8.7-16
					c0.7-2.1,1.7-2.8,3.9-2.7c3.8,0.2,7.7,0.2,11.5,0c2-0.1,2.8,0.6,3.4,2.4c2.6,8.5,7.1,15.8,13.8,21.7
					c14.1,12.6,30.4,16.7,48.6,11.6c12.4-3.4,22-11.1,29-21.9c2.5-3.8,4.2-8,5.6-12.4c0.4-1.1,0.9-1.5,2-1.4
					c11.6,0,23.2-0.1,34.8,0.1c7.3,0.1,11.6,3.7,13.6,10.8c1.8,6.3,1,12.7,0.3,19c-1,9.1-1.9,18.3-2.9,27.4
					c-1.4,13.1-2.6,26.2-4,39.3c-0.8,7.4-1.8,14.7-2.6,22.1c-0.8,7.1-4.7,11.7-11.1,14.4c-5.4,2.2-11,2.5-16.7,2.6
					c-3.5,0.1-7-0.1-10.6-0.1c-1.3,0-1.9-0.4-2.3-1.8c-2.3-9.1-6.7-17-13.5-23.6c-13.9-13.6-30.5-17.7-49.1-13.1
					c-11.2,2.8-20.3,9.1-27.3,18.5c-3.7,5-6.5,10.6-8.2,16.6c-0.4,1.5-1.2,2-2.7,1.9c-4.2-0.2-8.3-0.2-12.5-0.2
					c-1.3,0-1.9-0.4-2.3-1.7c-3.8-12.5-11.1-22.5-22.2-29.3c-10.2-6.3-21.5-8.7-33.5-7c-12.3,1.7-22.7,7.2-31,16.5
					c-4.7,5.2-8.2,11.1-10.3,17.8c-0.4,1.2-0.7,2.1-2.2,1.9c-1.6-0.2-0.9-1.5-0.9-2.3C185.4,374.6,185.7,353.4,185.6,332.2z"/>
				<path class="st2" d="M23.4,335c-0.4,18.3,0,39.4,0,60.5c0,0.9,0.8,2.4-1.1,2.6c-1.6,0.2-1.7-1.1-2-2.1
					c-2.5-7.3-6.5-13.7-11.9-19.3c-9.5-9.7-21-14.9-34.4-15.2c-18.6-0.4-33.4,7.2-44,22.7c-3,4.4-5.1,9.1-6.6,14.2
					c-0.3,1.2-0.8,1.6-2,1.6c-4.5,0-9,0.1-13.4,0.3c-1.5,0.1-1.7-0.8-2-1.8c-2.2-6.8-5.2-13.3-10-18.7
					c-12.6-14.3-28.4-20.3-47.3-17.5c-10.6,1.6-19.7,6.4-27.2,13.7c-6.5,6.3-11.2,14.1-13.3,23c-0.5,2.3-1.5,2.9-3.6,2.9
					c-7,0.1-14.1,0.5-21-1c-6.4-1.4-12.1-4.1-15-10.6c-0.7-1.6-1-3.2-1.2-4.9c-1.5-12.3-2.7-24.6-4-36.9
					c-1.9-19.2-4.1-38.3-6.2-57.4c-0.5-4.8-0.4-9.5,0.9-14.3c1.9-6.7,6.1-10.4,13-10.5c11.8-0.2,23.7-0.1,35.5-0.1
					c1.4,0,1.5,0.7,1.8,1.7c2.2,7.1,5.8,13.4,10.7,19c5.8,6.6,12.9,11.3,21.3,14.2c9.2,3.2,18.5,3.9,28,1.6
					c9.6-2.3,17.9-6.9,24.8-13.8c5.6-5.7,9.9-12.4,12.1-20.2c0.5-1.8,1.4-2.5,3.4-2.4c4.2,0.2,8.5,0.1,12.7,0c1.2,0,1.8,0.4,2.2,1.6
					c3.3,10.8,9.4,19.8,18.5,26.3c11.8,8.4,25,11.8,39.5,8.9c11.1-2.2,20.6-7.4,28.2-15.8c5-5.5,8.7-11.7,10.8-18.9
					c0.3-0.9,0.4-2.2,1.6-2.1c1.3,0.1,0.9,1.5,0.9,2.4C23.6,289.8,23.4,311,23.4,335z"/>
				<path class="st2" d="M-167.3,402.7c-6.9-0.3-13.2-0.7-19.5-0.9c-2.1-0.1-2.2-0.9-1.7-2.5c2.2-7.6,5.9-14.2,11.4-19.9
					c7-7.3,15.5-12,25.5-13.7c5.6-1,5.5-1,6,4.5c0.9,9.6,0.7,19.2,0.5,28.8c0,3.1-0.6,3.7-3.9,3.7
					C-155.3,402.8-161.6,402.7-167.3,402.7z"/>
				<path class="st2" d="M376.1,422.4c6.6,0,13.1,0.1,19.7,0c1.8,0,2.2,0.5,1.8,2.2c-2.1,7.8-5.9,14.6-11.5,20.3
					c-7.4,7.8-16.6,12.4-27.1,14.2c-0.2,0-0.5,0.1-0.7,0.1c-3.4,0.5-3.5,0.5-3.8-2.9c-0.9-10.5-0.7-21.1-0.6-31.6
					c0-1.8,0.8-2.1,2.3-2.1c6.6,0,13.3,0,19.9,0C376.1,422.5,376.1,422.5,376.1,422.4z"/>
				<path class="st2" d="M-118.3,422.9c6.5,0,12.9,0,19.4,0c1.7,0,2,0.4,1.5,2.1c-3.3,10.8-9.3,19.5-18.5,26.1
					c-6.2,4.4-13,6.8-20.4,8.2c-3.6,0.7-3.6,0.6-3.9-2.9c-0.8-10.5-0.5-21.1-0.4-31.6c0-1.7,0.7-2,2.1-2c6.7,0,13.4,0,20.1,0
					C-118.3,422.7-118.3,422.8-118.3,422.9z"/>
				<path class="st2" d="M259.7,453.6c-5.2,2.7-10.7,4.5-16.4,5.5c-3.4,0.6-3.5,0.5-3.7-2.8c-0.5-10.2-1.1-20.4-0.4-30.6
					c0.1-2,0.6-2.7,2.8-2.7c12.8,0.1,25.6,0,38.3-0.1c2.1,0,2.5,0.6,1.9,2.4c-3.2,10.5-9.2,19-18.1,25.4
					C262.5,451.7,261.1,452.6,259.7,453.6z"/>
				<path class="st2" d="M349.3,385.9c0,4.5,0,8.9,0,13.4c0,2.8-0.4,3.2-3.3,3c-10.9-0.6-21.9-1.2-32.8-1.8
					c-1.8-0.1-3.7-0.2-5.5-0.2c-1.6,0-1.7-0.7-1.3-2c2.9-8.8,7.8-16.3,14.8-22.4c7.2-6.2,15.7-9.4,25-11c1.7-0.3,2.3,0.2,2.5,2
					C349.4,373.3,349.4,379.6,349.3,385.9z"/>
				<path class="st2" d="M-3.6,423.4c6.4,0,12.8,0.1,19.2,0c2,0,2.7,0.2,1.9,2.5c-2.7,8.5-7.3,15.8-13.9,21.7
					c-7.4,6.6-16.2,10.3-26,11.8c-2,0.3-2.7-0.3-2.8-2.3c-0.6-10.7-0.9-21.4-0.5-32.1c0.1-1.6,0.8-1.8,2.1-1.8c6.6,0,13.3,0,19.9,0
					C-3.6,423.2-3.6,423.3-3.6,423.4z"/>
				<path class="st2" d="M-51.9,399.7c-6.4,0-12.8-0.1-19.2,0.1c-2.2,0.1-2.3-0.8-1.7-2.5c2.3-7.1,6.3-13.3,11.5-18.6
					c7.7-7.8,17.2-11.9,27.8-13.7c1.6-0.3,2.7-0.2,2.8,1.9c0.4,10,1.1,19.9,0.5,29.9c-0.1,2-0.7,2.7-2.8,2.7
					c-6.3-0.1-12.6-0.1-18.9-0.1C-51.9,399.6-51.9,399.7-51.9,399.7z"/>
				<path class="st2" d="M384.1,287.6c-7.5,7-16.5,11-26.6,12.4c-1.9,0.3-2.7-0.1-2.9-2.2c-0.7-9.8-0.8-19.6-0.7-29.5
					c0-1.7,0.6-2.3,2.4-2.3c12.9,0.1,25.9,0.1,38.8,0c1.6,0,2.2,0.3,1.6,2c-2.3,6.2-5.3,11.8-9.9,16.6
					C386.2,285.9,385.1,286.7,384.1,287.6z"/>
				<path class="st2" d="M260.5,266.1c6.4,0,12.8,0.1,19.2,0c2.3,0,2.3,0.8,1.6,2.5c-3,7.6-7.3,14.3-13.5,19.8
					c-7.5,6.7-16.2,10.4-26.1,11.7c-1.7,0.2-2.2-0.3-2.3-2c-0.7-9.8-0.9-19.6-0.8-29.5c0-2,0.6-2.6,2.6-2.6
					C247.7,266.2,254.1,266.1,260.5,266.1z"/>
				<path class="st2" d="M-119,266.1c6.4,0,12.8,0,19.2,0c1.6,0,2.3,0.1,1.6,2.1c-3.4,9.8-9.3,17.5-17.8,23.5
					c-6.6,4.7-13.7,7.1-21.5,8.4c-2,0.3-2.6-0.4-2.7-2.3c-0.6-10-0.7-20-0.5-29.9c0-1.6,0.8-1.8,2.1-1.7
					C-132.1,266.1-125.6,266.1-119,266.1z"/>
				<path class="st2" d="M-3.8,266.1c6.4,0,12.8,0,19.2,0c1.8,0,2.2,0.3,1.6,2.2c-3.3,9.7-9.2,17.4-17.6,23.4
					c-6.5,4.6-13.7,7.2-21.5,8.5c-2.1,0.3-2.7-0.3-2.9-2.4c-0.7-9.9-0.6-19.8-0.5-29.7c0-1.5,0.6-1.9,2-1.8
					C-16.9,266.1-10.4,266.1-3.8,266.1z"/>
				<path class="st2" d="M213,398.2c-6.5,0-12.9-0.1-19.4,0c-1.9,0-1.9-0.8-1.4-2.1c2.2-6.2,5.5-11.8,10.1-16.5
					c7.2-7.4,15.7-12.3,26-13.9c5.7-0.9,5.7-1,5.9,4.8c0.3,8.9,0.6,17.7,0.3,26.6c-0.1,1.8-0.5,2.3-2.3,2.2c-6.4-0.1-12.8,0-19.2,0
					C213,399,213,398.6,213,398.2z"/>
				<path class="st2" d="M-50.5,233.9c-6.1,0-12.2,0-18.2,0c-1.8,0-2.4-0.2-1.4-2.2c7.4-14.2,19-22.6,34.7-25.4
					c5.1-0.9,4.4-1.5,4.8,3.8c0.6,7.1,0.7,14.2,0.7,21.3c0,1.9-0.6,2.5-2.5,2.5C-38.3,233.8-44.4,233.9-50.5,233.9z"/>
				<path class="st2" d="M-165.8,233.9c-6.1,0-12.1,0-18.2,0c-1.7,0-2.3-0.1-1.3-2.1c6.9-13.2,17.4-21.6,32-25
					c1.8-0.4,3.6-0.7,5.4-1.1c1.3-0.3,2,0.1,2,1.5c0.4,8.2,1.1,16.4,0.9,24.7c0,1.7-0.9,1.9-2.3,1.9
					C-153.5,233.9-159.7,233.9-165.8,233.9z"/>
				<path class="st2" d="M213.6,233.9c-5.9,0-11.8-0.1-17.7,0c-1.9,0-2.6-0.4-1.6-2.3c4.1-8,10-14.3,17.6-19.1
					c6-3.8,12.6-5.7,19.5-6.8c1.7-0.3,2.3,0.2,2.4,1.9c0.7,8.1,0.6,16.3,0.7,24.4c0,1.6-0.8,1.8-2.1,1.8
					C226.1,233.9,219.9,233.9,213.6,233.9z"/>
				<path class="st2" d="M329,233.9c-6.1,0-12.1,0-18.2,0c-1.8,0-2.1-0.5-1.4-2.1c2.9-5.8,6.9-10.8,11.8-15.1
					c7.4-6.3,16-9.6,25.5-11c1.3-0.2,1.9,0.1,2.1,1.5c1,8.4,0.8,16.8,0.8,25.1c0,1.6-1.1,1.5-2.2,1.5
					C341.3,233.9,335.2,233.9,329,233.9z"/>
				<path class="st2" d="M-0.4,380.8c-4.9,3.8-9.2,8.2-13.8,12.4c-2,1.8-3.9,3.7-5.9,5.5c-1.4,1.3-3.2,0.7-4.8,0.6
					c-1.4-0.2-0.8-1.7-0.8-2.6c-0.4-9.8,0-19.6,0.5-29.4c0.1-2.2,1.1-2.5,2.9-2.2c10.3,1.6,19.4,5.8,27.1,12.8
					c0.7,0.7,1.2,1.6,1.9,2.4c0.3,0.6,0.3,1-0.5,1c-0.2-0.1-0.4-0.3-0.5-0.4C3.1,379.1,1.9,379.1-0.4,380.8z"/>
				<path class="st2" d="M268.7,220.4c-3.9-1.1-5.9,2-8.3,4c-2.9,2.4-5.4,5.1-8.1,7.7c-1.2,1.2-2.6,1.9-4.5,1.8
					c-2.4-0.2-4.8-0.1-7.2,0c-1.4,0-2-0.4-2-1.9c-0.1-8.2,0.3-16.4,0.9-24.7c0.1-1.2,0.5-1.8,1.7-1.6c10.8,1.4,20.2,5.6,28.1,13.1
					c0.2,0.2,0.3,0.4,0.4,0.6C270.2,220.5,269.7,220.8,268.7,220.4z"/>
				<path class="st2" d="M-114.7,220.5c-2.2,2-4.5,4-6.7,6c-2.2,2-4.4,4-6.5,6.1c-0.8,0.8-1.7,1.3-3,1.3c-2.7,0-5.4-0.1-8.1,0
					c-1.3,0-1.9-0.4-1.9-1.8c0-8.2,0-16.5,0.7-24.7c0.1-1.4,0.7-2,2.1-1.7c7.4,1.1,14.4,3.3,20.8,7.4c0.3,0.2,0.7,0.4,0.7,0.9
					c0.9,1.1,2.3,1.6,3.3,2.7c1.7,1.8,1.7,2.3-0.6,3.3C-114.2,220.1-114.5,220.2-114.7,220.5z"/>
				<path class="st2" d="M2.4,218.5c-2.8,2.5-6.1,4.2-9.1,6.4c-2.8,2-5.7,4.1-8,6.8c-2.9,3.3-6.6,2-10,2.1c-0.8,0-0.8-0.8-0.8-1.5
					c0-8.3-0.1-16.6,0.7-24.9c0.1-1.3,0.5-1.9,1.9-1.7c8.9,1.2,16.9,4.3,24.1,9.6c0.2,0.1,0.2,0.4,0.3,0.6
					C1.7,216.9,3.2,217.3,2.4,218.5z"/>
				<path class="st6" d="M378.8,220.5c-1.3,2.1-3.7,2.8-5.5,4.1c-3.1,2.2-6,4.6-8.6,7.3c-3,3.1-6.5,1.6-9.9,1.8
					c-0.8,0-0.8-0.8-0.8-1.5c-0.1-8.2,0.1-16.4,0.8-24.6c0.1-1.2,0.3-2.2,2-1.9c6.3,1.1,12.5,2.6,18.1,5.8c0.3,0.1,0.4,0.5,0.6,0.7
					c1.3,1.2,2.9,1.8,4.3,3c2.7,2.2,2.6,3.2-0.4,4.9C379.1,220.2,378.9,220.3,378.8,220.5z"/>
				<path class="st6" d="M-159.3,422.9c-2.4,2.6-4.7,5-7,7.4c-2.9,3.2-5.8,6.4-8.7,9.7c-1.2,1.4-0.8,4.6,0.5,6
					c0.7,0.7,1.1,0.3,1.6,0c8.6-5.2,16.3-11.5,23.3-18.7c1-1,1.4-2.3,1.9-3.5c0.3-0.7,0.8-1.2,1.6-1c0.8,0.2,0.8,0.8,0.8,1.5
					c0.3,11.3,0.3,22.5-0.7,33.8c-0.1,1.7-1.1,1.5-2.2,1.4c-5-0.6-9.9-1.9-14.5-4c-8-3.6-14.5-9-19.5-16.3
					c-3.1-4.6-5.5-9.5-6.8-14.9c-0.3-1.1-0.4-1.8,1.2-1.8c9,0.1,18.1,0.1,27.1,0.2C-160.2,422.6-159.9,422.7-159.3,422.9z"/>
				<path class="st6" d="M204.9,445.6c0.2,1.3,0.8,1,1.7,0.5c6.8-4.1,13.2-8.7,18.9-14.3c2.5-2.4,5.3-4.6,6.7-7.9
					c0.3-0.7,0.8-0.7,1.4-0.6c0.9,0.1,0.8,0.9,0.8,1.5c0.1,5.6,0.2,11.2,0.2,16.8c-0.1,5.2-0.5,10.4-0.6,15.6c0,2.1-0.9,2.6-2.8,2.3
					c-8.6-1.3-16.5-4.3-23.5-9.6c-7.4-5.7-12.6-13-15.6-21.8c-1.5-4.4-1.4-4.5,3.4-4.5c7.3,0,14.5-0.1,21.8-0.1
					c0.7,0,1.6-0.4,1.9,0.4s-0.6,1-1,1.4c-4.4,4.9-9.1,9.5-13.2,14.6C203.5,441.7,203.8,443.6,204.9,445.6z"/>
				<path class="st2" d="M219.4,275.6c0.2-0.2,0.3-0.3,0.5-0.5c3.7-1.3,5.5-4.7,8.1-7.2c0.8-0.7,1.4-1.4,2.6-1.4
					c2.4,0,2.9,0.4,2.6,2.7c-0.3,1.7,0.3,3.3,0.3,5c0.1,5.9-0.3,11.8,0.3,17.6c0.2,2.1-0.4,3.9-1.1,5.8c-0.6,1.9-1.6,2.4-3.5,1.7
					c-2.3-0.8-4.8-1.1-7.1-1.9c-5.4-1.9-10.6-4.4-15-8.4c-1.2-1.1-0.8-1.9,0.4-2.6c4-2.5,7.3-5.9,10.7-9.1
					C218.8,276.9,219,276.2,219.4,275.6z"/>
				<path class="st6" d="M-126.6,401.3c4.1-4.5,8.1-8.7,12-13c1.1-1.2,2.1-2.4,3.1-3.6c1.8-2.1,1.1-4.2,0-6.3
					c-0.5-1-1.1-0.5-1.7-0.1c-7.3,4.4-14,9.7-20.2,15.7c-2.2,2.1-4.4,4-5.3,7.1c-0.1,0.5-0.3,1.2-1.1,0.9c-0.5-0.2-0.7-0.6-0.7-1.1
					c0-0.6,0-1.1,0-1.7c-0.2-10.6-0.4-21.3,0.4-31.9c0.2-2.3,1.2-2.6,3-2.3c11.8,2,22.1,7,30,16.2c4.3,5.1,7.5,10.8,9.5,17.1
					c0.3,1,0.4,1.8-1.2,1.9c-8.9,0.4-17.9,0.9-26.8,1.3C-125.8,401.6-126,401.5-126.6,401.3z"/>
				<path class="st2" d="M338.8,430.6c2.3-2.3,4.6-4.6,6.8-7c0.9-1,1.9-0.9,3-0.7c1.1,0.2,0.7,1.3,0.7,2c0.2,10.8,0.5,21.6-0.5,32.3
					c-0.2,2.1-1,2.4-2.8,2.2c-12.3-1.9-22.6-7.3-30.6-16.9c-4.3-5.2-7.4-11.1-9.2-17.6c-0.2-0.8-0.9-2,0.8-2c8.3,0,16.6,0,25.3,0
					c-1.4,2.6-3.6,4.2-5.3,6.2c-3.5,4.1-6.2,8.7-9.2,13.2c-0.3,0.4-0.5,0.8,0,1.2c1.3,1.5,4.7,1.7,6.4,0.4c3.9-3.1,7.4-6.5,11-9.8
					C336.4,432.9,337.6,431.7,338.8,430.6z"/>
				<path class="st6" d="M369.9,402.7c2.3-2.6,4.2-4.7,6.1-6.8c3.7-4.2,6.6-9.1,9.8-13.7c0.4-0.5,0.5-1-0.3-1.6
					c-2.3-1.5-4.1-1.7-6.4,0.1c-4.6,3.6-8.8,7.8-13,11.8c-3.1,2.9-6.3,5.8-9.1,9.2c-0.9,1.1-2.7,0.7-3.1-0.7
					c-0.1-0.4-0.1-0.8-0.1-1.2c-0.2-10.8-0.3-21.6,0.5-32.3c0.2-2.2,0.9-2.9,3-2.5c12,1.9,22.4,7.1,30.3,16.4
					c4.5,5.2,7.7,11.2,9.6,17.9c0.5,1.9,0.1,2.5-1.9,2.5C387.2,402,378.9,402.8,369.9,402.7z"/>
				<path class="st2" d="M-44.6,277.9c2.5-2.6,5.1-5.1,8-7.2c1.4-0.8,2.6-1.8,3.5-3.1c0.5-0.7,1.1-1.2,2-0.9
					c0.8,0.3,0.9,1.1,0.8,1.8c-0.1,6.9,0.4,13.9-0.3,20.8c-0.3,2.5-0.9,5-1.2,7.5c-0.3,2.5-1.6,3.1-4.1,2.3
					c-1.9-0.6-3.8-1.2-5.8-1.5c-2-0.2-3.6-1.5-5.4-2.3c-3-1.2-5.8-2.9-8.5-4.8c-2-1.4-2.1-2.5-0.1-4.1c2.3-1.9,4.9-3.5,7.5-5.1
					C-46.7,280.5-45.2,279.7-44.6,277.9z"/>
				<path class="st6" d="M255,399.2c3.3-3.6,6.6-7.1,9.8-10.7c1.2-1.3,2.3-2.7,3.4-4c0.6-0.7,0.9-1.5,1-2.4c0.1-1.6-0.3-3.2-1.5-4.1
					c-1-0.7-1.9,0.7-2.8,1.2c-8.2,5-15.4,11.2-22,18.1c-0.3,0.3-0.6,0.6-0.7,0.9c-0.3,1.1-1.1,1.3-2.1,1.1c-1.2-0.2-0.9-1.2-0.9-1.9
					c-0.5-7.4-0.4-14.7,0-22.1c0.2-2.9,0.3-5.7,0.4-8.6c0-1.5,0.5-2.2,2.1-1.9c11.5,1.7,21.4,6.3,29.4,14.8
					c4.6,4.9,7.9,10.7,10.3,17c1.1,2.9,1,2.9-2,2.9c-7.3,0-14.6,0-21.8-0.1C256.9,399.6,256,399.9,255,399.2z"/>
				<path class="st6" d="M-30,442.9c-0.2,3.6-0.5,8.9-0.7,14.3c-0.1,1.9-0.8,2.4-2.6,2.1c-12.1-1.7-22.3-7-30.4-16.3
					c-4.5-5.1-7.5-11.1-9.5-17.6c-0.6-2-0.1-2.6,2-2.5c7.3,0.1,14.5,0.1,21.8,0.1c0.5,0,1.3-0.3,1.5,0.2c0.4,0.7-0.4,1.1-0.8,1.5
					c-5.1,5.1-8.9,11.1-12.9,17c-0.7,1-0.5,1.6,0.6,2.3c2.3,1.2,4.1,1.2,6.1-0.6c5.8-5.1,11.7-10.2,17-15.9c1.2-1.3,2.8-2.4,3.9-3.8
					c0.7-0.9,1.8-0.7,2.7-0.6c1.1,0.2,0.8,1.2,0.9,1.9C-30,430.4-29.9,435.8-30,442.9z"/>
				<path class="st6" d="M335.1,277.5c3.8-3.4,7.9-6.6,11.1-10.7c0.7-0.9,1.5-0.8,2.3-0.7c1.1,0,0.9,0.9,0.9,1.6
					c0.3,10,0.2,20-0.5,30c-0.2,2-0.8,2.7-3,2.4c-7.2-1.1-13.9-3.4-20-7.4c-9.3-6.1-15.8-14.5-19.2-25.1c-0.4-1.1,0-1.5,1-1.5
					c7.8,0,15.7,0,23.5,0c0.4,0,0.9-0.2,1.1,0.3s-0.2,0.8-0.5,1.2c-3.9,4.3-8,8.4-11.7,12.9c-0.8,1-1.2,2-1.1,3.3
					c0.3,2.9,1.7,3.7,4,2.2c3-2,6-4.1,9-6.1C333.3,279.3,334,278.1,335.1,277.5z"/>
				<path class="st6" d="M-44.6,277.9c0.4,2.6-1.8,3.2-3.3,4.1c-2.7,1.6-5.4,3.3-7.8,5.3c-1.3,1.1-1.2,1.8,0.3,2.7
					c2.8,1.6,5.4,3.7,8.3,4.7c2.4,0.8,4.2,2.9,7.1,2.6c1.4-0.1,2.9,0.8,4.3,1.4c1.9,0.9,2.9,0.2,3.3-1.7c0.2-0.8,0.2-1.6,0.2-2.4
					c0-1.5,0-2.9,1-4.1c0.5-0.6,0.4-1.3,0.4-2.1c0-6.5,0-13.1,0-19.6c0-0.7,0.3-1.6-0.6-1.9s-1.2,0.6-1.5,1.2
					c-0.8,1.5-2,2.4-3.8,2.4c1.2-1.4,2.4-2.9,3.6-4.3c0.6-0.7,1.5-0.4,2.3-0.2c0.8,0.2,0.8,1.1,0.8,1.8c0.1,8.2,0.3,16.5-0.4,24.7
					c-0.1,1.2-0.2,2.4-0.3,3.6c-0.2,4.4-0.3,4.4-4.6,3.6c-11.1-2.1-20.5-7-28-15.5c-3.5-3.9-6.4-8.2-8.3-13.1
					c-0.8-1.2-0.8-2.6-1.5-3.8c-0.2-1,0.2-1.4,1.3-1.4c7.8,0,15.5,0,23.3,0c0.4,0,1.1-0.2,1.2,0.4c0.1,0.6-0.4,1-0.8,1.4
					c-3.8,4.2-7.8,8.2-11.4,12.6c-0.8,1-1.2,2.1-1,3.3c0.3,3,1.6,3.8,4,2.2C-52.4,283.3-48.5,280.6-44.6,277.9z"/>
				<path class="st6" d="M219.4,275.6c0.4,2.5-2.1,3.1-3.2,4.5c-2.7,3.1-6.2,5.3-9.8,7.9c3.4,1.6,5.9,4.1,9,5.9
					c2.1,1.3,5.2,0.5,6.4,3.1c2-0.4,3.7,0.4,5.5,1c0.7,0.2,1.3,0.5,2,0.8c1.4,0.6,2.5,0.4,3.1-1.4c1.3-3.9,1.6-7.7,0.2-11.6
					c-0.5-1.4,0.5-2.6,0.4-4c-0.2-3.6,0.4-7.2-0.5-10.7c-0.1-0.5,0-1.1,0-1.7c0.1-0.9,1-2.1-0.4-2.3c-1.2-0.2-2.5-0.6-3.6,1
					c-1.7,2.3-3.8,4.4-5.9,6.5c-0.7,0.7-1.6,1.4-2.7,0.6c2.6-3,5.6-5.6,8.5-8.3c1.6-1.4,3.5-0.6,5.3-0.6c0.8,0,0.6,1,0.6,1.6
					c0.2,10.1,0.3,20.3-0.5,30.4c-0.1,1.8-0.9,2.1-2.4,1.9c-6.5-0.8-12.6-2.7-18.3-6c-10.5-6.1-17.6-15-21.5-26.4
					c-0.5-1.4,0-1.6,1.1-1.6c6.9,0,13.7,0,20.6,0c0.4,0,1-0.2,1.2,0.4c0.1,0.5-0.3,0.9-0.7,1.2c-2.7,2.6-4.9,5.6-6.8,8.8
					c-0.8,0.9-1.3,1.9-1.9,2.9c-0.4,0.5-1,1-1.1,1.5c-0.2,1.2-2.3,1.9-1,3.4c1.4,1.5,4.2,1.8,5.7,0.6c3.1-2.7,6.2-5.4,9.2-8.2
					C218.3,276.3,218.9,276,219.4,275.6z"/>
				<path class="st6" d="M-145.3,279.6c0.3,6.2-0.6,12.3-0.6,18.5c0,1.9-0.8,2.3-2.5,2c-11.5-1.5-21.2-6.4-29.2-14.8
					c-4.7-4.9-8-10.7-10.3-17c-0.5-1.3-0.7-2.2,1.3-2.2c6.6,0.1,13.3,0,19.9,0.1c0.5,0,1.2-0.3,1.4,0.4c0.2,0.5-0.4,0.8-0.7,1.1
					c-4.3,4.5-7.4,9.9-11,15c-0.7,1-0.6,1.5,0.6,2.2c2.6,1.3,4,1.2,6.3-0.7c6.4-5.4,12.3-11.2,18.3-17c1.8-1.7,3.8-0.9,5.6-0.8
					c0.8,0,0.7,1.3,0.8,2.1C-145.2,272.1-145.3,275.8-145.3,279.6z"/>
				<path class="st7" d="M6.3,381.2c0.4-0.2,0.5-0.6,0.5-1c4.6,4.4,7.7,9.7,9.9,15.7c0.6,1.7,0.4,2.3-1.7,2.4
					c-6.3,0.1-12.6,0.4-18.9,0.5c-0.5,0-1.2,0.4-1.5-0.3c-0.3-0.6,0.3-1,0.7-1.4c4.2-4.5,7.4-9.7,10.7-14.8
					C6.2,381.9,6.3,381.6,6.3,381.2z"/>
				<path class="st7" d="M378.8,220.5c0.1-0.2,0.2-0.5,0.3-0.6c2.5-2.5,2.5-2.4-0.3-4.9c-1.1-1-2.9-1.1-3.4-2.8
					c4.3,1.7,7.5,4.8,10.5,7.9c3.5,3.6,6.3,7.7,8.5,12.2c0.7,1.5,0,1.5-0.9,1.5c-5.2,0-10.4,0-15.6,0c-0.4,0-0.9,0.1-1-0.4
					c-0.2-0.7,0.4-1.2,0.8-1.6c2-2.1,4-4.3,5.8-6.6c0.7-0.9,1.1-1.9,1-3.1c-0.1-1.2-0.6-2.5-1.4-3.2c-1.2-1.1-1.7,0.8-2.7,1
					C379.8,220.1,379.3,220.3,378.8,220.5z"/>
				<path class="st8" d="M2.4,218.5c0.1-1-1.1-1.5-1-2.5c4.9,3.2,8.3,7.7,11.3,12.6c0.8,1.2,1.4,2.5,2,3.8c0.3,0.7,0.5,1.5-0.6,1.5
					c-5.7,0-11.4,0-17.7,0c2.6-3,4.8-5.5,6.9-8.1c1.9-2.2,1.9-4.5,0.3-6.8C3.4,218.6,2.9,218.6,2.4,218.5z"/>
				<path class="st7" d="M-114.7,220.5c0-0.1,0-0.2,0.1-0.2c2.3-2.2,2.3-2.6-0.4-4.5c-0.7-0.5-1.4-0.8-1.6-1.7
					c4.2,2,7.1,5.4,10.1,8.8c2.3,2.6,4.1,5.6,5.7,8.7c0.8,1.5,0.9,2.5-1.4,2.4c-3.9-0.1-7.8,0-11.7-0.1c-0.6,0-1.4,0.3-1.7-0.4
					c-0.3-0.7,0.3-1.2,0.6-1.7c1.8-2.8,3.6-5.5,5.5-8.2c0.8-1.2,1-1.8-0.6-2.6C-111.6,220.2-113.1,220.4-114.7,220.5z"/>
				<path class="st7" d="M273.2,223.2c2.7,2.8,4.5,6.1,6.2,9.5c0.5,1-0.3,1.1-0.9,1.1c-4.5,0-9.1,0-13.6,0c-0.9,0-1.4-0.3-0.8-1.3
					c2.3-3.4,4.5-6.8,6.8-10.3C272.1,221.3,272.5,222.7,273.2,223.2z"/>
				<path class="st9" d="M273.2,223.2c-0.8-0.2-1.4-1.2-2.4-0.9c-0.6-0.7-1.7-1-2.1-1.9c0.6-0.1,1-0.4,1-1
					C271.4,220.3,272.5,221.6,273.2,223.2z"/>
				<path class="st10" d="M-0.4,380.8c1.8-2.2,4.2-2.2,6.1,0C3.7,379.8,1.6,379.6-0.4,380.8z"/>
				<path class="st11" d="M204.9,445.6c-1.8-2.1-1.8-4,0-5.8C204.1,441.7,204.4,443.6,204.9,445.6z"/>
				<path class="st12" d="M259.7,453.6c1.1-1.5,2.7-2.2,4.3-2.9C262.9,452.3,261.3,453,259.7,453.6z"/>
				<path class="st13" d="M338.8,430.6c-0.9,1.5-2.1,2.7-3.7,3.5C336.1,432.6,337.2,431.3,338.8,430.6z"/>
				<path class="st14" d="M-73,267.5c0.9,1.1,1.4,2.4,1.5,3.8C-72.7,270.3-73,268.9-73,267.5z"/>
				<path class="st15" d="M384.1,287.6c0.5-1.4,1.8-2,2.8-3C386.5,286.2,385.4,287,384.1,287.6z"/>
				<path class="st16" d="M335.1,277.5c-0.7,1.1-1.5,2.1-2.9,2.3C333,278.9,333.7,277.9,335.1,277.5z"/>
				<path class="st17" d="M205,279.5c0.2-1.2,0.7-2.3,1.9-2.9C206.7,277.8,206,278.7,205,279.5z"/>
				<path class="st2" d="M-145.9,425.9c0,7.4,0,14.9,0,22.3c0,0.9-0.3,1.7-0.8,2.4c-0.7,1-0.9,2.1-0.3,3.2c0.6,1.1,0.4,1.9-0.1,3.1
					c-0.6,1.7-1.1,1.5-2.7,1.1c-4.2-0.9-8.1-2.6-12-4c-3.3-1.2-6.1-3.3-8.9-5.5c-1.1-0.8-0.7-1.5,0.2-2c3.9-2.1,7.2-5.1,10.8-7.6
					c2.3-1.5,4.3-3.7,6.3-5.7C-150.9,430.8-148,428.9-145.9,425.9z"/>
				<path class="st2" d="M232.8,437.4c-0.2,2.7,0.3,6-0.4,9.2c-0.6,2.5,1.2,4.7,1,7.2c-0.1,1.7-1.4,2.6-1.6,4.1
					c0,0.1-0.2,0.2-0.3,0.3c-1.3-2.3-4.1,1.1-5.4-1.5c-0.1-0.3-0.6-0.6-1-0.6c-5.7-0.4-9.9-4-14.7-6.4c-0.4-0.2-0.9-0.3-1.3-0.4
					c-1.5-0.5-1.5-1.4-0.4-2.3c1.7-1.4,3.4-3,5.3-4c4.4-2.2,7.8-5.6,11.2-8.9c1.8-1.8,3.5-3.7,5.4-5.3c0.6-0.5,1.2-1.1,1.9-0.9
					c0.9,0.3,0.5,1.2,0.5,1.9C232.8,432.3,232.8,434.6,232.8,437.4z"/>
				<path class="st2" d="M-139.3,397.3c-0.6-0.7-0.5-1.4-0.3-2c1.8-4.7,0.9-9.5,0.7-14.2c-0.1-2.5-1-5.1-0.8-7.7
					c0.1-1.4-0.2-2.8,1-4c0.5-0.5,0.5-1.3,0.2-2c-0.2-0.4-1-0.9-0.2-1.4c0.5-0.3,1.2-0.3,1.6,0.1c1.7,1.5,3.7,1.8,5.8,1.7
					c2.8-0.2,4.7,1.9,7.1,2.7c3.1,1,5.9,2.8,8.5,4.9c1.2,1,1.2,1.5,0.1,2.6c-1,1.1-2.3,1.8-3.4,2.5c-5.2,3.3-10.2,6.9-14.2,11.8
					C-134.8,394.1-137,395.7-139.3,397.3z"/>
				<path class="st2" d="M348.5,428.6c-0.4,3.6-1.4,7.1-0.9,10.8c0.5,3.5,1.3,7,1,10.6c-0.1,1.2,0.3,2.4-1,3.2
					c-0.2,0.1-0.4,0.6-0.3,0.8c1.1,3.9-1.8,3.4-3.9,3.5c-0.8,0-1.5-1.2-2.6-1.4c-6-1.1-11-4.3-16.1-7.4c-1.9-1.2-1.9-1.8,0-2.9
					c3.4-2.1,6.2-4.8,9-7.6c2.3-2.2,4.5-4.5,7-6.5c2.1-1.6,3.6-3.6,5.5-5.2c0.6-0.5,1-1.7,2-1.3c0.8,0.4,0.3,1.5,0.4,2.2
					C348.5,427.8,348.5,428.2,348.5,428.6z"/>
				<path class="st2" d="M354.7,400.9c0-8.9,0-17.2,0-25.5c0-0.5,0-1,0.4-1.3c1.2-1.3,1.5-2.6,0.4-4.1c-0.4-0.6-0.4-1.4-0.1-2.1
					c0.7-1.4,1.1-2.5,3.4-1.4c3.4,1.7,7.5,1.8,11,3.5c3.8,1.8,7.3,3.8,10.5,6.4c0.9,0.8,0.7,1.2-0.2,1.8c-7.1,4.8-13,11-19,17.1
					C359.4,397.3,357.5,399.3,354.7,400.9z"/>
				<path class="st2" d="M239.5,387c-0.4-2.8,0.2-6.2,1.2-9.6c0.3-1.1,0.5-2.3,0.1-3.3c-1.1-2.7,0.9-5,0.7-7.5
					c-0.1-0.6,0.5-0.7,1-0.3c2.1,1.5,4.6,1.5,7,2c1.9,0.4,3.8,1.3,5.5,2.1c3,1.4,6.1,3,8.8,5.1c1,0.8,1.4,1.4,0,2.3
					c-2.1,1.4-4.2,2.9-6.3,4.3c-5.3,3.7-10.1,8-14.6,12.7c-0.5,0.6-1.1,1.9-2,1.3c-0.8-0.5-1.4-1.5-1.4-2.6
					C239.6,391.5,239.5,389.6,239.5,387z"/>
				<path class="st2" d="M-31.9,459.1c-2.3-2-4.8-0.7-7-2.3c-1.8-1.3-4.4-1.3-6.6-2.2c-4.1-1.6-7.6-4.2-11.2-6.5
					c-0.9-0.6-1.1-1.4,0.1-2c5.2-2.6,8.7-7.2,12.9-10.9c3.5-3,6.7-6.3,10-9.5c0.9-0.9,1.2-0.7,1.6,0.5c2.4,5.9,1.8,12.1,1,17.9
					c-0.6,3.7,0,7.7-1.5,11.3C-33,456.4-32.1,457.3-31.9,459.1z"/>
				<path class="st2" d="M347.4,268.8c0.4,5,1.1,10,0.2,15c-0.3,1.5,0.1,3.1,0.5,4.7c0.7,3.2,1.1,6.6-1,9.6
					c-0.7,1.1-1.7,1.4-2.6,0.8c-2-1.5-4.4-1.5-6.7-2.2c-4.8-1.6-9.4-3.6-13.5-6.8c-1.5-1.2-1.1-2.5,1-3.6c3-1.5,5.6-3.5,8.2-5.6
					c4.2-3.4,8.1-7.1,12.1-10.8C346.1,269.4,346.6,268.9,347.4,268.8z"/>
				<path class="st2" d="M-145.9,278.3c0,2-0.1,4,0,6c0.2,3.8-1.1,7.4-0.6,11.2c0.4,2.8-2.1,4-4.8,3c-1.3-0.5-2.7-0.9-4.1-1.1
					c-4.6-0.9-8.6-2.8-12.5-5.4c-1.1-0.8-2.5-1.2-3.7-2c-1.6-1.3-1.7-2.3-0.1-3.7c0.8-0.6,1.6-1.4,2.7-1.5c0.6-0.1,1.1-0.3,1.4-0.7
					c3.7-4.4,8.3-8,12.4-12.1c1.5-1.5,3.2-2.7,4.5-4.3c1-1.3,2.5-0.6,3.8-0.5s0.9,1.3,0.9,2.1C-145.9,272.2-145.9,275.2-145.9,278.3
					z"/>
			</g>
		</g>
	</g>
</g>
<g id="Layer_3">
	<g>
		<path class="st18" d="M4.1,57.7V5.3C4.1,2.4,6.5,0,9.4,0h111.4c2.9,0,5.3,2.4,5.3,5.3v52.4c0,1-0.7,1.7-1.7,1.7H6
			C4.8,59.4,4.1,58.7,4.1,57.7z M46.4,75.6c0,6-4.8,10.9-10.9,10.9c-6,0-10.9-4.8-10.9-10.9c0-6,4.8-10.9,10.9-10.9
			S46.4,69.5,46.4,75.6z M40.8,75.6c0-3.1-2.4-5.6-5.6-5.6s-5.6,2.4-5.6,5.6c0,3.1,2.4,5.6,5.6,5.6C38.4,81.1,40.8,78.7,40.8,75.6z
			 M26.1,64.7H1.7c-1,0-1.7,0.7-1.7,1.7v5.3c0,1,0.7,1.7,1.7,1.7h19.6C21.7,70,23.4,66.9,26.1,64.7z M162.7,75.6
			c0,6-4.8,10.9-10.9,10.9c-6,0-10.9-4.8-10.9-10.9c0-6,4.8-10.9,10.9-10.9C157.8,64.7,162.7,69.5,162.7,75.6z M157.1,75.6
			c0-3.1-2.4-5.6-5.6-5.6s-5.6,2.4-5.6,5.6c0,3.1,2.4,5.6,5.6,5.6S157.1,78.7,157.1,75.6z M182,66.4v5.3c0,1-0.7,1.7-1.7,1.7H166
			c-1-7-7-12.3-14.3-12.3s-13.2,5.3-14.2,12.3H50c-0.5-3.6-2.2-6.5-4.8-8.9h86.1v-50c0-1.9,1.7-3.6,3.6-3.6h16.7
			c4.6,0,8.9,2.4,11.6,6.3l10.6,15.9c1.4,2.4,2.4,5.1,2.4,8V65h4.3C181.3,64.7,182,65.4,182,66.4z M164.1,33.3l-8.4-12.1
			c-0.2-0.5-1-0.7-1.4-0.7H141c-1,0-1.7,0.7-1.7,1.7v12.1c0,1,0.7,1.7,1.7,1.7h22C164.1,36.2,164.8,34.5,164.1,33.3z"/>
	</g>
</g>
<g id="Layer_1_2_">
</g>
</svg>
