<?xml version="1.0" encoding="utf-8"?>
<!-- Generator: Adobe Illustrator 22.1.0, SVG Export Plug-In . SVG Version: 6.00 Build 0)  -->
<svg version="1.1" xmlns="http://www.w3.org/2000/svg" xmlns:xlink="http://www.w3.org/1999/xlink" x="0px" y="0px"
	 viewBox="0 0 274 144" style="enable-background:new 0 0 274 144;" xml:space="preserve">
<style type="text/css">
	.st0{display:none;}
	.st1{display:inline;}
	.st2{fill:#FEFEFE;}
	.st3{fill:#797979;}
	.st4{fill:#707070;}
	.st5{fill:#5D5D5D;}
	.st6{fill:#FDFDFD;}
	.st7{fill:#FBFBFB;}
	.st8{fill:#FAFAFA;}
	.st9{fill:#C9C9C9;}
	.st10{fill:#818181;}
	.st11{fill:#898989;}
	.st12{fill:#8C8C8C;}
	.st13{fill:#878787;}
	.st14{fill:#616161;}
	.st15{fill:#7C7C7C;}
	.st16{fill:#676767;}
	.st17{fill:#6A6A6A;}
	.st18{fill:#00A4F3;}
</style>
<g id="Layer_2" class="st0">
	<g id="cscbax.tif" class="st1">
		
			<image style="overflow:visible;" width="199" height="70" id="Layer_1_1_" xlink:href="6005F938B776F5F9.png"  transform="matrix(1 0 0 1 37 37)">
		</image>
	</g>
	<g id="OUW6xI.tif" class="st1">
		<g>
			<g>
				<path class="st2" d="M154.2,493c-124.1,0-248.1,0-372.2,0.1c-2.1,0-2.3-0.6-2.3-2.4c0.1-86.3,0.1-172.6,0-258.9
					c0-2,0.5-2.3,2.4-2.3c248.1,0.1,496.1,0.1,744.2,0c2.2,0,2.4,0.6,2.4,2.5c0,86.3,0,172.6,0,258.9c0,1.9-0.5,2.2-2.2,2.2
					C402.3,493,278.2,493,154.2,493z"/>
				<path d="M-188.6,444.1c-4-2.7-5.8-6.8-7.1-11.2c-1.8-5.8-2.5-11.9-3.6-17.8c-2.5-13.4-4.9-26.8-7.3-40.3
					c-2.7-15-5.2-30.1-8.1-45c-2.1-11-4-22-4.6-33.2c-0.3-4.6,0.2-9.1,1.3-13.5c1.9-7.9,6.9-12.9,14.2-15.8
					c9.5-3.9,19.6-4.4,29.7-4.6c10.2-0.1,20.5-0.1,30.7,0c2,0,3.2-0.6,4-2.5c3-6.8,7.5-12.4,13.1-17.2c6.8-5.7,14.6-9.5,23.3-11.1
					c13.7-2.6,26.3,0.1,37.9,7.8c7.9,5.3,13.9,12.2,17.7,21c0.6,1.4,1.3,2,2.8,2c5.8,0,11.5-0.1,17.3,0c1.8,0,2.3-1,2.9-2.3
					c2.7-6,6.5-11.2,11.3-15.7c4.7-4.5,10.2-7.9,16.2-10.3c6.3-2.5,12.9-3.8,19.7-3.5c16.4,0.6,29.6,7.5,39.6,20.4
					c2.3,2.9,4.1,6.1,5.5,9.5c0.6,1.4,1.5,1.9,2.9,1.9c22.6,0,45.1,0,67.7,0c0.6,0,1.2,0,1.6-0.2c4.1-2.7,8.5-5,10.3-10.1
					c0.9-2.4,1.7-4.8,3.4-6.9c1.9,2.2,2.6,5.1,3.7,7.7c2.1,4.8,8.8,9.6,14,9.6c21.6,0,43.2,0,64.8,0c1.9,0,2.9-0.6,3.8-2.5
					c4.3-9.3,10.8-16.7,19.6-22c9.3-5.5,19.4-8.2,30.2-7.2c17.1,1.6,30.4,9.7,39.5,24.4c0.6,0.9,1.5,1.8,1.7,2.9
					c0.9,4,3.4,4.6,7.1,4.4c4.5-0.3,9.1-0.1,13.7,0c1.7,0,2.6-0.6,3.3-2.1c6.1-13.1,16-22,29.6-26.8c11.8-4.1,23.6-3.8,35.1,0.7
					c12.5,5,21.8,13.7,27.4,26.1c0.7,1.5,1.6,2.1,3.3,2.1c13,0.1,26.1-0.3,39.1,0.3c7.3,0.3,14.4,1.5,21.3,4c2.7,1,5.1,2.6,7.4,4.2
					c1,0.9,2,1.8,2.9,2.9c4,4.6,5.1,10.3,5.6,16.2c0.5,6.2-0.2,12.3-1,18.4c-1.8,13.9-4.7,27.7-7.2,41.5c-1.6,8.7-3.1,17.5-4.6,26.2
					c-1.8,10.1-3.6,20.3-5.5,30.4c-1.2,6.8-2.3,13.7-3.8,20.5c-1.2,5.3-2.3,10.8-6.4,14.9c-3.3,3.4-7.6,5-12,6.2
					c-8,2.2-16.3,2.4-24.5,2.7c-3.1,0.1-6.2,0.1-9.4,0.1c-1.1,0-1.7,0.3-2,1.5c-1.7,7.3-4.9,13.9-9.5,19.7c-0.8,1.2-2,2.1-2.9,3.3
					c-4.9,5.6-11,9.5-17.8,12.3c-7.3,3-15,4.4-23,3.7c-13.4-1.3-24.8-6.7-34-16.7c-5.7-6.2-9.3-13.6-11.5-21.7
					c-0.3-1.3-0.8-1.7-2.1-1.6c-4.2,0.1-8.3,0.1-12.5,0c-1.2,0-1.8,0.3-2.1,1.6c-3,11.8-9.4,21.3-19.1,28.5
					c-5.9,4.4-12.6,7.3-19.9,8.9c-11.6,2.5-22.6,0.8-33.1-4.4c-9.4-4.6-16.5-11.7-21.6-20.7c-2.2-3.8-3.5-8-4.9-12.1
					c-0.2-0.6-0.3-1.2-1.2-1.3c-0.7,0-1,0.4-1.1,1c-2,7.1-7.7,10.3-13.8,12.9c-6.9,3-14.3,4.4-21.6,6.2c-19,4.7-38.4,5.5-57.9,4.7
					c-13.1-0.5-26-2.9-38.7-6.1c-6.2-1.6-12.3-3.2-18.1-5.9c-5.2-2.5-9.4-5.8-11.1-11.6c-0.2-0.6-0.4-1.2-1.3-1.1
					c-0.9,0.1-0.9,0.8-1.1,1.4c-1.5,5.1-3.5,10.1-6.4,14.6c-4.6,7.1-10.5,12.9-18,17c-9.1,5.1-18.8,7.4-29.2,6.4
					c-13.3-1.3-24.6-6.8-33.6-16.9c-5.5-6.2-9.3-13.2-11.2-21.3c-0.3-1.2-0.7-1.7-2.1-1.7c-4.2,0.1-8.5,0-12.7,0
					c-1.2,0-1.6,0.4-1.9,1.5c-2.7,9.4-7.2,17.8-14.5,24.6c-11.9,11.1-26,15.7-41.9,13.5c-15.8-2.2-28-10.5-36.6-24.2
					c-2.6-4.2-4.4-8.8-5.5-13.5c-0.5-1.9-1.2-2.6-3.2-2.5c-8.6,0.2-17.1-0.1-25.6-1.2c-4.8-0.7-9.5-1.4-13.9-3.8
					C-186.4,445.5-187.4,444.7-188.6,444.1z"/>
				<path class="st3" d="M438.3,475.7c0.6-1.4,1.7-2.4,2.9-3.3C440.7,473.9,439.6,474.9,438.3,475.7z"/>
				<path class="st4" d="M521.4,274.1c-1.2-0.8-2.2-1.7-2.9-2.9C519.9,271.8,520.9,272.7,521.4,274.1z"/>
				<path class="st5" d="M-188.6,444.1c1.4,0.2,2.5,0.9,3.4,1.9C-186.7,446-187.6,445-188.6,444.1z"/>
				<path class="st2" d="M235.1,361c0-21.1,0-42.2,0-63.3c0-0.4,0-0.8,0-1.2c0-0.6,0-1.4,0.8-1.5c0.9-0.2,1.3,0.5,1.5,1.2
					c0.6,1.9,1.2,3.8,2,5.6c8.4,19.8,28.1,31.8,48.7,30.8c15.2-0.7,27.8-7,37.4-19.1c3.9-4.9,6.7-10.2,8.7-16
					c0.7-2.1,1.7-2.8,3.9-2.7c3.8,0.2,7.7,0.2,11.5,0c2-0.1,2.8,0.6,3.4,2.4c2.6,8.5,7.1,15.8,13.8,21.7
					c14.1,12.6,30.4,16.7,48.6,11.6c12.4-3.4,22-11.1,29-21.9c2.5-3.8,4.2-8,5.6-12.4c0.4-1.1,0.9-1.5,2-1.4
					c11.6,0,23.2-0.1,34.8,0.1c7.3,0.1,11.6,3.7,13.6,10.8c1.8,6.3,1,12.7,0.3,19c-1,9.1-1.9,18.3-2.9,27.4
					c-1.4,13.1-2.6,26.2-4,39.3c-0.8,7.4-1.8,14.7-2.6,22.1c-0.8,7.1-4.7,11.7-11.1,14.4c-5.4,2.2-11,2.5-16.7,2.6
					c-3.5,0.1-7-0.1-10.6-0.1c-1.3,0-1.9-0.4-2.3-1.8c-2.3-9.1-6.7-17-13.5-23.6c-13.9-13.6-30.5-17.7-49.1-13.1
					c-11.2,2.8-20.3,9.1-27.3,18.5c-3.7,5-6.5,10.6-8.2,16.6c-0.4,1.5-1.2,2-2.7,1.9c-4.2-0.2-8.3-0.2-12.5-0.2
					c-1.3,0-1.9-0.4-2.3-1.7c-3.8-12.5-11.1-22.5-22.2-29.3c-10.2-6.3-21.5-8.7-33.5-7c-12.3,1.7-22.7,7.2-31,16.5
					c-4.7,5.2-8.2,11.1-10.3,17.8c-0.4,1.2-0.7,2.1-2.2,1.9c-1.6-0.2-0.9-1.5-0.9-2.3C234.9,403.4,235.2,382.2,235.1,361z"/>
				<path class="st2" d="M72.9,363.8c-0.4,18.3,0,39.4,0,60.5c0,0.9,0.8,2.4-1.1,2.6c-1.6,0.2-1.7-1.1-2-2.1
					c-2.5-7.3-6.5-13.7-11.9-19.3c-9.5-9.7-21-14.9-34.4-15.2c-18.6-0.4-33.4,7.2-44,22.7c-3,4.4-5.1,9.1-6.6,14.2
					c-0.3,1.2-0.8,1.6-2,1.6c-4.5,0-9,0.1-13.4,0.3c-1.5,0.1-1.7-0.8-2-1.8c-2.2-6.8-5.2-13.3-10-18.7
					c-12.6-14.3-28.4-20.3-47.3-17.5c-10.6,1.6-19.7,6.4-27.2,13.7c-6.5,6.3-11.2,14.1-13.3,23c-0.5,2.3-1.5,2.9-3.6,2.9
					c-7,0.1-14.1,0.5-21-1c-6.4-1.4-12.1-4.1-15-10.6c-0.7-1.6-1-3.2-1.2-4.9c-1.5-12.3-2.7-24.6-4-36.9
					c-1.9-19.2-4.1-38.3-6.2-57.4c-0.5-4.8-0.4-9.5,0.9-14.3c1.9-6.7,6.1-10.4,13-10.5c11.8-0.2,23.7-0.1,35.5-0.1
					c1.4,0,1.5,0.7,1.8,1.7c2.2,7.1,5.8,13.4,10.7,19c5.8,6.6,12.9,11.3,21.3,14.2c9.2,3.2,18.5,3.9,28,1.6
					c9.6-2.3,17.9-6.9,24.8-13.8c5.6-5.7,9.9-12.4,12.1-20.2c0.5-1.8,1.4-2.5,3.4-2.4c4.2,0.2,8.5,0.1,12.7,0c1.2,0,1.8,0.4,2.2,1.6
					c3.3,10.8,9.4,19.8,18.5,26.3c11.8,8.4,25,11.8,39.5,8.9c11.1-2.2,20.6-7.4,28.2-15.8c5-5.5,8.7-11.7,10.8-18.9
					c0.3-0.9,0.4-2.2,1.6-2.1c1.3,0.1,0.9,1.5,0.9,2.4C73.1,318.6,72.9,339.8,72.9,363.8z"/>
				<path class="st2" d="M-117.8,431.5c-6.9-0.3-13.2-0.7-19.5-0.9c-2.1-0.1-2.2-0.9-1.7-2.5c2.2-7.6,5.9-14.2,11.4-19.9
					c7-7.3,15.5-12,25.5-13.7c5.6-1,5.5-1,6,4.5c0.9,9.6,0.7,19.2,0.5,28.8c0,3.1-0.6,3.7-3.9,3.7
					C-105.8,431.6-112.1,431.5-117.8,431.5z"/>
				<path class="st2" d="M425.6,451.2c6.6,0,13.1,0.1,19.7,0c1.8,0,2.2,0.5,1.8,2.2c-2.1,7.8-5.9,14.6-11.5,20.3
					c-7.4,7.8-16.6,12.4-27.1,14.2c-0.2,0-0.5,0.1-0.7,0.1c-3.4,0.5-3.5,0.5-3.8-2.9c-0.9-10.5-0.7-21.1-0.6-31.6
					c0-1.8,0.8-2.1,2.3-2.1c6.6,0,13.3,0,19.9,0C425.6,451.3,425.6,451.3,425.6,451.2z"/>
				<path class="st2" d="M-68.8,451.7c6.5,0,12.9,0,19.4,0c1.7,0,2,0.4,1.5,2.1c-3.3,10.8-9.3,19.5-18.5,26.1
					c-6.2,4.4-13,6.8-20.4,8.2c-3.6,0.7-3.6,0.6-3.9-2.9c-0.8-10.5-0.5-21.1-0.4-31.6c0-1.7,0.7-2,2.1-2c6.7,0,13.4,0,20.1,0
					C-68.8,451.5-68.8,451.6-68.8,451.7z"/>
				<path class="st2" d="M309.2,482.4c-5.2,2.7-10.7,4.5-16.4,5.5c-3.4,0.6-3.5,0.5-3.7-2.8c-0.5-10.2-1.1-20.4-0.4-30.6
					c0.1-2,0.6-2.7,2.8-2.7c12.8,0.1,25.6,0,38.3-0.1c2.1,0,2.5,0.6,1.9,2.4c-3.2,10.5-9.2,19-18.1,25.4
					C312,480.5,310.6,481.4,309.2,482.4z"/>
				<path class="st2" d="M398.8,414.7c0,4.5,0,8.9,0,13.4c0,2.8-0.4,3.2-3.3,3c-10.9-0.6-21.9-1.2-32.8-1.8
					c-1.8-0.1-3.7-0.2-5.5-0.2c-1.6,0-1.7-0.7-1.3-2c2.9-8.8,7.8-16.3,14.8-22.4c7.2-6.2,15.7-9.4,25-11c1.7-0.3,2.3,0.2,2.5,2
					C398.9,402.1,398.9,408.4,398.8,414.7z"/>
				<path class="st2" d="M45.9,452.2c6.4,0,12.8,0.1,19.2,0c2,0,2.7,0.2,1.9,2.5c-2.7,8.5-7.3,15.8-13.9,21.7
					c-7.4,6.6-16.2,10.3-26,11.8c-2,0.3-2.7-0.3-2.8-2.3c-0.6-10.7-0.9-21.4-0.5-32.1c0.1-1.6,0.8-1.8,2.1-1.8c6.6,0,13.3,0,19.9,0
					C45.9,452,45.9,452.1,45.9,452.2z"/>
				<path class="st2" d="M-2.4,428.5c-6.4,0-12.8-0.1-19.2,0.1c-2.2,0.1-2.3-0.8-1.7-2.5c2.3-7.1,6.3-13.3,11.5-18.6
					c7.7-7.8,17.2-11.9,27.8-13.7c1.6-0.3,2.7-0.2,2.8,1.9c0.4,10,1.1,19.9,0.5,29.9c-0.1,2-0.7,2.7-2.8,2.7
					c-6.3-0.1-12.6-0.1-18.9-0.1C-2.4,428.4-2.4,428.5-2.4,428.5z"/>
				<path class="st2" d="M433.6,316.4c-7.5,7-16.5,11-26.6,12.4c-1.9,0.3-2.7-0.1-2.9-2.2c-0.7-9.8-0.8-19.6-0.7-29.5
					c0-1.7,0.6-2.3,2.4-2.3c12.9,0.1,25.9,0.1,38.8,0c1.6,0,2.2,0.3,1.6,2c-2.3,6.2-5.3,11.8-9.9,16.6
					C435.7,314.7,434.6,315.5,433.6,316.4z"/>
				<path class="st2" d="M310,294.9c6.4,0,12.8,0.1,19.2,0c2.3,0,2.3,0.8,1.6,2.5c-3,7.6-7.3,14.3-13.5,19.8
					c-7.5,6.7-16.2,10.4-26.1,11.7c-1.7,0.2-2.2-0.3-2.3-2c-0.7-9.8-0.9-19.6-0.8-29.5c0-2,0.6-2.6,2.6-2.6
					C297.2,295,303.6,294.9,310,294.9z"/>
				<path class="st2" d="M-69.5,294.9c6.4,0,12.8,0,19.2,0c1.6,0,2.3,0.1,1.6,2.1c-3.4,9.8-9.3,17.5-17.8,23.5
					c-6.6,4.7-13.7,7.1-21.5,8.4c-2,0.3-2.6-0.4-2.7-2.3c-0.6-10-0.7-20-0.5-29.9c0-1.6,0.8-1.8,2.1-1.7
					C-82.6,294.9-76.1,294.9-69.5,294.9z"/>
				<path class="st2" d="M45.7,294.9c6.4,0,12.8,0,19.2,0c1.8,0,2.2,0.3,1.6,2.2c-3.3,9.7-9.2,17.4-17.6,23.4
					c-6.5,4.6-13.7,7.2-21.5,8.5c-2.1,0.3-2.7-0.3-2.9-2.4c-0.7-9.9-0.6-19.8-0.5-29.7c0-1.5,0.6-1.9,2-1.8
					C32.6,294.9,39.1,294.9,45.7,294.9z"/>
				<path class="st2" d="M262.5,427c-6.5,0-12.9-0.1-19.4,0c-1.9,0-1.9-0.8-1.4-2.1c2.2-6.2,5.5-11.8,10.1-16.5
					c7.2-7.4,15.7-12.3,26-13.9c5.7-0.9,5.7-1,5.9,4.8c0.3,8.9,0.6,17.7,0.3,26.6c-0.1,1.8-0.5,2.3-2.3,2.2c-6.4-0.1-12.8,0-19.2,0
					C262.5,427.8,262.5,427.4,262.5,427z"/>
				<path class="st2" d="M-1,262.7c-6.1,0-12.2,0-18.2,0c-1.8,0-2.4-0.2-1.4-2.2c7.4-14.2,19-22.6,34.7-25.4
					c5.1-0.9,4.4-1.5,4.8,3.8c0.6,7.1,0.7,14.2,0.7,21.3c0,1.9-0.6,2.5-2.5,2.5C11.2,262.6,5.1,262.7-1,262.7z"/>
				<path class="st2" d="M-116.3,262.7c-6.1,0-12.1,0-18.2,0c-1.7,0-2.3-0.1-1.3-2.1c6.9-13.2,17.4-21.6,32-25
					c1.8-0.4,3.6-0.7,5.4-1.1c1.3-0.3,2,0.1,2,1.5c0.4,8.2,1.1,16.4,0.9,24.7c0,1.7-0.9,1.9-2.3,1.9
					C-104,262.7-110.2,262.7-116.3,262.7z"/>
				<path class="st2" d="M263.1,262.7c-5.9,0-11.8-0.1-17.7,0c-1.9,0-2.6-0.4-1.6-2.3c4.1-8,10-14.3,17.6-19.1
					c6-3.8,12.6-5.7,19.5-6.8c1.7-0.3,2.3,0.2,2.4,1.9c0.7,8.1,0.6,16.3,0.7,24.4c0,1.6-0.8,1.8-2.1,1.8
					C275.6,262.7,269.4,262.7,263.1,262.7z"/>
				<path class="st2" d="M378.5,262.7c-6.1,0-12.1,0-18.2,0c-1.8,0-2.1-0.5-1.4-2.1c2.9-5.8,6.9-10.8,11.8-15.1
					c7.4-6.3,16-9.6,25.5-11c1.3-0.2,1.9,0.1,2.1,1.5c1,8.4,0.8,16.8,0.8,25.1c0,1.6-1.1,1.5-2.2,1.5
					C390.8,262.7,384.7,262.7,378.5,262.7z"/>
				<path class="st2" d="M49.1,409.6c-4.9,3.8-9.2,8.2-13.8,12.4c-2,1.8-3.9,3.7-5.9,5.5c-1.4,1.3-3.2,0.7-4.8,0.6
					c-1.4-0.2-0.8-1.7-0.8-2.6c-0.4-9.8,0-19.6,0.5-29.4c0.1-2.2,1.1-2.5,2.9-2.2c10.3,1.6,19.4,5.8,27.1,12.8
					c0.7,0.7,1.2,1.6,1.9,2.4c0.3,0.6,0.3,1-0.5,1c-0.2-0.1-0.4-0.3-0.5-0.4C52.6,407.9,51.4,407.9,49.1,409.6z"/>
				<path class="st2" d="M318.2,249.2c-3.9-1.1-5.9,2-8.3,4c-2.9,2.4-5.4,5.1-8.1,7.7c-1.2,1.2-2.6,1.9-4.5,1.8
					c-2.4-0.2-4.8-0.1-7.2,0c-1.4,0-2-0.4-2-1.9c-0.1-8.2,0.3-16.4,0.9-24.7c0.1-1.2,0.5-1.8,1.7-1.6c10.8,1.4,20.2,5.6,28.1,13.1
					c0.2,0.2,0.3,0.4,0.4,0.6C319.7,249.3,319.2,249.6,318.2,249.2z"/>
				<path class="st2" d="M-65.2,249.3c-2.2,2-4.5,4-6.7,6c-2.2,2-4.4,4-6.5,6.1c-0.8,0.8-1.7,1.3-3,1.3c-2.7,0-5.4-0.1-8.1,0
					c-1.3,0-1.9-0.4-1.9-1.8c0-8.2,0-16.5,0.7-24.7c0.1-1.4,0.7-2,2.1-1.7c7.4,1.1,14.4,3.3,20.8,7.4c0.3,0.2,0.7,0.4,0.7,0.9
					c0.9,1.1,2.3,1.6,3.3,2.7c1.7,1.8,1.7,2.3-0.6,3.3C-64.7,248.9-65,249-65.2,249.3z"/>
				<path class="st2" d="M51.9,247.3c-2.8,2.5-6.1,4.2-9.1,6.4c-2.8,2-5.7,4.1-8,6.8c-2.9,3.3-6.6,2-10,2.1c-0.8,0-0.8-0.8-0.8-1.5
					c0-8.3-0.1-16.6,0.7-24.9c0.1-1.3,0.5-1.9,1.9-1.7c8.9,1.2,16.9,4.3,24.1,9.6c0.2,0.1,0.2,0.4,0.3,0.6
					C51.2,245.7,52.7,246.1,51.9,247.3z"/>
				<path class="st6" d="M428.3,249.3c-1.3,2.1-3.7,2.8-5.5,4.1c-3.1,2.2-6,4.6-8.6,7.3c-3,3.1-6.5,1.6-9.9,1.8
					c-0.8,0-0.8-0.8-0.8-1.5c-0.1-8.2,0.1-16.4,0.8-24.6c0.1-1.2,0.3-2.2,2-1.9c6.3,1.1,12.5,2.6,18.1,5.8c0.3,0.1,0.4,0.5,0.6,0.7
					c1.3,1.2,2.9,1.8,4.3,3c2.7,2.2,2.6,3.2-0.4,4.9C428.6,249,428.4,249.1,428.3,249.3z"/>
				<path class="st6" d="M-109.8,451.7c-2.4,2.6-4.7,5-7,7.4c-2.9,3.2-5.8,6.4-8.7,9.7c-1.2,1.4-0.8,4.6,0.5,6
					c0.7,0.7,1.1,0.3,1.6,0c8.6-5.2,16.3-11.5,23.3-18.7c1-1,1.4-2.3,1.9-3.5c0.3-0.7,0.8-1.2,1.6-1c0.8,0.2,0.8,0.8,0.8,1.5
					c0.3,11.3,0.3,22.5-0.7,33.8c-0.1,1.7-1.1,1.5-2.2,1.4c-5-0.6-9.9-1.9-14.5-4c-8-3.6-14.5-9-19.5-16.3
					c-3.1-4.6-5.5-9.5-6.8-14.9c-0.3-1.1-0.4-1.8,1.2-1.8c9,0.1,18.1,0.1,27.1,0.2C-110.7,451.4-110.4,451.5-109.8,451.7z"/>
				<path class="st6" d="M254.4,474.4c0.2,1.3,0.8,1,1.7,0.5c6.8-4.1,13.2-8.7,18.9-14.3c2.5-2.4,5.3-4.6,6.7-7.9
					c0.3-0.7,0.8-0.7,1.4-0.6c0.9,0.1,0.8,0.9,0.8,1.5c0.1,5.6,0.2,11.2,0.2,16.8c-0.1,5.2-0.5,10.4-0.6,15.6c0,2.1-0.9,2.6-2.8,2.3
					c-8.6-1.3-16.5-4.3-23.5-9.6c-7.4-5.7-12.6-13-15.6-21.8c-1.5-4.4-1.4-4.5,3.4-4.5c7.3,0,14.5-0.1,21.8-0.1
					c0.7,0,1.6-0.4,1.9,0.4c0.3,0.8-0.6,1-1,1.4c-4.4,4.9-9.1,9.5-13.2,14.6C253,470.5,253.3,472.4,254.4,474.4z"/>
				<path class="st2" d="M268.9,304.4c0.2-0.2,0.3-0.3,0.5-0.5c3.7-1.3,5.5-4.7,8.1-7.2c0.8-0.7,1.4-1.4,2.6-1.4
					c2.4,0,2.9,0.4,2.6,2.7c-0.3,1.7,0.3,3.3,0.3,5c0.1,5.9-0.3,11.8,0.3,17.6c0.2,2.1-0.4,3.9-1.1,5.8c-0.6,1.9-1.6,2.4-3.5,1.7
					c-2.3-0.8-4.8-1.1-7.1-1.9c-5.4-1.9-10.6-4.4-15-8.4c-1.2-1.1-0.8-1.9,0.4-2.6c4-2.5,7.3-5.9,10.7-9.1
					C268.3,305.7,268.5,305,268.9,304.4z"/>
				<path class="st6" d="M-77.1,430.1c4.1-4.5,8.1-8.7,12-13c1.1-1.2,2.1-2.4,3.1-3.6c1.8-2.1,1.1-4.2,0-6.3c-0.5-1-1.1-0.5-1.7-0.1
					c-7.3,4.4-14,9.7-20.2,15.7c-2.2,2.1-4.4,4-5.3,7.1c-0.1,0.5-0.3,1.2-1.1,0.9c-0.5-0.2-0.7-0.6-0.7-1.1c0-0.6,0-1.1,0-1.7
					c-0.2-10.6-0.4-21.3,0.4-31.9c0.2-2.3,1.2-2.6,3-2.3c11.8,2,22.1,7,30,16.2c4.3,5.1,7.5,10.8,9.5,17.1c0.3,1,0.4,1.8-1.2,1.9
					c-8.9,0.4-17.9,0.9-26.8,1.3C-76.3,430.4-76.5,430.3-77.1,430.1z"/>
				<path class="st2" d="M388.3,459.4c2.3-2.3,4.6-4.6,6.8-7c0.9-1,1.9-0.9,3-0.7c1.1,0.2,0.7,1.3,0.7,2c0.2,10.8,0.5,21.6-0.5,32.3
					c-0.2,2.1-1,2.4-2.8,2.2c-12.3-1.9-22.6-7.3-30.6-16.9c-4.3-5.2-7.4-11.1-9.2-17.6c-0.2-0.8-0.9-2,0.8-2c8.3,0,16.6,0,25.3,0
					c-1.4,2.6-3.6,4.2-5.3,6.2c-3.5,4.1-6.2,8.7-9.2,13.2c-0.3,0.4-0.5,0.8,0,1.2c1.3,1.5,4.7,1.7,6.4,0.4c3.9-3.1,7.4-6.5,11-9.8
					C385.9,461.7,387.1,460.5,388.3,459.4z"/>
				<path class="st6" d="M419.4,431.5c2.3-2.6,4.2-4.7,6.1-6.8c3.7-4.2,6.6-9.1,9.8-13.7c0.4-0.5,0.5-1-0.3-1.6
					c-2.3-1.5-4.1-1.7-6.4,0.1c-4.6,3.6-8.8,7.8-13,11.8c-3.1,2.9-6.3,5.8-9.1,9.2c-0.9,1.1-2.7,0.7-3.1-0.7
					c-0.1-0.4-0.1-0.8-0.1-1.2c-0.2-10.8-0.3-21.6,0.5-32.3c0.2-2.2,0.9-2.9,3-2.5c12,1.9,22.4,7.1,30.3,16.4
					c4.5,5.2,7.7,11.2,9.6,17.9c0.5,1.9,0.1,2.5-1.9,2.5C436.7,430.8,428.4,431.6,419.4,431.5z"/>
				<path class="st2" d="M4.9,306.7c2.5-2.6,5.1-5.1,8-7.2c1.4-0.8,2.6-1.8,3.5-3.1c0.5-0.7,1.1-1.2,2-0.9c0.8,0.3,0.9,1.1,0.8,1.8
					c-0.1,6.9,0.4,13.9-0.3,20.8c-0.3,2.5-0.9,5-1.2,7.5c-0.3,2.5-1.6,3.1-4.1,2.3c-1.9-0.6-3.8-1.2-5.8-1.5c-2-0.2-3.6-1.5-5.4-2.3
					c-3-1.2-5.8-2.9-8.5-4.8c-2-1.4-2.1-2.5-0.1-4.1c2.3-1.9,4.9-3.5,7.5-5.1C2.8,309.3,4.3,308.5,4.9,306.7z"/>
				<path class="st6" d="M304.5,428c3.3-3.6,6.6-7.1,9.8-10.7c1.2-1.3,2.3-2.7,3.4-4c0.6-0.7,0.9-1.5,1-2.4c0.1-1.6-0.3-3.2-1.5-4.1
					c-1-0.7-1.9,0.7-2.8,1.2c-8.2,5-15.4,11.2-22,18.1c-0.3,0.3-0.6,0.6-0.7,0.9c-0.3,1.1-1.1,1.3-2.1,1.1c-1.2-0.2-0.9-1.2-0.9-1.9
					c-0.5-7.4-0.4-14.7,0-22.1c0.2-2.9,0.3-5.7,0.4-8.6c0-1.5,0.5-2.2,2.1-1.9c11.5,1.7,21.4,6.3,29.4,14.8
					c4.6,4.9,7.9,10.7,10.3,17c1.1,2.9,1,2.9-2,2.9c-7.3,0-14.6,0-21.8-0.1C306.4,428.4,305.5,428.7,304.5,428z"/>
				<path class="st6" d="M19.5,471.7c-0.2,3.6-0.5,8.9-0.7,14.3c-0.1,1.9-0.8,2.4-2.6,2.1c-12.1-1.7-22.3-7-30.4-16.3
					c-4.5-5.1-7.5-11.1-9.5-17.6c-0.6-2-0.1-2.6,2-2.5c7.3,0.1,14.5,0.1,21.8,0.1c0.5,0,1.3-0.3,1.5,0.2c0.4,0.7-0.4,1.1-0.8,1.5
					c-5.1,5.1-8.9,11.1-12.9,17c-0.7,1-0.5,1.6,0.6,2.3c2.3,1.2,4.1,1.2,6.1-0.6c5.8-5.1,11.7-10.2,17-15.9c1.2-1.3,2.8-2.4,3.9-3.8
					c0.7-0.9,1.8-0.7,2.7-0.6c1.1,0.2,0.8,1.2,0.9,1.9C19.5,459.2,19.6,464.6,19.5,471.7z"/>
				<path class="st6" d="M384.6,306.3c3.8-3.4,7.9-6.6,11.1-10.7c0.7-0.9,1.5-0.8,2.3-0.7c1.1,0,0.9,0.9,0.9,1.6
					c0.3,10,0.2,20-0.5,30c-0.2,2-0.8,2.7-3,2.4c-7.2-1.1-13.9-3.4-20-7.4c-9.3-6.1-15.8-14.5-19.2-25.1c-0.4-1.1,0-1.5,1-1.5
					c7.8,0,15.7,0,23.5,0c0.4,0,0.9-0.2,1.1,0.3c0.2,0.5-0.2,0.8-0.5,1.2c-3.9,4.3-8,8.4-11.7,12.9c-0.8,1-1.2,2-1.1,3.3
					c0.3,2.9,1.7,3.7,4,2.2c3-2,6-4.1,9-6.1C382.8,308.1,383.5,306.9,384.6,306.3z"/>
				<path class="st6" d="M4.9,306.7c0.4,2.6-1.8,3.2-3.3,4.1c-2.7,1.6-5.4,3.3-7.8,5.3c-1.3,1.1-1.2,1.8,0.3,2.7
					c2.8,1.6,5.4,3.7,8.3,4.7c2.4,0.8,4.2,2.9,7.1,2.6c1.4-0.1,2.9,0.8,4.3,1.4c1.9,0.9,2.9,0.2,3.3-1.7c0.2-0.8,0.2-1.6,0.2-2.4
					c0-1.5,0-2.9,1-4.1c0.5-0.6,0.4-1.3,0.4-2.1c0-6.5,0-13.1,0-19.6c0-0.7,0.3-1.6-0.6-1.9c-0.9-0.3-1.2,0.6-1.5,1.2
					c-0.8,1.5-2,2.4-3.8,2.4c1.2-1.4,2.4-2.9,3.6-4.3c0.6-0.7,1.5-0.4,2.3-0.2c0.8,0.2,0.8,1.1,0.8,1.8c0.1,8.2,0.3,16.5-0.4,24.7
					c-0.1,1.2-0.2,2.4-0.3,3.6c-0.2,4.4-0.3,4.4-4.6,3.6c-11.1-2.1-20.5-7-28-15.5c-3.5-3.9-6.4-8.2-8.3-13.1
					c-0.8-1.2-0.8-2.6-1.5-3.8c-0.2-1,0.2-1.4,1.3-1.4c7.8,0,15.5,0,23.3,0c0.4,0,1.1-0.2,1.2,0.4c0.1,0.6-0.4,1-0.8,1.4
					c-3.8,4.2-7.8,8.2-11.4,12.6c-0.8,1-1.2,2.1-1,3.3c0.3,3,1.6,3.8,4,2.2C-2.9,312.1,1,309.4,4.9,306.7z"/>
				<path class="st6" d="M268.9,304.4c0.4,2.5-2.1,3.1-3.2,4.5c-2.7,3.1-6.2,5.3-9.8,7.9c3.4,1.6,5.9,4.1,9,5.9
					c2.1,1.3,5.2,0.5,6.4,3.1c2-0.4,3.7,0.4,5.5,1c0.7,0.2,1.3,0.5,2,0.8c1.4,0.6,2.5,0.4,3.1-1.4c1.3-3.9,1.6-7.7,0.2-11.6
					c-0.5-1.4,0.5-2.6,0.4-4c-0.2-3.6,0.4-7.2-0.5-10.7c-0.1-0.5,0-1.1,0-1.7c0.1-0.9,1-2.1-0.4-2.3c-1.2-0.2-2.5-0.6-3.6,1
					c-1.7,2.3-3.8,4.4-5.9,6.5c-0.7,0.7-1.6,1.4-2.7,0.6c2.6-3,5.6-5.6,8.5-8.3c1.6-1.4,3.5-0.6,5.3-0.6c0.8,0,0.6,1,0.6,1.6
					c0.2,10.1,0.3,20.3-0.5,30.4c-0.1,1.8-0.9,2.1-2.4,1.9c-6.5-0.8-12.6-2.7-18.3-6c-10.5-6.1-17.6-15-21.5-26.4
					c-0.5-1.4,0-1.6,1.1-1.6c6.9,0,13.7,0,20.6,0c0.4,0,1-0.2,1.2,0.4c0.1,0.5-0.3,0.9-0.7,1.2c-2.7,2.6-4.9,5.6-6.8,8.8
					c-0.8,0.9-1.3,1.9-1.9,2.9c-0.4,0.5-1,1-1.1,1.5c-0.2,1.2-2.3,1.9-1,3.4c1.4,1.5,4.2,1.8,5.7,0.6c3.1-2.7,6.2-5.4,9.2-8.2
					C267.8,305.1,268.4,304.8,268.9,304.4z"/>
				<path class="st6" d="M-95.8,308.4c0.3,6.2-0.6,12.3-0.6,18.5c0,1.9-0.8,2.3-2.5,2c-11.5-1.5-21.2-6.4-29.2-14.8
					c-4.7-4.9-8-10.7-10.3-17c-0.5-1.3-0.7-2.2,1.3-2.2c6.6,0.1,13.3,0,19.9,0.1c0.5,0,1.2-0.3,1.4,0.4c0.2,0.5-0.4,0.8-0.7,1.1
					c-4.3,4.5-7.4,9.9-11,15c-0.7,1-0.6,1.5,0.6,2.2c2.6,1.3,4,1.2,6.3-0.7c6.4-5.4,12.3-11.2,18.3-17c1.8-1.7,3.8-0.9,5.6-0.8
					c0.8,0,0.7,1.3,0.8,2.1C-95.7,300.9-95.8,304.6-95.8,308.4z"/>
				<path class="st7" d="M55.8,410c0.4-0.2,0.5-0.6,0.5-1c4.6,4.4,7.7,9.7,9.9,15.7c0.6,1.7,0.4,2.3-1.7,2.4
					c-6.3,0.1-12.6,0.4-18.9,0.5c-0.5,0-1.2,0.4-1.5-0.3c-0.3-0.6,0.3-1,0.7-1.4c4.2-4.5,7.4-9.7,10.7-14.8
					C55.7,410.7,55.8,410.4,55.8,410z"/>
				<path class="st7" d="M428.3,249.3c0.1-0.2,0.2-0.5,0.3-0.6c2.5-2.5,2.5-2.4-0.3-4.9c-1.1-1-2.9-1.1-3.4-2.8
					c4.3,1.7,7.5,4.8,10.5,7.9c3.5,3.6,6.3,7.7,8.5,12.2c0.7,1.5,0,1.5-0.9,1.5c-5.2,0-10.4,0-15.6,0c-0.4,0-0.9,0.1-1-0.4
					c-0.2-0.7,0.4-1.2,0.8-1.6c2-2.1,4-4.3,5.8-6.6c0.7-0.9,1.1-1.9,1-3.1c-0.1-1.2-0.6-2.5-1.4-3.2c-1.2-1.1-1.7,0.8-2.7,1
					C429.3,248.9,428.8,249.1,428.3,249.3z"/>
				<path class="st8" d="M51.9,247.3c0.1-1-1.1-1.5-1-2.5c4.9,3.2,8.3,7.7,11.3,12.6c0.8,1.2,1.4,2.5,2,3.8c0.3,0.7,0.5,1.5-0.6,1.5
					c-5.7,0-11.4,0-17.7,0c2.6-3,4.8-5.5,6.9-8.1c1.9-2.2,1.9-4.5,0.3-6.8C52.9,247.4,52.4,247.4,51.9,247.3z"/>
				<path class="st7" d="M-65.2,249.3c0-0.1,0-0.2,0.1-0.2c2.3-2.2,2.3-2.6-0.4-4.5c-0.7-0.5-1.4-0.8-1.6-1.7
					c4.2,2,7.1,5.4,10.1,8.8c2.3,2.6,4.1,5.6,5.7,8.7c0.8,1.5,0.9,2.5-1.4,2.4c-3.9-0.1-7.8,0-11.7-0.1c-0.6,0-1.4,0.3-1.7-0.4
					c-0.3-0.7,0.3-1.2,0.6-1.7c1.8-2.8,3.6-5.5,5.5-8.2c0.8-1.2,1-1.8-0.6-2.6C-62.1,249-63.6,249.2-65.2,249.3z"/>
				<path class="st7" d="M322.7,252c2.7,2.8,4.5,6.1,6.2,9.5c0.5,1-0.3,1.1-0.9,1.1c-4.5,0-9.1,0-13.6,0c-0.9,0-1.4-0.3-0.8-1.3
					c2.3-3.4,4.5-6.8,6.8-10.3C321.6,250.1,322,251.5,322.7,252z"/>
				<path class="st9" d="M322.7,252c-0.8-0.2-1.4-1.2-2.4-0.9c-0.6-0.7-1.7-1-2.1-1.9c0.6-0.1,1-0.4,1-1
					C320.9,249.1,322,250.4,322.7,252z"/>
				<path class="st10" d="M49.1,409.6c1.8-2.2,4.2-2.2,6.1,0C53.2,408.6,51.1,408.4,49.1,409.6z"/>
				<path class="st11" d="M254.4,474.4c-1.8-2.1-1.8-4,0-5.8C253.6,470.5,253.9,472.4,254.4,474.4z"/>
				<path class="st12" d="M309.2,482.4c1.1-1.5,2.7-2.2,4.3-2.9C312.4,481.1,310.8,481.8,309.2,482.4z"/>
				<path class="st13" d="M388.3,459.4c-0.9,1.5-2.1,2.7-3.7,3.5C385.6,461.4,386.7,460.1,388.3,459.4z"/>
				<path class="st14" d="M-23.5,296.3c0.9,1.1,1.4,2.4,1.5,3.8C-23.2,299.1-23.5,297.7-23.5,296.3z"/>
				<path class="st15" d="M433.6,316.4c0.5-1.4,1.8-2,2.8-3C436,315,434.9,315.8,433.6,316.4z"/>
				<path class="st16" d="M384.6,306.3c-0.7,1.1-1.5,2.1-2.9,2.3C382.5,307.7,383.2,306.7,384.6,306.3z"/>
				<path class="st17" d="M254.5,308.3c0.2-1.2,0.7-2.3,1.9-2.9C256.2,306.6,255.5,307.5,254.5,308.3z"/>
				<path class="st2" d="M-96.4,454.7c0,7.4,0,14.9,0,22.3c0,0.9-0.3,1.7-0.8,2.4c-0.7,1-0.9,2.1-0.3,3.2c0.6,1.1,0.4,1.9-0.1,3.1
					c-0.6,1.7-1.1,1.5-2.7,1.1c-4.2-0.9-8.1-2.6-12-4c-3.3-1.2-6.1-3.3-8.9-5.5c-1.1-0.8-0.7-1.5,0.2-2c3.9-2.1,7.2-5.1,10.8-7.6
					c2.3-1.5,4.3-3.7,6.3-5.7C-101.4,459.6-98.5,457.7-96.4,454.7z"/>
				<path class="st2" d="M282.3,466.2c-0.2,2.7,0.3,6-0.4,9.2c-0.6,2.5,1.2,4.7,1,7.2c-0.1,1.7-1.4,2.6-1.6,4.1
					c0,0.1-0.2,0.2-0.3,0.3c-1.3-2.3-4.1,1.1-5.4-1.5c-0.1-0.3-0.6-0.6-1-0.6c-5.7-0.4-9.9-4-14.7-6.4c-0.4-0.2-0.9-0.3-1.3-0.4
					c-1.5-0.5-1.5-1.4-0.4-2.3c1.7-1.4,3.4-3,5.3-4c4.4-2.2,7.8-5.6,11.2-8.9c1.8-1.8,3.5-3.7,5.4-5.3c0.6-0.5,1.2-1.1,1.9-0.9
					c0.9,0.3,0.5,1.2,0.5,1.9C282.3,461.1,282.3,463.4,282.3,466.2z"/>
				<path class="st2" d="M-89.8,426.1c-0.6-0.7-0.5-1.4-0.3-2c1.8-4.7,0.9-9.5,0.7-14.2c-0.1-2.5-1-5.1-0.8-7.7c0.1-1.4-0.2-2.8,1-4
					c0.5-0.5,0.5-1.3,0.2-2c-0.2-0.4-1-0.9-0.2-1.4c0.5-0.3,1.2-0.3,1.6,0.1c1.7,1.5,3.7,1.8,5.8,1.7c2.8-0.2,4.7,1.9,7.1,2.7
					c3.1,1,5.9,2.8,8.5,4.9c1.2,1,1.2,1.5,0.1,2.6c-1,1.1-2.3,1.8-3.4,2.5c-5.2,3.3-10.2,6.9-14.2,11.8
					C-85.3,422.9-87.5,424.5-89.8,426.1z"/>
				<path class="st2" d="M398,457.4c-0.4,3.6-1.4,7.1-0.9,10.8c0.5,3.5,1.3,7,1,10.6c-0.1,1.2,0.3,2.4-1,3.2
					c-0.2,0.1-0.4,0.6-0.3,0.8c1.1,3.9-1.8,3.4-3.9,3.5c-0.8,0-1.5-1.2-2.6-1.4c-6-1.1-11-4.3-16.1-7.4c-1.9-1.2-1.9-1.8,0-2.9
					c3.4-2.1,6.2-4.8,9-7.6c2.3-2.2,4.5-4.5,7-6.5c2.1-1.6,3.6-3.6,5.5-5.2c0.6-0.5,1-1.7,2-1.3c0.8,0.4,0.3,1.5,0.4,2.2
					C398,456.6,398,457,398,457.4z"/>
				<path class="st2" d="M404.2,429.7c0-8.9,0-17.2,0-25.5c0-0.5,0-1,0.4-1.3c1.2-1.3,1.5-2.6,0.4-4.1c-0.4-0.6-0.4-1.4-0.1-2.1
					c0.7-1.4,1.1-2.5,3.4-1.4c3.4,1.7,7.5,1.8,11,3.5c3.8,1.8,7.3,3.8,10.5,6.4c0.9,0.8,0.7,1.2-0.2,1.8c-7.1,4.8-13,11-19,17.1
					C408.9,426.1,407,428.1,404.2,429.7z"/>
				<path class="st2" d="M289,415.8c-0.4-2.8,0.2-6.2,1.2-9.6c0.3-1.1,0.5-2.3,0.1-3.3c-1.1-2.7,0.9-5,0.7-7.5
					c-0.1-0.6,0.5-0.7,1-0.3c2.1,1.5,4.6,1.5,7,2c1.9,0.4,3.8,1.3,5.5,2.1c3,1.4,6.1,3,8.8,5.1c1,0.8,1.4,1.4,0,2.3
					c-2.1,1.4-4.2,2.9-6.3,4.3c-5.3,3.7-10.1,8-14.6,12.7c-0.5,0.6-1.1,1.9-2,1.3c-0.8-0.5-1.4-1.5-1.4-2.6
					C289.1,420.3,289,418.4,289,415.8z"/>
				<path class="st2" d="M17.6,487.9c-2.3-2-4.8-0.7-7-2.3c-1.8-1.3-4.4-1.3-6.6-2.2c-4.1-1.6-7.6-4.2-11.2-6.5
					c-0.9-0.6-1.1-1.4,0.1-2c5.2-2.6,8.7-7.2,12.9-10.9c3.5-3,6.7-6.3,10-9.5c0.9-0.9,1.2-0.7,1.6,0.5c2.4,5.9,1.8,12.1,1,17.9
					c-0.6,3.7,0,7.7-1.5,11.3C16.5,485.2,17.4,486.1,17.6,487.9z"/>
				<path class="st2" d="M396.9,297.6c0.4,5,1.1,10,0.2,15c-0.3,1.5,0.1,3.1,0.5,4.7c0.7,3.2,1.1,6.6-1,9.6
					c-0.7,1.1-1.7,1.4-2.6,0.8c-2-1.5-4.4-1.5-6.7-2.2c-4.8-1.6-9.4-3.6-13.5-6.8c-1.5-1.2-1.1-2.5,1-3.6c3-1.5,5.6-3.5,8.2-5.6
					c4.2-3.4,8.1-7.1,12.1-10.8C395.6,298.2,396.1,297.7,396.9,297.6z"/>
				<path class="st2" d="M-96.4,307.1c0,2-0.1,4,0,6c0.2,3.8-1.1,7.4-0.6,11.2c0.4,2.8-2.1,4-4.8,3c-1.3-0.5-2.7-0.9-4.1-1.1
					c-4.6-0.9-8.6-2.8-12.5-5.4c-1.1-0.8-2.5-1.2-3.7-2c-1.6-1.3-1.7-2.3-0.1-3.7c0.8-0.6,1.6-1.4,2.7-1.5c0.6-0.1,1.1-0.3,1.4-0.7
					c3.7-4.4,8.3-8,12.4-12.1c1.5-1.5,3.2-2.7,4.5-4.3c1-1.3,2.5-0.6,3.8-0.5c1.3,0.1,0.9,1.3,0.9,2.1
					C-96.4,301-96.4,304-96.4,307.1z"/>
			</g>
		</g>
	</g>
</g>
<g id="Layer_3">
	<path class="st18" d="M259.2,41.8c-3.2-5.4-14.8-4-14.8-4h-9.9c-2.6-6.1-8.6-10.5-15.7-10.5s-13.1,4.3-15.7,10.5h-6.5
		c-2.6-6.1-8.6-10.5-15.7-10.5s-13.1,4.3-15.7,10.5h-23c0,0-1.7-0.8-2.9-1.9c-1.1-1.1-2.1-3.8-2.1-3.8s-0.8,2.4-1.9,3.6
		c-1,1.1-2.7,2-2.7,2h-23.4c-2.5-6.2-8.6-10.6-15.7-10.6c-7.1,0-13.2,4.4-15.7,10.6h-6.5c-2.6-6.1-8.6-10.3-15.6-10.3
		s-13,4.3-15.6,10.3h-9.7c0,0-10.5-0.4-13.7,2.8c-3.2,3.2-2.7,7.2-2.7,9c0,1.4,4.4,28.8,7.5,41.9c0.9,3.8,1.1,4.9,2.3,6.2
		c1.1,1.6,5.3,2.1,9.3,2.4c1.1,0.1,3.2,0.1,5.8,0.1c1.2,8.2,8.3,14.5,16.8,14.5c8.5,0,15.6-6.3,16.8-14.6h4.2
		c1.2,8.2,8.2,14.6,16.8,14.6c8.5,0,15.6-6.3,16.8-14.6h0.2c0,0-0.2,3.1,4.6,5c4.7,1.9,13.2,3.9,23.3,3.9c10.1,0,21.4-2.8,24.2-5.8
		c0.8-1,1.4-2.1,1.4-2.6h0.2c1.3,8.1,8.3,14.4,16.8,14.4s15.5-6.2,16.8-14.4h4.3c1.3,8.1,8.3,14.4,16.8,14.4
		c8.5,0,15.5-6.2,16.8-14.4c3.8-0.1,10.7-0.5,13.8-2.1c3.1-1.5,3.3-4.2,3.9-6.4c0.6-2.2,6.8-37.6,6.8-37.6S262.4,47.2,259.2,41.8z
		 M83.7,55.4c0.7-0.1,4.5-2.9,6.4-4.8c0.4-0.4,1-1.1,1.7-1.8H93v11c-6.7-0.3-12.3-4.8-14.3-11h8.5c-1.9,2.1-3.6,4-4,4.3
		C82.4,53.9,83,55.5,83.7,55.4z M94.3,48.8h14.3c-1.9,6.2-7.6,10.7-14.3,11V48.8z M107.9,37.8h-6.3c2-2.1,2.4-2.6,2.7-3.4
		c0.4-1-0.7-1.7-0.8-1.5s-2.9,2.1-4.1,3c-0.4,0.3-1.1,1-2,1.9h-3.2v-9.2C100.4,28.8,105.6,32.5,107.9,37.8z M93,28.5v9.2H79.4
		C81.8,32.5,86.9,28.8,93,28.5z M45.9,55.7c0.7-0.1,4.5-2.9,6.4-4.8c0.5-0.5,1.2-1.2,1.9-2.1h0.9V60c-6.8-0.3-12.5-4.9-14.3-11.2
		h8.8c-2,2.2-3.8,4.2-4.2,4.5C44.6,54.1,45.2,55.7,45.9,55.7z M56.5,48.8h14.3C69,55.1,63.3,59.7,56.5,60V48.8z M70,37.8h-6
		c1.8-1.9,2.2-2.4,2.5-3.2c0.4-1-0.7-1.7-0.8-1.5c-0.1,0.2-2.9,2.1-4.1,3c-0.3,0.2-1,0.9-1.8,1.7h-3.4v-9C62.5,29,67.6,32.6,70,37.8
		z M55.2,28.8v9H41.7C44.1,32.6,49.2,29,55.2,28.8z M65.8,86.4c-0.1,0.2-2.9,2.1-4.1,3c-0.6,0.5-2.6,2.4-4.3,4.1c-0.3,0-0.6,0-1,0
		V82c6.9,0.3,12.7,5.1,14.4,11.5c-3.1,0-6.2,0-9.2,0c0.1-0.2,0.3-0.3,0.4-0.5c3.4-3.7,4-4.2,4.4-5.2C67,86.9,65.9,86.2,65.8,86.4z
		 M55.2,93.5c-5.8,0-10.9,0-14.4,0c1.8-6.4,7.5-11.2,14.4-11.5V93.5z M40.4,100.1c3.7,0,7.9,0,11-0.1c-2.5,2.8-5.5,6.1-6,6.5
		c-0.9,0.8-0.3,2.4,0.4,2.3c0.7-0.1,4.5-2.9,6.4-4.8c0.7-0.7,1.7-1.8,2.8-3.1v12.2C47.7,112.9,41.6,107.4,40.4,100.1z M56.5,113.2
		V100h14.8C70.2,107.3,64,112.9,56.5,113.2z M103.6,86.4c-0.1,0.2-2.9,2.1-4.1,3c-0.6,0.5-2.6,2.4-4.3,4.1c-0.3,0-0.6,0-1,0V82
		c6.9,0.3,12.7,5.1,14.4,11.5c-2,0-5.2,0-9.2,0c0.1-0.2,0.3-0.3,0.4-0.5c3.4-3.7,4-4.2,4.4-5.2C104.8,86.9,103.7,86.2,103.6,86.4z
		 M93,93.5c-4.4,0-9.4,0-14.4,0C80.4,87.1,86.1,82.3,93,82V93.5z M78.2,100h11.1c-2.5,2.8-5.5,6.1-6,6.6c-0.9,0.8-0.3,2.4,0.4,2.3
		c0.7-0.1,4.5-2.9,6.4-4.8c0.7-0.7,1.7-1.8,2.8-3.1v12.2C85.5,112.9,79.3,107.3,78.2,100z M94.3,113.2V100h14.8
		C108,107.3,101.8,112.9,94.3,113.2z M111,93.5c0,0-0.3,0-0.9,0c-1.9-7.4-8.5-12.8-16.4-12.8c-7.9,0-14.6,5.5-16.4,12.8
		c-1.6,0-3.3,0-4.9,0c-1.9-7.4-8.5-12.8-16.4-12.8s-14.6,5.5-16.4,12.8c-2.2,0-3.6,0-3.9,0c-2.8,0-5.6-0.4-7.3-1.6
		c-1.7-1.2-1.9-3.6-1.9-3.6s-3.6-33.2-3.6-33.7c0-0.5-0.3-2.6,1.5-4.5c1.8-1.8,4.1-1.3,4.1-1.3h11.1c2,7.2,8.6,12.5,16.4,12.5
		S70.3,56,72.2,48.8h5.1c2,7.1,8.6,12.3,16.3,12.3c7.7,0,14.3-5.2,16.3-12.3h1V93.5z M208.9,55.7c0.7-0.1,4.5-2.9,6.4-4.8
		c0.6-0.6,1.5-1.6,2.5-2.7h0.3V60c-7-0.3-12.9-5.3-14.5-11.9h9.6c-2.2,2.4-4.4,4.8-4.8,5.2C207.6,54.1,208.2,55.7,208.9,55.7z
		 M219.5,48.1H234c-1.6,6.6-7.5,11.6-14.5,11.9V48.1z M233.1,37.9H227c1.9-2,2.3-2.5,2.6-3.3c0.4-1-0.7-1.7-0.8-1.5
		c-0.1,0.2-2.9,2.1-4.1,3c-0.3,0.2-1.1,0.9-1.9,1.8h-3.3v-9.1C225.5,29,230.7,32.7,233.1,37.9z M218.2,28.8v9.1h-13.6
		C207,32.7,212.2,29,218.2,28.8z M171.1,55.7c0.7-0.1,4.5-2.9,6.4-4.8c0.6-0.6,1.5-1.6,2.5-2.7h0.3V60c-7-0.3-12.9-5.3-14.5-11.9
		h9.6c-2.2,2.4-4.4,4.8-4.8,5.2C169.8,54.1,170.4,55.7,171.1,55.7z M181.7,48.1h14.5c-1.6,6.6-7.5,11.6-14.5,11.9V48.1z M195.3,37.9
		h-6.1c1.9-2,2.3-2.5,2.6-3.3c0.4-1-0.7-1.7-0.8-1.5c-0.1,0.2-2.9,2.1-4.1,3c-0.3,0.2-1.1,0.9-1.9,1.8h-3.3v-9.1
		C187.7,29,192.9,32.7,195.3,37.9z M180.4,28.8v9.1h-13.6C169.2,32.7,174.4,29,180.4,28.8z M191,86.6c-0.1,0.2-2.9,2.1-4.1,3
		c-0.5,0.4-2,1.8-3.4,3.2c-0.6,0-1.2,0-1.8,0V82.2c6.6,0.3,12.1,4.6,14.1,10.6c-2.8,0-5.5,0-8.1,0c3-3.3,3.6-3.8,4-4.7
		C192.2,87.1,191.1,86.4,191,86.6z M180.4,92.8c-6.5,0-11.7,0-14.1,0c2-6,7.6-10.3,14.1-10.6V92.8z M165.6,100.5h10.9
		c-2.5,2.7-5.3,5.9-5.8,6.4c-0.9,0.8-0.3,2.4,0.4,2.3c0.7-0.1,4.5-2.9,6.4-4.8c0.7-0.7,1.7-1.8,2.8-3.1v12.2
		C173,113.2,166.9,107.6,165.6,100.5z M181.7,113.5v-13h14.8C195.3,107.6,189.2,113.2,181.7,113.5z M228.8,86.6
		c-0.1,0.2-2.9,2.1-4.1,3c-0.5,0.4-2,1.8-3.4,3.2c-0.6,0-1.2,0-1.8,0V82.2c6.6,0.3,12.1,4.6,14.1,10.6c-2.3,0-5,0-8.1,0
		c3-3.3,3.6-3.8,4-4.7C230,87.1,228.9,86.4,228.8,86.6z M218.2,92.8c-4.5,0-9.3,0-14.1,0c2-6,7.6-10.3,14.1-10.6V92.8z M203.4,100.5
		h10.9c-2.5,2.7-5.3,5.9-5.8,6.4c-0.9,0.8-0.3,2.4,0.4,2.3c0.7-0.1,4.5-2.9,6.4-4.8c0.7-0.7,1.7-1.8,2.8-3.1v12.2
		C210.8,113.2,204.7,107.6,203.4,100.5z M219.5,113.5v-13H233c0,0,0.5,0,1.3,0C233.1,107.6,227,113.2,219.5,113.5z M253,53.9
		c0,0.5-3.6,33.7-3.6,33.7s-0.2,2.4-1.9,3.6c-1.7,1.2-4.4,1.6-7.3,1.6c-0.4,0-2.3,0-5.2,0c-2.1-6.9-8.6-11.9-16.2-11.9
		c-7.6,0-14.1,5-16.2,11.9c-1.8,0-3.6,0-5.4,0c-2.1-6.9-8.6-11.9-16.2-11.9s-14.1,5-16.2,11.9c-0.1,0-0.1,0-0.1,0V49.1
		c2,7.1,8.6,12.3,16.3,12.3c8.1,0,14.8-5.6,16.5-13.2h4.7c1.7,7.5,8.5,13.2,16.5,13.2s14.8-5.6,16.5-13.2h12c0,0,2.3-0.5,4.1,1.3
		C253.3,51.3,253,53.4,253,53.9z"/>
</g>
<g id="Layer_1">
</g>
</svg>
