<?xml version="1.0" encoding="utf-8"?>
<!-- Generator: Adobe Illustrator 22.1.0, SVG Export Plug-In . SVG Version: 6.00 Build 0)  -->
<svg version="1.1" id="Layer_1" xmlns="http://www.w3.org/2000/svg" xmlns:xlink="http://www.w3.org/1999/xlink" x="0px" y="0px"
	 viewBox="0 0 269.4 172.6" style="enable-background:new 0 0 269.4 172.6;" xml:space="preserve">
<style type="text/css">
	.st0{fill:url(#SVGID_1_);}
</style>
<g id="Layer_2_1_">
</g>
<linearGradient id="SVGID_1_" gradientUnits="userSpaceOnUse" x1="35.7216" y1="79.1499" x2="239.0219" y2="79.1499">
	<stop  offset="0" style="stop-color:#00A4F3"/>
	<stop  offset="1" style="stop-color:#00CBEF"/>
</linearGradient>
<path class="st0" d="M228.2,52.1h-1.5c-0.9-6.9-6.8-12.3-14-12.3s-13.1,5.4-14,12.3h-5.7c-0.9-6.9-6.8-12.3-14-12.3
	s-13.1,5.4-14,12.3h-21.8c-0.9,0-3.1-3-4.4-6c-0.3-0.6-0.9-1-1.6-1s-1.3,0.4-1.6,1c-1.3,3-3.5,6-4.4,6h-22.2
	c-0.9-6.9-6.8-12.3-14-12.3s-13.1,5.4-14,12.3h-5.7c-0.9-6.9-6.8-12.3-14-12.3s-13.1,5.4-14,12.3h-1.1c-3.7,0-10.7,1.9-10.7,9.2
	c0,7.4,6,36.8,6.5,38.8c0.2,1.7,1.6,4.5,5.3,5.5c0.6,7.2,6.7,12.8,14,12.8c7.2,0,13.2-5.5,14-12.5h5.7c0.8,7,6.8,12.5,14,12.5
	s13.2-5.5,14-12.5h6c1.6,2.3,6.7,6.9,22.3,6.9s20.7-4.6,22.3-6.9h5.5c0.8,7,6.8,12.5,14,12.5s13.2-5.5,14-12.5h5.7
	c0.8,7,6.8,12.5,14,12.5c7.3,0,13.3-5.6,14-12.7c4-0.9,5.5-3.9,5.8-5.6c0.4-2,6.5-31.4,6.5-38.8C239,54,231.9,52.1,228.2,52.1z
	 M202.3,55.6h8.7v8.8C206.5,63.6,203,60.1,202.3,55.6z M211,49.7l-4.4-4.4c1.3-0.9,2.8-1.6,4.4-1.8V49.7z M214.5,58.2l4.4,4.4
	c-1.3,0.9-2.8,1.6-4.4,1.8V58.2z M221.4,60.1l-4.5-4.5h6.3C222.9,57.2,222.3,58.8,221.4,60.1z M223.2,52.1h-8.7v-8.6
	C218.9,44.2,222.4,47.7,223.2,52.1z M204.1,47.8l4.3,4.3h-6.1C202.6,50.5,203.2,49.1,204.1,47.8z M168.6,55.6h8.7v8.8
	C172.9,63.6,169.4,60.1,168.6,55.6z M177.3,49.7l-4.4-4.4c1.3-0.9,2.8-1.6,4.4-1.8V49.7z M180.8,58.2l4.4,4.4
	c-1.3,0.9-2.8,1.6-4.4,1.8V58.2z M187.7,60.1l-4.5-4.5h6.3C189.3,57.2,188.6,58.8,187.7,60.1z M189.5,52.1h-8.7v-8.6
	C185.3,44.2,188.8,47.7,189.5,52.1z M170.5,47.8l4.3,4.3h-6.1C168.9,50.5,169.6,49.1,170.5,47.8z M84.7,55.6h8.7v8.8
	C88.9,63.6,85.4,60.1,84.7,55.6z M93.4,49.7L89,45.3c1.3-0.9,2.8-1.6,4.4-1.8V49.7z M96.9,58.2l4.4,4.4c-1.3,0.9-2.8,1.6-4.4,1.8
	V58.2z M103.8,60.1l-4.5-4.5h6.3C105.3,57.2,104.7,58.8,103.8,60.1z M105.6,52.1h-8.7v-8.6C101.3,44.2,104.8,47.7,105.6,52.1z
	 M86.5,47.8l4.3,4.3h-6.1C85,50.5,85.6,49.1,86.5,47.8z M51,55.6h8.7v8.8C55.3,63.6,51.8,60.1,51,55.6z M59.7,49.7l-4.4-4.4
	c1.3-0.9,2.8-1.6,4.4-1.8V49.7z M63.2,58.2l4.4,4.4c-1.3,0.9-2.8,1.6-4.4,1.8V58.2z M70.1,60.1l-4.5-4.5h6.3
	C71.7,57.2,71,58.8,70.1,60.1z M71.9,52.1h-8.7v-8.6C67.7,44.2,71.1,47.7,71.9,52.1z M52.9,47.8l4.3,4.3h-6.1
	C51.3,50.5,52,49.1,52.9,47.8z M45.7,99.6c0-0.1,0-0.1,0-0.2c-0.1-0.3-6.4-31-6.4-38.2c0-5.5,6.4-5.7,7.2-5.7h1.1
	c0.8,7,6.8,12.4,14,12.4s13.2-5.4,14-12.4h5.7c0.8,7,6.8,12.4,14,12.4s13.2-5.4,14-12.4h5.1v46.9h-5.2c-0.9-6.9-6.8-12.2-14-12.2
	s-13,5.3-14,12.2h-5.7c-0.9-6.9-6.8-12.2-14-12.2c-7,0-12.7,5.1-13.9,11.7C46,101.2,45.7,99.9,45.7,99.6z M93.4,100.1L89,95.7
	c1.3-0.9,2.8-1.6,4.4-1.8V100.1z M86.5,98.2l4.3,4.3h-6.1C85,100.9,85.6,99.5,86.5,98.2z M96.9,108.6l4.4,4.4
	c-1.3,0.9-2.8,1.6-4.4,1.8V108.6z M96.9,93.9c4.4,0.7,7.9,4.2,8.7,8.6h-8.7V93.9z M59.7,100.1l-4.4-4.4c1.3-0.9,2.8-1.6,4.4-1.8
	V100.1z M52.9,98.2l4.3,4.3h-6.1C51.4,100.9,52,99.5,52.9,98.2z M63.2,108.6l4.4,4.4c-1.3,0.9-2.8,1.6-4.4,1.8V108.6z M63.2,93.9
	c4.4,0.7,7.9,4.2,8.7,8.6h-8.7V93.9z M51,106h8.7v8.8C55.3,114.1,51.7,110.5,51,106z M70.1,110.5l-4.5-4.5H72
	C71.7,107.7,71.1,109.2,70.1,110.5z M84.7,106h8.7v8.8C88.9,114.1,85.4,110.5,84.7,106z M103.8,110.5l-4.5-4.5h6.4
	C105.3,107.7,104.7,109.2,103.8,110.5z M137.4,109.4c-16.2,0-19.3-5.3-19.6-5.7V55.6h13.5c2.5,0,4.6-2.6,6-5c1.4,2.4,3.6,5,6,5h13.4
	V104C155.8,105.3,151.7,109.4,137.4,109.4z M189.5,102.5h-8.7v-8.6C185.2,94.7,188.7,98.1,189.5,102.5z M180.8,108.6l4.4,4.4
	c-1.3,0.9-2.8,1.6-4.4,1.8V108.6z M177.3,100.1l-4.4-4.4c1.3-0.9,2.8-1.6,4.4-1.8V100.1z M170.5,98.2l4.3,4.3h-6.1
	C169,100.9,169.6,99.5,170.5,98.2z M168.6,106h8.7v8.8C172.9,114.1,169.3,110.5,168.6,106z M187.7,110.5l-4.5-4.5h6.4
	C189.3,107.7,188.7,109.2,187.7,110.5z M223.2,102.5h-8.7v-8.6C218.9,94.7,222.4,98.1,223.2,102.5z M221.4,110.5l-4.5-4.5h6.4
	C222.9,107.7,222.3,109.2,221.4,110.5z M214.5,108.6l4.4,4.4c-1.3,0.9-2.8,1.6-4.4,1.8V108.6z M211,100.1l-4.4-4.4
	c1.3-0.9,2.8-1.6,4.4-1.8V100.1z M204.1,98.2l4.3,4.3h-6.1C202.6,100.9,203.2,99.5,204.1,98.2z M202.3,106h8.7v8.8
	C206.5,114.1,203,110.5,202.3,106z M229.1,99.4c0,0,0,0.1,0,0.1c-0.1,0.4-0.4,1.9-2.4,2.6c-1.1-6.7-6.9-11.9-13.9-11.9
	c-7.1,0-13,5.3-14,12.2h-5.7c-0.9-6.9-6.8-12.2-14-12.2s-13,5.3-14,12.2h-4.9V55.6h4.9c0.8,7,6.8,12.4,14,12.4s13.2-5.4,14-12.4h5.7
	c0.8,7,6.8,12.4,14,12.4s13.2-5.4,14-12.4h1.5c0.8,0,7.3,0.2,7.3,5.7C235.5,68.4,229.2,99.1,229.1,99.4z"/>
</svg>
