<?xml version="1.0" encoding="utf-8"?>
<!-- Generator: Adobe Illustrator 22.1.0, SVG Export Plug-In . SVG Version: 6.00 Build 0)  -->
<svg version="1.1" xmlns="http://www.w3.org/2000/svg" xmlns:xlink="http://www.w3.org/1999/xlink" x="0px" y="0px"
	 viewBox="0 0 23.6 700" style="enable-background:new 0 0 23.6 700;" xml:space="preserve">
<style type="text/css">
	.st0{display:none;}
	.st1{display:inline;}
	.st2{fill:url(#SVGID_1_);}
	.st3{fill:#E8EFF2;}
	.st4{fill:#00A3F2;}
	.st5{fill:#FFFFFF;}
	.st6{fill:#00B5F1;}
	.st7{fill:#00C8EF;}
</style>
<g id="Layer_3" class="st0">
	<g id="UKuWpi.tif" class="st1">
		
			<image style="overflow:visible;" width="24" height="700" id="Layer_1" xlink:href="FFBDA797C7D4E3E1.png"  transform="matrix(1 0 0 1 -12.2857 0)">
		</image>
	</g>
</g>
<g id="Layer_2_1_">
	
		<linearGradient id="SVGID_1_" gradientUnits="userSpaceOnUse" x1="-499.7856" y1="533.9857" x2="-182.4856" y2="533.9857" gradientTransform="matrix(6.123234e-17 1 1 -6.123234e-17 -522.1857 520.1857)">
		<stop  offset="0" style="stop-color:#00A4F3"/>
		<stop  offset="1" style="stop-color:#00CBEF"/>
	</linearGradient>
	<rect x="9.8" y="20.4" class="st2" width="4" height="317.3"/>
	<rect x="9.8" y="337.7" class="st3" width="4" height="362.3"/>
	<g>
		<circle class="st4" cx="11.8" cy="11.8" r="11.8"/>
		<path class="st5" d="M7.3,12.3c-0.1-0.1-0.1-0.2-0.1-0.3c0-0.1,0-0.2,0.1-0.3l0.6-0.6c0.2-0.2,0.4-0.2,0.6,0l0,0l2.2,1.8
			c0.1,0.1,0.2,0.1,0.3,0l4.1-4.6l0,0l0,0c0.2-0.2,0.4-0.2,0.6,0l0.6,0.6c0.2,0.2,0.2,0.4,0,0.6l0,0l-5.2,5.8
			c-0.1,0.1-0.2,0.1-0.3,0.1s-0.2,0-0.3-0.1l-3.2-2.9L7.3,12.3L7.3,12.3z"/>
	</g>
	<g>
		<circle class="st6" cx="11.8" cy="140.3" r="11.8"/>
		<path class="st5" d="M7.3,140.8c-0.1-0.1-0.1-0.2-0.1-0.3c0-0.1,0-0.2,0.1-0.3l0.6-0.6c0.2-0.2,0.4-0.2,0.6,0l0,0l2.2,1.8
			c0.1,0.1,0.2,0.1,0.3,0l4.1-4.6l0,0l0,0c0.2-0.2,0.4-0.2,0.6,0l0.6,0.6c0.2,0.2,0.2,0.4,0,0.6l0,0l-5.2,5.8
			c-0.1,0.1-0.2,0.1-0.3,0.1s-0.2,0-0.3-0.1l-3.2-2.9L7.3,140.8L7.3,140.8z"/>
	</g>
	<g>
		<circle class="st7" cx="11.8" cy="300.8" r="11.8"/>
		<path class="st5" d="M7.3,301.3c-0.1-0.1-0.1-0.2-0.1-0.3c0-0.1,0-0.2,0.1-0.3l0.6-0.6c0.2-0.2,0.4-0.2,0.6,0l0,0l2.2,1.8
			c0.1,0.1,0.2,0.1,0.3,0l4.1-4.6l0,0l0,0c0.2-0.2,0.4-0.2,0.6,0l0.6,0.6c0.2,0.2,0.2,0.4,0,0.6l0,0l-5.2,5.8
			c-0.1,0.1-0.2,0.1-0.3,0.1c-0.1,0-0.2,0-0.3-0.1l-3.2-2.9L7.3,301.3L7.3,301.3z"/>
	</g>
	<g>
		<circle class="st5" cx="11.8" cy="441" r="11.8"/>
		<path class="st3" d="M19.5,441c0,4.2-3.4,7.7-7.7,7.7s-7.7-3.4-7.7-7.7s3.4-7.7,7.7-7.7S19.5,436.7,19.5,441 M23.6,441
			c0-6.5-5.3-11.8-11.8-11.8S0,434.5,0,441s5.3,11.8,11.8,11.8S23.6,447.5,23.6,441L23.6,441z"/>
	</g>
	<g>
		<circle class="st5" cx="11.8" cy="577.7" r="11.8"/>
		<path class="st3" d="M19.5,577.7c0,4.2-3.4,7.7-7.7,7.7s-7.7-3.4-7.7-7.7s3.4-7.7,7.7-7.7S19.5,573.4,19.5,577.7 M23.6,577.7
			c0-6.5-5.3-11.8-11.8-11.8S0,571.2,0,577.7s5.3,11.8,11.8,11.8S23.6,584.2,23.6,577.7L23.6,577.7z"/>
	</g>
</g>
</svg>
