<?xml version="1.0" encoding="utf-8"?>
<!-- Generator: Adobe Illustrator 22.1.0, SVG Export Plug-In . SVG Version: 6.00 Build 0)  -->
<svg version="1.1" xmlns="http://www.w3.org/2000/svg" xmlns:xlink="http://www.w3.org/1999/xlink" x="0px" y="0px"
	 viewBox="0 0 614 500" style="enable-background:new 0 0 614 500;" xml:space="preserve">
<style type="text/css">
	.st0{fill:#BAD1DA;}
	.st1{fill:#032160;}
	.st2{fill:#E8EFF2;}
	.st3{fill:#00A4F3;}
</style>
<g id="Layer_2">
</g>
<g id="Layer_1">
	<g>
		<g>
			<path class="st0" d="M110.8,410.9v-21.7c0-1.2,1-2.2,2.2-2.2h31.7c1.2,0,2.2,1,2.2,2.2v21.7c0,0.4-0.3,0.7-0.7,0.7h-34.6
				C111.1,411.6,110.8,411.3,110.8,410.9z M128.3,418.3c0,2.5-2,4.5-4.5,4.5c-2.5,0-4.5-2-4.5-4.5c0-2.5,2-4.5,4.5-4.5
				C126.3,413.8,128.3,415.8,128.3,418.3z M126,418.3c0-1.3-1-2.3-2.3-2.3c-1.3,0-2.3,1-2.3,2.3s1,2.3,2.3,2.3
				C125,420.6,126,419.6,126,418.3z M119.9,413.8h-10.1c-0.4,0-0.7,0.3-0.7,0.7v2.2c0,0.4,0.3,0.7,0.7,0.7h8.1
				C118.1,416,118.8,414.7,119.9,413.8z M162,418.3c0,2.5-2,4.5-4.5,4.5c-2.5,0-4.5-2-4.5-4.5c0-2.5,2-4.5,4.5-4.5
				C160,413.8,162,415.8,162,418.3z M159.7,418.3c0-1.3-1-2.3-2.3-2.3c-1.3,0-2.3,1-2.3,2.3s1,2.3,2.3,2.3S159.7,419.6,159.7,418.3z
				 M170,414.5v2.2c0,0.4-0.3,0.7-0.7,0.7h-5.9c-0.4-2.9-2.9-5.1-5.9-5.1c-3,0-5.5,2.2-5.9,5.1h-21.8c-0.2-1.5-0.9-2.7-2-3.7h21.2
				V393c0-0.8,0.7-1.5,1.5-1.5h6.9c1.9,0,3.7,1,4.8,2.6l4.4,6.6c0.6,1,1,2.1,1,3.3v9.9h1.8C169.7,413.8,170,414.1,170,414.5z
				 M162.6,400.8l-3.5-5c-0.1-0.2-0.4-0.3-0.6-0.3h-5.5c-0.4,0-0.7,0.3-0.7,0.7v5c0,0.4,0.3,0.7,0.7,0.7h9.1
				C162.6,402,162.9,401.3,162.6,400.8z"/>
		</g>
		<g>
			<g>
				<g>
					<path class="st0" d="M273,412.6c0,2.9,2.4,5.3,5.3,5.3c2.9,0,5.3-2.4,5.3-5.3c0-2.9-2.4-5.3-5.3-5.3
						C275.4,407.3,273,409.7,273,412.6z M275.1,412.6c0-1.7,1.4-3.2,3.2-3.2s3.2,1.4,3.2,3.2s-1.4,3.2-3.2,3.2
						S275.1,414.3,275.1,412.6z"/>
				</g>
			</g>
			<g>
				<g>
					<path class="st0" d="M228.8,408.4v4.2c0,0.6,0.5,1.1,1.1,1.1h4.2c0.6,0,1.1-0.4,1.1-1.1c0-4.1,3.3-7.4,7.4-7.4
						c4.1,0,7.4,3.3,7.4,7.3c0,0,0,0,0,0c0,0.6,0.5,1.1,1.1,1.1h19c0.6,0,1.1-0.4,1.1-1.1c0-4.1,3.3-7.4,7.4-7.4
						c4.1,0,7.4,3.3,7.4,7.3c0,0,0,0,0,0c0,0.6,0.5,1.1,1.1,1.1h4.2c0.6,0,1.1-0.5,1.1-1.1v-4.2c0-0.6-0.5-1.1-1.1-1.1l-0.1-2.6
						c-0.1-1.7-0.9-3.2-2.3-4.1c-2.7-1.7-7.3-2.7-11.8-2.7c-6.1-7.3-15.5-10.2-28-8.4c0,0,0,0,0,0c-6.8,1.2-9.9,4.8-12.1,8.6l-5.9,2
						c-0.4,0.1-0.7,0.5-0.7,1v6.3C229.3,407.3,228.8,407.8,228.8,408.4z M258.3,391.7c0-0.3,0.3-0.6,0.6-0.5
						c5.7,0.5,10.4,2.4,14,5.7c0.4,0.3,0.1,0.9-0.3,0.9h-13.7c-0.3,0-0.5-0.2-0.5-0.5V391.7z M245.6,392.8c0-0.2,0.1-0.4,0.3-0.5
						c0.9-0.3,1.9-0.6,3-0.8c2.4-0.3,4.6-0.5,6.7-0.5c0.3,0,0.5,0.2,0.5,0.5v5.8c0,0.3-0.2,0.5-0.5,0.5h-9.5c-0.3,0-0.5-0.2-0.5-0.5
						L245.6,392.8z M239.7,397c0.8-1.1,1.8-2.1,2.9-2.9c0.4-0.3,0.8,0,0.9,0.4l0,2.9c0,0.3-0.2,0.5-0.5,0.5h-2.9
						C239.7,397.9,239.4,397.3,239.7,397z"/>
				</g>
			</g>
			<g>
				<g>
					<path class="st0" d="M237.2,412.6c0,2.9,2.4,5.3,5.3,5.3c2.9,0,5.3-2.4,5.3-5.3c0-2.9-2.4-5.3-5.3-5.3
						C239.6,407.3,237.2,409.7,237.2,412.6z M239.3,412.6c0-1.7,1.4-3.2,3.2-3.2c1.7,0,3.2,1.4,3.2,3.2s-1.4,3.2-3.2,3.2
						C240.7,415.8,239.3,414.3,239.3,412.6z"/>
				</g>
			</g>
		</g>
		<g>
			<g>
				<g>
					<circle class="st0" cx="358.2" cy="400" r="5"/>
				</g>
			</g>
			<g>
				<g>
					<path class="st0" d="M393.1,397.5c-0.7,0-1.2,0.6-1.2,1.2c0,0.7,0.6,1.2,1.2,1.2c10.2,0,17.5,9.4,17.5,11.2
						c0,0.7,0.6,1.2,1.2,1.2s1.2-0.6,1.2-1.2C413,407.4,404.2,397.5,393.1,397.5z"/>
				</g>
			</g>
			<g>
				<g>
					<path class="st0" d="M411.8,410h-11.2c-1.7,0-3.1-1.1-3.6-2.7l-2.8-9.1l-2.5-5c-0.2-0.4-0.6-0.7-1.1-0.7h-3.7
						c-0.3,0-0.6,0.1-0.9,0.4l-4.6,4.6h-19.4c-0.7,0-1.2,0.6-1.2,1.2v2.5c0,0.6,0.4,1.1,1,1.2c4.6,0.8,12.3,2.6,14.1,4.5l0.1,0.2
						c2.4,4.6,5.3,10.3,10.9,10.3h17.5c5,0,8.7-2.7,8.7-6.2C413,410.5,412.4,410,411.8,410z"/>
				</g>
			</g>
			<g>
				<g>
					<path class="st0" d="M360.6,395.9l-2.5-5c-0.3-0.6-1-0.8-1.6-0.6l-2.5,1.1c-0.6,0.3-0.9,0.9-0.7,1.5l1.2,3.7
						c0.2,0.7,0.9,1,1.6,0.8c0.5-0.2,0.8-0.6,0.8-1.1l1.1,0l0.3,0.6c0.2,0.4,0.7,0.7,1.1,0.7c0.2,0,0.4,0,0.6-0.1
						C360.6,397.2,360.9,396.5,360.6,395.9z"/>
				</g>
			</g>
			<g>
				<g>
					<path class="st0" d="M360,402.6c-0.6-0.3-1.4-0.1-1.7,0.6l-0.2,0.3c-0.1-0.6-0.6-1-1.2-1c-0.7,0-1.2,0.6-1.2,1.2v2.5
						c0,0.7,0.6,1.2,1.2,1.2h1.2c0.5,0,0.9-0.3,1.1-0.7l1.2-2.5C360.8,403.7,360.6,402.9,360,402.6z"/>
				</g>
			</g>
			<g>
				<g>
					<path class="st0" d="M389.3,385c-0.7,0-1.2,0.6-1.2,1.2v1.2c0,0.7,0.6,1.2,1.2,1.2c0.7,0,1.2-0.6,1.2-1.2v-1.2
						C390.6,385.6,390,385,389.3,385z"/>
				</g>
			</g>
			<g>
				<g>
					<path class="st0" d="M411.8,387.5h-22.4c-0.7,0-1.2,0.6-1.2,1.2s0.6,1.2,1.2,1.2h22.4c0.7,0,1.2-0.6,1.2-1.2
						S412.4,387.5,411.8,387.5z"/>
				</g>
			</g>
			<g>
				<g>
					<path class="st0" d="M389.3,387.5h-22.4c-0.7,0-1.2,0.6-1.2,1.2s0.6,1.2,1.2,1.2h22.4c0.7,0,1.2-0.6,1.2-1.2
						S390,387.5,389.3,387.5z"/>
				</g>
			</g>
			<g>
				<g>
					<path class="st0" d="M394.3,415c-0.7,0-1.2,0.6-1.2,1.2v5c0,0.7,0.6,1.2,1.2,1.2c0.7,0,1.2-0.6,1.2-1.2v-5
						C395.5,415.5,395,415,394.3,415z"/>
				</g>
			</g>
			<g>
				<g>
					<path class="st0" d="M404.3,415c-0.7,0-1.2,0.6-1.2,1.2v5c0,0.7,0.6,1.2,1.2,1.2c0.7,0,1.2-0.6,1.2-1.2v-5
						C405.5,415.5,405,415,404.3,415z"/>
				</g>
			</g>
			<g>
				<g>
					<path class="st0" d="M412.4,417.6c-0.6-0.3-1.4-0.1-1.7,0.5c-0.6,1.1-3,1.7-3.9,1.9h-24.9c-0.7,0-1.2,0.6-1.2,1.2
						c0,0.7,0.6,1.2,1.2,1.2l25.1,0c0.5-0.1,4.5-0.7,5.9-3.1C413.2,418.7,413,417.9,412.4,417.6z"/>
				</g>
			</g>
		</g>
		<g>
			<g>
				<path class="st1" d="M41.4,128h-2.1v-4.3h-4v4.3h-2.1v-10h2.1v3.9h4V118h2.1V128z"/>
				<path class="st1" d="M43.7,118.4c0-0.7,0.4-1,1.1-1s1.1,0.3,1.1,1c0,0.3-0.1,0.6-0.3,0.8c-0.2,0.2-0.5,0.3-0.9,0.3
					C44.1,119.4,43.7,119.1,43.7,118.4z M45.9,128h-2.1v-7.6h2.1V128z"/>
				<path class="st1" d="M54.7,120.4v1.1l-1.2,0.3c0.2,0.3,0.3,0.7,0.3,1.1c0,0.8-0.3,1.5-0.9,1.9c-0.6,0.5-1.4,0.7-2.4,0.7l-0.4,0
					l-0.3,0c-0.2,0.2-0.3,0.3-0.3,0.5c0,0.3,0.4,0.5,1.1,0.5h1.3c0.8,0,1.5,0.2,1.9,0.5c0.4,0.4,0.7,0.9,0.7,1.6
					c0,0.9-0.4,1.6-1.1,2.1c-0.7,0.5-1.8,0.7-3.2,0.7c-1.1,0-1.9-0.2-2.4-0.6c-0.6-0.4-0.8-0.9-0.8-1.6c0-0.5,0.1-0.8,0.4-1.2
					c0.3-0.3,0.7-0.5,1.3-0.7c-0.2-0.1-0.4-0.2-0.6-0.4s-0.2-0.4-0.2-0.7c0-0.3,0.1-0.5,0.3-0.7s0.4-0.4,0.7-0.6
					c-0.4-0.2-0.7-0.5-1-0.8c-0.2-0.4-0.4-0.8-0.4-1.4c0-0.8,0.3-1.5,0.8-1.9s1.3-0.7,2.3-0.7c0.2,0,0.5,0,0.8,0.1
					c0.3,0,0.5,0.1,0.6,0.1H54.7z M48.8,129.1c0,0.3,0.1,0.5,0.4,0.7c0.3,0.2,0.7,0.2,1.2,0.2c0.7,0,1.3-0.1,1.8-0.3
					s0.6-0.5,0.6-0.8c0-0.3-0.1-0.5-0.4-0.6s-0.6-0.2-1.2-0.2h-1.1c-0.4,0-0.7,0.1-1,0.3C49,128.5,48.8,128.8,48.8,129.1z
					 M49.6,122.9c0,0.4,0.1,0.7,0.3,1c0.2,0.2,0.5,0.4,0.9,0.4c0.4,0,0.7-0.1,0.9-0.4s0.3-0.6,0.3-1c0-0.9-0.4-1.4-1.1-1.4
					C50,121.5,49.6,121.9,49.6,122.9z"/>
				<path class="st1" d="M63,128H61v-4.5c0-1.1-0.4-1.7-1.2-1.7c-0.6,0-1,0.2-1.3,0.6s-0.4,1-0.4,1.9v3.6H56v-10.6h2.1v2.2
					c0,0.2,0,0.6,0,1.2l0,0.6h0.1c0.5-0.7,1.2-1.1,2.2-1.1c0.9,0,1.6,0.2,2,0.7s0.7,1.2,0.7,2.1V128z"/>
			</g>
			<g>
				<path class="st1" d="M36.3,364v-10h2.1v8.2h4.1v1.8H36.3z"/>
				<path class="st1" d="M50.9,360.2c0,1.2-0.3,2.2-1,2.9s-1.6,1.1-2.7,1.1c-0.7,0-1.4-0.2-1.9-0.5c-0.6-0.3-1-0.8-1.3-1.4
					s-0.5-1.3-0.5-2.1c0-1.2,0.3-2.2,1-2.9s1.6-1,2.7-1c0.7,0,1.4,0.2,1.9,0.5s1,0.8,1.3,1.4S50.9,359.4,50.9,360.2z M45.7,360.2
					c0,0.8,0.1,1.3,0.4,1.7c0.2,0.4,0.7,0.6,1.2,0.6c0.6,0,1-0.2,1.2-0.6c0.2-0.4,0.4-1,0.4-1.7c0-0.8-0.1-1.3-0.4-1.7
					s-0.6-0.6-1.2-0.6c-0.6,0-1,0.2-1.2,0.6C45.8,358.8,45.7,359.4,45.7,360.2z"/>
				<path class="st1" d="M59,364l-0.6-2.7l-0.8-3.4h0l-1.4,6h-2.2l-2.2-7.6h2.1l0.9,3.4c0.1,0.6,0.3,1.4,0.4,2.5h0
					c0-0.3,0.1-0.9,0.2-1.6l0.1-0.6l0.9-3.7h2.3l0.9,3.7c0,0.1,0,0.2,0.1,0.4c0,0.2,0.1,0.4,0.1,0.6c0,0.2,0.1,0.4,0.1,0.6
					c0,0.2,0,0.4,0.1,0.5h0c0-0.3,0.1-0.8,0.2-1.3c0.1-0.6,0.2-1,0.2-1.2l0.9-3.4h2l-2.2,7.6H59z"/>
			</g>
		</g>
		<g>
			<path class="st1" d="M520.1,414l0.8,6.2l0.1,0.7l3.8,0.1v-0.5v-0.2v-5.5c-1.7-0.2-1.9-0.3-2.8-0.4
				C521.2,414.3,520.2,414,520.1,414z"/>
			<path class="st1" d="M501.2,404.2c-1.9-1.1-3.7-2.2-5.3-3.1c-1.8-1-3.3-1.9-4.5-2.6v0.6c0,1.3-1,2.3-2.3,2.3h-1.5
				c3.5,10.7,4.9,13.1,7.3,14.5c2.9,1.7,17.5,1.6,23.5,1.7l-0.6-4.4C514.7,411.9,510.4,409.6,501.2,404.2z"/>
			<path class="st1" d="M536.3,413.2c4.9,0,7.8-0.5,7.8-0.6c0,0,0.1,0,0.1,0c-1.6-2.5-6.2-7.2-15.4-12.9c0,0-3-2-8.1-3.5
				c-8.6-2.6-18.9-3.1-26-3.1c-1.2,0-3.2,0-3.2,0c-1.1,0.1-3.4,0-3.4,0.5c0,0.4,2.7,1.9,3,2.2c1.5,0.9,3.5,2.1,5.7,3.3
				c1.6,0.9,3.4,2,5.3,3.1c9.1,5.3,14.8,8,17.6,9.3c0.6,0.2,0.6,0.2,1,0.4c0.6,0.2,0.9,0.4,1.1,0.4
				C523.2,412.4,531.7,413.2,536.3,413.2z M517.3,406.9C517.3,407,517.3,407,517.3,406.9c-2.5-1.1-4.2-3.2-4.4-3.6c0,0,0,0,0,0
				l1.8,0V403c0-0.7-0.6-1.3-1.3-1.3h-0.2c-0.5,0-1.1-0.2-1.4-0.7l-1.3-1.6c0,0,0,0,0,0h2.3c2.8,0,4.5,1.6,4.5,4.4V406.9z
				 M518.2,407C518.2,407,518.1,407,518.2,407l0-3.1c0-2.8,1.7-4.4,4.5-4.4h2.3c0,0,0,0,0,0l-1.3,1.6c-0.3,0.4-0.9,0.7-1.4,0.7H522
				c-0.7,0-1.3,0.6-1.3,1.3v0.3l1.8,0c0,0,0,0,0,0C522.3,403.7,520.6,405.9,518.2,407z"/>
			<path class="st1" d="M536.3,415.5c-2.6,0-6.2-0.2-9.2-0.5v3c10.7-0.1,16.1-1.6,17.5-3.1C544.2,415,541.3,415.5,536.3,415.5z"/>
			<path class="st1" d="M489,397.1c-2.6-1.7-3.6-2.8-3.2-4.1c0.3-1,1.2-1.5,3.2-1.8v-1.3v-4.1h-6.3h-1.3l1.2,5l0,0l2.1,8.4h4.3
				V397.1z"/>
			<path class="st1" d="M515.8,392.7c-10.2-4.3-18.6-4.7-23.1-4.7c-0.5,0-1,0-1.4,0v1.9v1c1-0.1,2.1-0.1,3.5-0.1
				C503.7,390.9,510.6,391.6,515.8,392.7z"/>
		</g>
		<g>
			
				<rect x="-44.9" y="240.4" transform="matrix(-1.836970e-16 1 -1 -1.836970e-16 318.9282 164.5902)" class="st2" width="244.2" height="2.7"/>
			
				<rect x="452.9" y="240.4" transform="matrix(-1.836970e-16 1 -1 -1.836970e-16 816.7131 -333.1943)" class="st2" width="244.2" height="2.7"/>
			<rect x="75.8" y="167.8" class="st2" width="500.5" height="2.7"/>
			<rect x="75.8" y="218.3" class="st2" width="500.5" height="2.7"/>
			<rect x="75.8" y="118.3" class="st2" width="500.5" height="2.7"/>
			<rect x="75.8" y="267.8" class="st2" width="500.5" height="2.7"/>
			<rect x="75.8" y="318.3" class="st2" width="500.5" height="2.7"/>
			<rect x="75.8" y="363.8" class="st2" width="500.5" height="2.7"/>
			<rect x="114.7" y="304.7" class="st3" width="18.5" height="59.2"/>
			<rect x="238.9" y="249.5" class="st3" width="18.5" height="114.3"/>
			<rect x="362.8" y="146.2" class="st3" width="18.5" height="217.7"/>
			<rect x="486.2" y="249.5" class="st3" width="18.5" height="114.3"/>
			<rect x="262.1" y="249.5" class="st1" width="18.5" height="114.3"/>
			<rect x="386" y="146.2" class="st1" width="18.5" height="217.7"/>
			<rect x="509.4" y="146.2" class="st1" width="18.5" height="217.7"/>
			<rect x="138.2" y="304.7" class="st1" width="18.5" height="59.2"/>
		</g>
		<g>
			<g>
				<path class="st1" d="M282.3,91c0,1.7-0.4,2.9-1.2,3.8s-2,1.3-3.5,1.3s-2.7-0.4-3.5-1.3s-1.2-2.2-1.2-3.8s0.4-2.9,1.2-3.8
					c0.8-0.9,2-1.3,3.5-1.3s2.7,0.4,3.5,1.3C281.9,88.1,282.3,89.3,282.3,91z M275,91c0,1.1,0.2,2,0.6,2.5s1.1,0.8,1.9,0.8
					c1.7,0,2.5-1.1,2.5-3.4c0-2.3-0.8-3.4-2.5-3.4c-0.8,0-1.5,0.3-1.9,0.9S275,89.9,275,91z"/>
				<path class="st1" d="M288.4,96.1c-0.9,0-1.6-0.3-2.1-1h-0.1c0.1,0.6,0.1,1,0.1,1.1v3.1h-2.1v-11h1.7l0.3,1h0.1
					c0.5-0.8,1.2-1.1,2.2-1.1c0.9,0,1.6,0.3,2.1,1s0.8,1.7,0.8,2.9c0,0.8-0.1,1.5-0.4,2.1c-0.2,0.6-0.6,1.1-1,1.4
					S289,96.1,288.4,96.1z M287.8,89.9c-0.5,0-0.9,0.2-1.1,0.5s-0.4,0.8-0.4,1.6v0.2c0,0.8,0.1,1.4,0.4,1.8c0.2,0.4,0.6,0.5,1.2,0.5
					c0.9,0,1.4-0.8,1.4-2.3c0-0.8-0.1-1.3-0.3-1.7C288.7,90.1,288.3,89.9,287.8,89.9z"/>
				<path class="st1" d="M296.6,96.1c-1.2,0-2.2-0.3-2.9-1s-1-1.6-1-2.9c0-1.3,0.3-2.3,1-3c0.6-0.7,1.5-1,2.7-1
					c1.1,0,1.9,0.3,2.5,0.9s0.9,1.5,0.9,2.5v1h-4.9c0,0.6,0.2,1.1,0.5,1.4s0.8,0.5,1.4,0.5c0.5,0,0.9,0,1.3-0.1s0.8-0.2,1.3-0.5v1.6
					c-0.4,0.2-0.8,0.3-1.2,0.4C297.7,96.1,297.2,96.1,296.6,96.1z M296.3,89.7c-0.4,0-0.8,0.1-1,0.4s-0.4,0.7-0.4,1.2h2.9
					c0-0.5-0.1-0.9-0.4-1.2S296.7,89.7,296.3,89.7z"/>
				<path class="st1" d="M305.6,88.2c0.3,0,0.5,0,0.7,0.1l-0.2,2c-0.2,0-0.4-0.1-0.6-0.1c-0.7,0-1.2,0.2-1.6,0.5
					c-0.4,0.3-0.6,0.8-0.6,1.4V96h-2.1v-7.6h1.6l0.3,1.3h0.1c0.2-0.4,0.6-0.8,1-1C304.7,88.3,305.2,88.2,305.6,88.2z"/>
				<path class="st1" d="M312.6,96l-0.4-1h-0.1c-0.4,0.4-0.7,0.7-1.1,0.9c-0.4,0.2-0.9,0.3-1.5,0.3c-0.7,0-1.3-0.2-1.7-0.6
					c-0.4-0.4-0.6-1-0.6-1.8c0-0.8,0.3-1.4,0.9-1.8c0.6-0.4,1.4-0.6,2.6-0.6l1.3,0v-0.3c0-0.8-0.4-1.2-1.2-1.2
					c-0.6,0-1.3,0.2-2.2,0.6l-0.7-1.4c0.9-0.5,1.9-0.7,2.9-0.7c1,0,1.8,0.2,2.4,0.7s0.8,1.1,0.8,2V96H312.6z M312,92.5l-0.8,0
					c-0.6,0-1.1,0.1-1.4,0.3s-0.4,0.5-0.4,0.9c0,0.6,0.3,0.9,1,0.9c0.5,0,0.9-0.1,1.2-0.4c0.3-0.3,0.4-0.6,0.4-1.1V92.5z"/>
				<path class="st1" d="M319.4,94.5c0.4,0,0.8-0.1,1.3-0.2v1.6c-0.5,0.2-1.2,0.3-1.9,0.3c-0.8,0-1.4-0.2-1.8-0.6
					c-0.4-0.4-0.6-1.1-0.6-1.9v-3.7h-1V89l1.1-0.7l0.6-1.6h1.3v1.6h2.1v1.6h-2.1v3.7c0,0.3,0.1,0.5,0.2,0.7
					C318.9,94.4,319.1,94.5,319.4,94.5z"/>
				<path class="st1" d="M322.2,86.4c0-0.7,0.4-1,1.1-1s1.1,0.3,1.1,1c0,0.3-0.1,0.6-0.3,0.8c-0.2,0.2-0.5,0.3-0.9,0.3
					C322.5,87.4,322.2,87.1,322.2,86.4z M324.3,96h-2.1v-7.6h2.1V96z"/>
				<path class="st1" d="M333.6,96h-2.1v-4.5c0-0.6-0.1-1-0.3-1.2s-0.5-0.4-0.9-0.4c-0.6,0-1,0.2-1.3,0.6s-0.4,1-0.4,1.9V96h-2.1
					v-7.6h1.6l0.3,1h0.1c0.2-0.4,0.6-0.6,1-0.8c0.4-0.2,0.9-0.3,1.4-0.3c0.9,0,1.6,0.2,2,0.7s0.7,1.2,0.7,2.1V96z"/>
				<path class="st1" d="M342.4,88.4v1.1l-1.2,0.3c0.2,0.3,0.3,0.7,0.3,1.1c0,0.8-0.3,1.5-0.9,1.9c-0.6,0.5-1.4,0.7-2.4,0.7l-0.4,0
					l-0.3,0c-0.2,0.2-0.3,0.3-0.3,0.5c0,0.3,0.4,0.5,1.1,0.5h1.3c0.8,0,1.5,0.2,1.9,0.5c0.4,0.4,0.7,0.9,0.7,1.6
					c0,0.9-0.4,1.6-1.1,2.1c-0.7,0.5-1.8,0.7-3.2,0.7c-1.1,0-1.9-0.2-2.4-0.6c-0.6-0.4-0.8-0.9-0.8-1.6c0-0.5,0.1-0.8,0.4-1.2
					c0.3-0.3,0.7-0.5,1.3-0.7c-0.2-0.1-0.4-0.2-0.6-0.4s-0.2-0.4-0.2-0.7c0-0.3,0.1-0.5,0.3-0.7s0.4-0.4,0.7-0.6
					c-0.4-0.2-0.7-0.5-1-0.8c-0.2-0.4-0.4-0.8-0.4-1.4c0-0.8,0.3-1.5,0.8-1.9s1.3-0.7,2.3-0.7c0.2,0,0.5,0,0.8,0.1
					c0.3,0,0.5,0.1,0.6,0.1H342.4z M336.5,97.1c0,0.3,0.1,0.5,0.4,0.7c0.3,0.2,0.7,0.2,1.2,0.2c0.7,0,1.3-0.1,1.8-0.3
					s0.6-0.5,0.6-0.8c0-0.3-0.1-0.5-0.4-0.6s-0.6-0.2-1.2-0.2h-1.1c-0.4,0-0.7,0.1-1,0.3C336.6,96.5,336.5,96.8,336.5,97.1z
					 M337.2,90.9c0,0.4,0.1,0.7,0.3,1c0.2,0.2,0.5,0.4,0.9,0.4c0.4,0,0.7-0.1,0.9-0.4s0.3-0.6,0.3-1c0-0.9-0.4-1.4-1.1-1.4
					C337.6,89.5,337.2,89.9,337.2,90.9z"/>
				<path class="st1" d="M351.7,87.6c-0.8,0-1.4,0.3-1.9,0.9s-0.7,1.4-0.7,2.5c0,2.2,0.8,3.3,2.5,3.3c0.7,0,1.6-0.2,2.5-0.5v1.8
					c-0.8,0.3-1.7,0.5-2.7,0.5c-1.5,0-2.6-0.4-3.3-1.3S347,92.7,347,91c0-1,0.2-1.9,0.6-2.7s0.9-1.4,1.6-1.8
					c0.7-0.4,1.5-0.6,2.5-0.6c1,0,1.9,0.2,2.9,0.7l-0.7,1.7c-0.4-0.2-0.8-0.3-1.1-0.5S352.1,87.6,351.7,87.6z"/>
				<path class="st1" d="M363.1,92.2c0,1.2-0.3,2.2-1,2.9s-1.6,1.1-2.7,1.1c-0.7,0-1.4-0.2-1.9-0.5s-1-0.8-1.3-1.4s-0.5-1.3-0.5-2.1
					c0-1.2,0.3-2.2,1-2.9s1.6-1,2.7-1c0.7,0,1.4,0.2,1.9,0.5s1,0.8,1.3,1.4S363.1,91.4,363.1,92.2z M357.9,92.2
					c0,0.8,0.1,1.3,0.4,1.7c0.2,0.4,0.7,0.6,1.2,0.6c0.6,0,1-0.2,1.2-0.6c0.2-0.4,0.4-1,0.4-1.7c0-0.8-0.1-1.3-0.4-1.7
					s-0.6-0.6-1.2-0.6c-0.6,0-1,0.2-1.2,0.6S357.9,91.4,357.9,92.2z"/>
				<path class="st1" d="M370.2,93.7c0,0.8-0.3,1.4-0.8,1.8c-0.5,0.4-1.4,0.6-2.4,0.6c-0.6,0-1,0-1.4-0.1c-0.4-0.1-0.8-0.2-1.1-0.3
					V94c0.4,0.2,0.8,0.3,1.3,0.5c0.5,0.1,0.9,0.2,1.3,0.2c0.8,0,1.1-0.2,1.1-0.7c0-0.2,0-0.3-0.2-0.4s-0.3-0.2-0.5-0.3
					s-0.6-0.3-1-0.5c-0.6-0.2-1-0.5-1.3-0.7c-0.3-0.2-0.5-0.5-0.6-0.7c-0.1-0.3-0.2-0.6-0.2-1c0-0.7,0.3-1.2,0.8-1.6
					c0.5-0.4,1.3-0.6,2.2-0.6c0.9,0,1.8,0.2,2.7,0.6l-0.6,1.5c-0.4-0.2-0.7-0.3-1.1-0.4s-0.7-0.2-1-0.2c-0.6,0-0.9,0.2-0.9,0.5
					c0,0.2,0.1,0.3,0.3,0.5c0.2,0.1,0.6,0.3,1.3,0.6c0.6,0.2,1,0.5,1.3,0.7s0.5,0.5,0.6,0.7S370.2,93.4,370.2,93.7z"/>
				<path class="st1" d="M375,94.5c0.4,0,0.8-0.1,1.3-0.2v1.6c-0.5,0.2-1.2,0.3-1.9,0.3c-0.8,0-1.4-0.2-1.8-0.6
					c-0.4-0.4-0.6-1.1-0.6-1.9v-3.7h-1V89l1.1-0.7l0.6-1.6h1.3v1.6h2.1v1.6h-2.1v3.7c0,0.3,0.1,0.5,0.2,0.7
					C374.6,94.4,374.8,94.5,375,94.5z"/>
			</g>
			<g>
				<path class="st1" d="M442.2,93.2c0,0.9-0.3,1.6-1,2.1c-0.7,0.5-1.6,0.8-2.7,0.8c-1.1,0-2-0.2-2.8-0.6v-2
					c0.7,0.3,1.2,0.5,1.7,0.6c0.5,0.1,0.9,0.2,1.3,0.2c0.5,0,0.8-0.1,1.1-0.3c0.2-0.2,0.4-0.4,0.4-0.8c0-0.2-0.1-0.4-0.2-0.5
					s-0.3-0.3-0.5-0.4c-0.2-0.1-0.6-0.4-1.3-0.7c-0.6-0.3-1.1-0.6-1.4-0.8s-0.5-0.6-0.7-0.9s-0.3-0.8-0.3-1.2c0-0.9,0.3-1.6,0.9-2.1
					c0.6-0.5,1.4-0.8,2.5-0.8c0.5,0,1,0.1,1.5,0.2c0.5,0.1,1,0.3,1.5,0.5l-0.7,1.6c-0.5-0.2-1-0.4-1.3-0.5c-0.3-0.1-0.7-0.1-1-0.1
					c-0.4,0-0.7,0.1-0.9,0.3s-0.3,0.4-0.3,0.7c0,0.2,0,0.3,0.1,0.5s0.2,0.3,0.4,0.4c0.2,0.1,0.6,0.4,1.3,0.7
					c0.9,0.4,1.6,0.9,1.9,1.3S442.2,92.6,442.2,93.2z"/>
				<path class="st1" d="M448,96.1c-0.9,0-1.6-0.3-2.1-1h-0.1c0.1,0.6,0.1,1,0.1,1.1v3.1h-2.1v-11h1.7l0.3,1h0.1
					c0.5-0.8,1.2-1.1,2.2-1.1c0.9,0,1.6,0.3,2.1,1s0.8,1.7,0.8,2.9c0,0.8-0.1,1.5-0.4,2.1c-0.2,0.6-0.6,1.1-1,1.4
					S448.6,96.1,448,96.1z M447.4,89.9c-0.5,0-0.9,0.2-1.1,0.5s-0.4,0.8-0.4,1.6v0.2c0,0.8,0.1,1.4,0.4,1.8c0.2,0.4,0.6,0.5,1.2,0.5
					c0.9,0,1.4-0.8,1.4-2.3c0-0.8-0.1-1.3-0.3-1.7C448.2,90.1,447.9,89.9,447.4,89.9z"/>
				<path class="st1" d="M456.1,96.1c-1.2,0-2.2-0.3-2.9-1s-1-1.6-1-2.9c0-1.3,0.3-2.3,1-3c0.6-0.7,1.5-1,2.7-1
					c1.1,0,1.9,0.3,2.5,0.9s0.9,1.5,0.9,2.5v1h-4.9c0,0.6,0.2,1.1,0.5,1.4s0.8,0.5,1.4,0.5c0.5,0,0.9,0,1.3-0.1s0.8-0.2,1.3-0.5v1.6
					c-0.4,0.2-0.8,0.3-1.2,0.4C457.2,96.1,456.7,96.1,456.1,96.1z M455.8,89.7c-0.4,0-0.8,0.1-1,0.4s-0.4,0.7-0.4,1.2h2.9
					c0-0.5-0.1-0.9-0.4-1.2S456.3,89.7,455.8,89.7z"/>
				<path class="st1" d="M464.4,96.1c-1.2,0-2.2-0.3-2.9-1s-1-1.6-1-2.9c0-1.3,0.3-2.3,1-3c0.6-0.7,1.5-1,2.7-1
					c1.1,0,1.9,0.3,2.5,0.9s0.9,1.5,0.9,2.5v1h-4.9c0,0.6,0.2,1.1,0.5,1.4s0.8,0.5,1.4,0.5c0.5,0,0.9,0,1.3-0.1s0.8-0.2,1.3-0.5v1.6
					c-0.4,0.2-0.8,0.3-1.2,0.4C465.5,96.1,465,96.1,464.4,96.1z M464.1,89.7c-0.4,0-0.8,0.1-1,0.4s-0.4,0.7-0.4,1.2h2.9
					c0-0.5-0.1-0.9-0.4-1.2S464.5,89.7,464.1,89.7z"/>
				<path class="st1" d="M471.6,96.1c-0.9,0-1.6-0.3-2.1-1c-0.5-0.7-0.8-1.7-0.8-2.9c0-1.3,0.3-2.2,0.8-2.9c0.5-0.7,1.2-1,2.2-1
					c1,0,1.7,0.4,2.2,1.1h0.1c-0.1-0.6-0.2-1.1-0.2-1.5v-2.4h2.1V96h-1.6l-0.4-1h-0.1C473.3,95.8,472.6,96.1,471.6,96.1z
					 M472.4,94.5c0.5,0,0.9-0.2,1.2-0.5c0.2-0.3,0.4-0.8,0.4-1.6v-0.2c0-0.8-0.1-1.4-0.4-1.8c-0.3-0.4-0.7-0.5-1.2-0.5
					c-0.5,0-0.8,0.2-1.1,0.6c-0.3,0.4-0.4,1-0.4,1.7s0.1,1.3,0.4,1.7S471.9,94.5,472.4,94.5z"/>
				<path class="st1" d="M486.3,86l-3.7,10h-1.9l3.7-10H486.3z"/>
				<path class="st1" d="M497.4,96l-0.7-2.4H493l-0.7,2.4H490l3.5-10h2.6l3.5,10H497.4z M496.2,91.8c-0.7-2.2-1-3.4-1.1-3.7
					c-0.1-0.3-0.1-0.5-0.2-0.7c-0.2,0.6-0.6,2-1.3,4.3H496.2z"/>
				<path class="st1" d="M503.9,96.1c-2.4,0-3.6-1.3-3.6-3.9c0-1.3,0.3-2.3,1-3s1.6-1,2.8-1c0.9,0,1.7,0.2,2.4,0.5l-0.6,1.6
					c-0.3-0.1-0.6-0.2-0.9-0.3s-0.6-0.1-0.8-0.1c-1.1,0-1.6,0.8-1.6,2.3c0,1.5,0.5,2.2,1.6,2.2c0.4,0,0.8-0.1,1.1-0.2s0.7-0.3,1-0.5
					v1.8c-0.3,0.2-0.7,0.4-1,0.4C504.8,96.1,504.4,96.1,503.9,96.1z"/>
				<path class="st1" d="M511.1,96.1c-2.4,0-3.6-1.3-3.6-3.9c0-1.3,0.3-2.3,1-3s1.6-1,2.8-1c0.9,0,1.7,0.2,2.4,0.5l-0.6,1.6
					c-0.3-0.1-0.6-0.2-0.9-0.3s-0.6-0.1-0.8-0.1c-1.1,0-1.6,0.8-1.6,2.3c0,1.5,0.5,2.2,1.6,2.2c0.4,0,0.8-0.1,1.1-0.2s0.7-0.3,1-0.5
					v1.8c-0.3,0.2-0.7,0.4-1,0.4C512,96.1,511.6,96.1,511.1,96.1z"/>
				<path class="st1" d="M518.6,96.1c-1.2,0-2.2-0.3-2.9-1s-1-1.6-1-2.9c0-1.3,0.3-2.3,1-3c0.6-0.7,1.5-1,2.7-1
					c1.1,0,1.9,0.3,2.5,0.9s0.9,1.5,0.9,2.5v1h-4.9c0,0.6,0.2,1.1,0.5,1.4s0.8,0.5,1.4,0.5c0.5,0,0.9,0,1.3-0.1s0.8-0.2,1.3-0.5v1.6
					c-0.4,0.2-0.8,0.3-1.2,0.4C519.7,96.1,519.2,96.1,518.6,96.1z M518.3,89.7c-0.4,0-0.8,0.1-1,0.4s-0.4,0.7-0.4,1.2h2.9
					c0-0.5-0.1-0.9-0.4-1.2S518.8,89.7,518.3,89.7z"/>
				<path class="st1" d="M528.8,93.7c0,0.8-0.3,1.4-0.8,1.8c-0.5,0.4-1.4,0.6-2.4,0.6c-0.6,0-1,0-1.4-0.1c-0.4-0.1-0.8-0.2-1.1-0.3
					V94c0.4,0.2,0.8,0.3,1.3,0.5c0.5,0.1,0.9,0.2,1.3,0.2c0.8,0,1.1-0.2,1.1-0.7c0-0.2,0-0.3-0.2-0.4s-0.3-0.2-0.5-0.3
					s-0.6-0.3-1-0.5c-0.6-0.2-1-0.5-1.3-0.7c-0.3-0.2-0.5-0.5-0.6-0.7c-0.1-0.3-0.2-0.6-0.2-1c0-0.7,0.3-1.2,0.8-1.6
					c0.5-0.4,1.3-0.6,2.2-0.6c0.9,0,1.8,0.2,2.7,0.6l-0.6,1.5c-0.4-0.2-0.7-0.3-1.1-0.4s-0.7-0.2-1-0.2c-0.6,0-0.9,0.2-0.9,0.5
					c0,0.2,0.1,0.3,0.3,0.5c0.2,0.1,0.6,0.3,1.3,0.6c0.6,0.2,1,0.5,1.3,0.7s0.5,0.5,0.6,0.7S528.8,93.4,528.8,93.7z"/>
				<path class="st1" d="M535.7,93.7c0,0.8-0.3,1.4-0.8,1.8c-0.5,0.4-1.4,0.6-2.4,0.6c-0.6,0-1,0-1.4-0.1c-0.4-0.1-0.8-0.2-1.1-0.3
					V94c0.4,0.2,0.8,0.3,1.3,0.5c0.5,0.1,0.9,0.2,1.3,0.2c0.8,0,1.1-0.2,1.1-0.7c0-0.2,0-0.3-0.2-0.4s-0.3-0.2-0.5-0.3
					s-0.6-0.3-1-0.5c-0.6-0.2-1-0.5-1.3-0.7c-0.3-0.2-0.5-0.5-0.6-0.7c-0.1-0.3-0.2-0.6-0.2-1c0-0.7,0.3-1.2,0.8-1.6
					c0.5-0.4,1.3-0.6,2.2-0.6c0.9,0,1.8,0.2,2.7,0.6l-0.6,1.5c-0.4-0.2-0.7-0.3-1.1-0.4s-0.7-0.2-1-0.2c-0.6,0-0.9,0.2-0.9,0.5
					c0,0.2,0.1,0.3,0.3,0.5c0.2,0.1,0.6,0.3,1.3,0.6c0.6,0.2,1,0.5,1.3,0.7s0.5,0.5,0.6,0.7S535.7,93.4,535.7,93.7z"/>
				<path class="st1" d="M537.3,86.4c0-0.7,0.4-1,1.1-1s1.1,0.3,1.1,1c0,0.3-0.1,0.6-0.3,0.8c-0.2,0.2-0.5,0.3-0.9,0.3
					C537.7,87.4,537.3,87.1,537.3,86.4z M539.5,96h-2.1v-7.6h2.1V96z"/>
				<path class="st1" d="M545.9,88.2c0.9,0,1.6,0.4,2.1,1.1s0.8,1.7,0.8,2.9c0,1.3-0.3,2.2-0.8,2.9c-0.5,0.7-1.2,1-2.2,1
					c-0.9,0-1.6-0.3-2.1-1h-0.1l-0.3,0.8h-1.6V85.4h2.1v2.5c0,0.3,0,0.8-0.1,1.5h0.1C544.2,88.6,544.9,88.2,545.9,88.2z M545.2,89.9
					c-0.5,0-0.9,0.2-1.1,0.5s-0.4,0.8-0.4,1.6v0.2c0,0.8,0.1,1.4,0.4,1.8c0.2,0.4,0.6,0.5,1.2,0.5c0.4,0,0.8-0.2,1-0.6
					c0.3-0.4,0.4-1,0.4-1.7s-0.1-1.3-0.4-1.7S545.7,89.9,545.2,89.9z"/>
				<path class="st1" d="M550.4,86.4c0-0.7,0.4-1,1.1-1s1.1,0.3,1.1,1c0,0.3-0.1,0.6-0.3,0.8c-0.2,0.2-0.5,0.3-0.9,0.3
					C550.8,87.4,550.4,87.1,550.4,86.4z M552.6,96h-2.1v-7.6h2.1V96z"/>
				<path class="st1" d="M556.9,96h-2.1V85.4h2.1V96z"/>
				<path class="st1" d="M559,86.4c0-0.7,0.4-1,1.1-1s1.1,0.3,1.1,1c0,0.3-0.1,0.6-0.3,0.8c-0.2,0.2-0.5,0.3-0.9,0.3
					C559.3,87.4,559,87.1,559,86.4z M561.1,96H559v-7.6h2.1V96z"/>
				<path class="st1" d="M566.5,94.5c0.4,0,0.8-0.1,1.3-0.2v1.6c-0.5,0.2-1.2,0.3-1.9,0.3c-0.8,0-1.4-0.2-1.8-0.6
					c-0.4-0.4-0.6-1.1-0.6-1.9v-3.7h-1V89l1.1-0.7l0.6-1.6h1.3v1.6h2.1v1.6h-2.1v3.7c0,0.3,0.1,0.5,0.2,0.7
					C566,94.4,566.3,94.5,566.5,94.5z"/>
				<path class="st1" d="M568.3,88.4h2.3l1.4,4.3c0.1,0.4,0.2,0.8,0.3,1.3h0c0-0.5,0.1-0.9,0.3-1.3l1.4-4.3h2.2L573,97
					c-0.3,0.8-0.7,1.4-1.3,1.8c-0.5,0.4-1.2,0.6-1.9,0.6c-0.4,0-0.7,0-1.1-0.1v-1.7c0.3,0.1,0.5,0.1,0.8,0.1c0.4,0,0.7-0.1,1-0.3
					c0.3-0.2,0.5-0.6,0.6-1l0.1-0.4L568.3,88.4z"/>
			</g>
			<rect x="244" y="82" class="st3" width="19" height="19"/>
			<rect x="405" y="82" class="st1" width="19" height="19"/>
		</g>
	</g>
</g>
</svg>
