<?xml version="1.0" encoding="utf-8"?>
<!-- Generator: Adobe Illustrator 22.1.0, SVG Export Plug-In . SVG Version: 6.00 Build 0)  -->
<svg version="1.1" id="Warstwa_1" xmlns="http://www.w3.org/2000/svg" xmlns:xlink="http://www.w3.org/1999/xlink" x="0px" y="0px"
	 viewBox="0 0 905 476" style="enable-background:new 0 0 905 476;" xml:space="preserve">
<style type="text/css">
	.st0{fill:#000000;}
</style>
<g>
	<path class="st0" d="M821.6,103.8l78-96.8c1-1.2,0.1-3-1.5-3H756.7C584,4,478,102.1,478,278.8v193.3c0,1.4,1.4,2.3,2.7,1.7
		c149.6-68.7,257-201.8,273.7-223.4c1-1.2,0.1-3-1.5-3l-114,0.4v-21.3c0-44.8,36.3-81.1,81.1-81.1h14.8
		C768.6,145.3,800.4,130.1,821.6,103.8z"/>
	<path class="st0" d="M83.9,103.8L6,7C5,5.8,5.9,4,7.5,4h141.3c172.7,0,278.7,98.1,278.7,274.8v193.3c0,1.4-1.4,2.3-2.7,1.7
		C274.8,405,167.8,272,151,250.4c-1-1.2-0.1-3,1.5-3l114,0.4v-21.3c0-44.8-36.3-81.1-81.1-81.1h-14.8
		C136.9,145.3,105.1,130.1,83.9,103.8z"/>
</g>
</svg>
