<?xml version="1.0" encoding="utf-8"?>
<!-- Generator: Adobe Illustrator 22.1.0, SVG Export Plug-In . SVG Version: 6.00 Build 0)  -->
<svg version="1.1" id="Warstwa_1" xmlns="http://www.w3.org/2000/svg" xmlns:xlink="http://www.w3.org/1999/xlink" x="0px" y="0px"
	 viewBox="0 0 3500 1024" style="enable-background:new 0 0 3500 1024;" xml:space="preserve">
<style type="text/css">
	.st0{fill:#FFFFFF;}
</style>
<g>
	<path class="st0" d="M579.7,528.5v-16.2h-245v-45.2c0-15.5,9.3-25.2,24.3-25.2h182.7c21.7,0,39.4-17.7,39.4-39.4v-21.3H318.6
		c-31.9,0-45.5,13.9-45.5,46.4v245.3h61.6v-105h205.6C562,567.9,579.7,550.2,579.7,528.5z"/>
	<path class="st0" d="M947.8,615H741c-14.3,0-24.2-3.2-30.3-9.9c-5.9-6.4-8.8-16.6-8.8-31.1V420.6c0-21.7-17.7-39.4-39.4-39.4h-22.7
		v200.7c0,16,1.6,30.1,4.7,42c2.9,11,7.7,20.2,14.3,27.3l0,0c6.5,7,15.5,12.4,26.8,16c12,3.8,27.2,5.7,45.2,5.7h177.6
		c21.7,0,39.4-17.7,39.4-39.4L947.8,615L947.8,615z"/>
	<path class="st0" d="M1333.1,381.2h-22.7c-21.7,0-39.4,17.7-39.4,39.4v153.9c0,25.8-15.5,40.5-42.4,40.5H1098
		c-26.4,0-41.5-14.8-41.5-40.5V420.6c0-21.7-17.7-39.4-39.4-39.4h-22.7v202.6c0,16.4,1.9,30.5,5.5,41.9c3.4,10.6,8.9,19.5,16.2,26.3
		c7.5,6.9,17.4,12.2,29.5,15.5c12.9,3.6,28.9,5.4,47.7,5.4h140.9c36.2,0,62.1-7,76.9-20.9c14.6-13.7,22-36.6,22-68.3L1333.1,381.2
		L1333.1,381.2z"/>
	<path class="st0" d="M2053,624.1l19.7,44.8c0.6,1.4,1.1,2.7,1.5,4h70.5l-112.5-247.2c-8-17.4-18.6-30.5-31.5-38.9
		c-12.8-8.3-29.3-12.6-48.9-12.6c-20.3,0-37,4.2-49.6,12.6c-12.7,8.4-23.3,21.5-31.3,39L1759.3,673h72.3l1.4-4.2l19.3-44.6
		L2053,624.1L2053,624.1z M1927.9,449.2c2.5-6,6.2-10.4,10.9-13.1c8.6-4.8,19.5-4.7,27.7,0.5c4.4,2.8,7.9,6.9,10.3,12.3l55.2,128.4
		h-158.7L1927.9,449.2z"/>
	<path class="st0" d="M2524.8,381.2h-22.7c-21.7,0-39.4,17.7-39.4,39.4v153.9c0,25.8-15.5,40.5-42.4,40.5h-130.6
		c-26.4,0-41.5-14.8-41.5-40.5V420.6c0-21.7-17.7-39.4-39.4-39.4h-22.7v202.6c0,16.4,1.9,30.5,5.5,41.9c3.4,10.6,8.9,19.5,16.2,26.3
		c7.5,6.9,17.4,12.2,29.5,15.5c12.9,3.6,28.9,5.4,47.7,5.4h140.8c36.2,0,62.1-7,76.9-20.9c14.6-13.7,22-36.6,22-68.3L2524.8,381.2
		L2524.8,381.2z"/>
	<path class="st0" d="M2916.6,381.2h-298.4c-21.7,0-39.4,17.7-39.4,39.4v21.3h138.1v231h62.1v-231h98.2c21.7,0,39.4-17.7,39.4-39.4
		L2916.6,381.2L2916.6,381.2z"/>
	<path class="st0" d="M3283.5,625.4c11.7-12.9,21-27.8,27.6-44.4c6.6-16.6,9.9-34.7,9.9-54c0-21.2-4.2-41.2-12.5-59.5
		c-8.3-18.4-20-34.5-34.6-48c-12.8-12-28.3-21.5-45.9-28.2c-17.7-6.8-38.8-10.2-62.7-10.2h-66c-23.9,0-45,3.4-62.7,10.2
		c-17.6,6.7-33,16.2-45.8,28.2c-14.7,13.5-26.3,29.7-34.6,48s-12.5,38.3-12.5,59.5c0,19.3,3.3,37.4,9.9,54
		c6.6,16.6,15.9,31.6,27.6,44.5c13.4,14.6,30,26.2,49.2,34.7s42.4,12.8,68.9,12.8h66c26.5,0,49.7-4.3,68.9-12.8
		C3253.5,651.7,3270.1,640,3283.5,625.4z M3253.4,558.9c-3.9,9.8-9.5,18.6-16.7,26.1c-7.8,8.5-17.7,15.3-29.3,20.3
		c-11.5,4.9-25.7,7.4-42,7.4h-66c-16.3,0-30.5-2.5-42.1-7.4c-11.7-4.9-21.6-11.8-29.5-20.4c-7-7.4-12.6-16.2-16.6-26
		c-3.9-9.8-5.9-20.4-5.9-31.4c0-12.1,2.4-23.7,7.3-34.4c4.8-10.6,11.3-19.9,19.5-27.7c7.9-7.2,17.3-13,27.8-17.2
		c10.6-4.2,23.9-6.4,39.5-6.4h66c15.6,0,28.9,2.1,39.5,6.4c10.5,4.2,19.8,9.9,27.6,17c8.3,8,14.9,17.3,19.7,27.9
		c4.8,10.7,7.3,22.3,7.3,34.4C3259.4,538.5,3257.4,549.1,3253.4,558.9z"/>
	<path class="st0" d="M1410.4,467.5c-8.3,18.3-12.5,38.3-12.5,59.5c0,19.3,3.3,37.4,9.9,54c6.6,16.6,15.9,31.6,27.6,44.5
		c13.4,14.6,30,26.2,49.2,34.7s42.4,12.8,68.9,12.8H1673c21.7,0,39.4-17.7,39.4-39.4V523.4h-0.5v-19.6h-157.6v20.6
		c0,21.7,17.7,39.4,39.4,39.4h57.5v32.5c0,10.6-6.9,17.8-17.3,17.8h-80.4c-16.5,0-30.8-2.8-42.4-8.3c-11.5-5.4-21.3-12.5-29.1-20.9
		c-7-7.4-12.6-16.1-16.6-26c-3.9-9.8-5.9-20.3-5.9-31.4c0-12.1,2.4-23.7,7.3-34.4c4.8-10.6,11.3-19.9,19.4-27.7
		c8-7.2,17.3-13,27.8-17.2c10.6-4.2,23.9-6.4,39.5-6.4h119c21.7,0,39.4-17.7,39.4-39.4v-21.3h-158.4c-23.9,0-45,3.4-62.7,10.2
		c-17.6,6.7-33,16.2-45.8,28.2C1430.4,433,1418.7,449.2,1410.4,467.5z"/>
</g>
</svg>
