<?xml version="1.0" encoding="utf-8"?>
<!-- Generator: Adobe Illustrator 22.1.0, SVG Export Plug-In . SVG Version: 6.00 Build 0)  -->
<svg version="1.1" id="Layer_1" xmlns="http://www.w3.org/2000/svg" xmlns:xlink="http://www.w3.org/1999/xlink" x="0px" y="0px"
	 viewBox="0 0 269.4 172.6" style="enable-background:new 0 0 269.4 172.6;" xml:space="preserve">
<style type="text/css">
	.st0{fill:url(#SVGID_1_);}
</style>
<g id="Layer_2_1_">
</g>
<linearGradient id="SVGID_1_" gradientUnits="userSpaceOnUse" x1="46.7406" y1="86.3742" x2="227.6127" y2="86.3742">
	<stop  offset="0" style="stop-color:#00A4F3"/>
	<stop  offset="1" style="stop-color:#00CBEF"/>
</linearGradient>
<path class="st0" d="M227,40.2c-0.4-0.3-0.9-0.5-1.4-0.4L144,47.4c-0.9,0.1-1.5,0.9-1.5,1.7v8.2c-1.5-0.4-3.1-0.7-4.8-0.7
	c-2.1,0-4.1,0.3-5.8,0.9v-8.4c0-0.9-0.6-1.6-1.5-1.7l-81.6-7.6c-0.5-0.1-1,0.1-1.4,0.4c-0.4,0.3-0.6,0.8-0.6,1.3v61.2
	c0,0.5,0.2,1,0.6,1.3c0.3,0.3,0.7,0.5,1.2,0.5c0.1,0,0.1,0,0.2,0l45.2-4.6v10.7l-10,1c-1,0.1-1.7,1-1.6,1.9c0.1,0.9,0.9,1.6,1.7,1.6
	c0.1,0,0.1,0,0.2,0l23.2-2.4c1-0.1,1.7-1,1.6-1.9c-0.1-1-1-1.7-1.9-1.6l-9.7,1V99.5l24.8-2.5c0.2,0.4,0.5,0.8,0.7,1.2
	c1.2,1.8,2,3.1,2,7.5c0,8.5-5.3,9.1-13.9,9.1c-9.5,0-11.5,15.6-11.6,16.3c-0.1,1,0.6,1.8,1.5,1.9c0.1,0,0.1,0,0.2,0
	c0.9,0,1.6-0.7,1.7-1.5c0-0.1,1.8-13.2,8.2-13.2c7.4,0,17.4,0,17.4-12.6c0-5.2-1.1-7.2-2.4-9.1c-0.1-0.1-0.2-0.2-0.2-0.4
	c-0.5-0.8-1.1-1.7-1.6-3c-1-2.5-1.8-6.6-1.8-14.9c0-5.6,2-11.3,6-14.7v0c1-0.9,2.2-1.7,3.5-2.2c1.7-0.8,3.7-1.2,5.8-1.2
	c1.8,0,3.4,0.3,4.8,0.9v0c1.3,0.5,2.5,1.2,3.5,2.1c4.1,3.5,6.1,9.7,6.1,15.5c0,8.1-0.9,12-2,14.6c-0.5,1.1-1,2-1.5,2.8
	c-0.1,0.2-0.2,0.4-0.3,0.6c-1.2,2-2.2,4.1-2.2,8.8c0,12.8,10.1,12.8,16.1,12.8c5.1,0,9.4,6.8,9.4,12.3c0,1,0.8,1.8,1.8,1.8
	s1.8-0.8,1.8-1.8c0-7.3-5.6-15.8-12.9-15.8c-7.4,0-12.6-0.7-12.6-9.3c0-4.1,0.9-5.5,2.1-7.5c0.2-0.3,0.3-0.6,0.5-0.9l24.9,2.6v10.7
	l-9.7-1c-1-0.1-1.8,0.6-1.9,1.6c-0.1,1,0.6,1.8,1.6,1.9l23.2,2.4c0.1,0,0.1,0,0.2,0c0.9,0,1.6-0.7,1.7-1.6c0.1-1-0.6-1.8-1.6-1.9
	l-10-1V99.8l45.2,4.6c0.1,0,0.1,0,0.2,0c0.4,0,0.8-0.2,1.2-0.5c0.4-0.3,0.6-0.8,0.6-1.3V41.6C227.6,41,227.4,40.6,227,40.2z
	 M128.4,59.1L128.4,59.1c-6.3,3.9-9.5,11.5-9.5,19.1c0,7.9,0.8,12.4,1.7,15.3l-70.4,7.2V43.6l78.1,7V59.1z M224.1,100.8l-70.4-7.2
	c1.1-2.9,1.9-7.2,1.9-15c0-5.7-1.6-11-4.4-15c-1.5-2-3.2-3.6-5.2-4.8v-8.2l78.1-7V100.8z"/>
</svg>
