<?xml version="1.0" encoding="utf-8"?>
<!-- Generator: Adobe Illustrator 22.1.0, SVG Export Plug-In . SVG Version: 6.00 Build 0)  -->
<svg version="1.1" id="Layer_1" xmlns="http://www.w3.org/2000/svg" xmlns:xlink="http://www.w3.org/1999/xlink" x="0px" y="0px"
	 viewBox="0 0 269.4 172.6" style="enable-background:new 0 0 269.4 172.6;" xml:space="preserve">
<style type="text/css">
	.st0{fill:url(#SVGID_1_);}
	.st1{fill:url(#SVGID_2_);}
	.st2{fill:url(#SVGID_3_);}
	.st3{fill:url(#SVGID_4_);}
</style>
<g id="Layer_2_1_">
</g>
<g>
	<linearGradient id="SVGID_1_" gradientUnits="userSpaceOnUse" x1="101.381" y1="68.1118" x2="161.4428" y2="68.1118">
		<stop  offset="0" style="stop-color:#00A4F3"/>
		<stop  offset="1" style="stop-color:#00CBEF"/>
	</linearGradient>
	<path class="st0" d="M101.4,68.1c0,1.1,0.9,2,2,2h56.1c1.1,0,2-0.9,2-2s-0.9-2-2-2h-56.1C102.3,66.1,101.4,67,101.4,68.1z"/>
	<linearGradient id="SVGID_2_" gradientUnits="userSpaceOnUse" x1="165.41" y1="68.1118" x2="176.3608" y2="68.1118">
		<stop  offset="0" style="stop-color:#00A4F3"/>
		<stop  offset="1" style="stop-color:#00CBEF"/>
	</linearGradient>
	<path class="st1" d="M165.4,68.1c0,1.1,0.9,2,2,2h7c1.1,0,2-0.9,2-2s-0.9-2-2-2h-7C166.3,66.1,165.4,67,165.4,68.1z"/>
	<linearGradient id="SVGID_3_" gradientUnits="userSpaceOnUse" x1="65.3545" y1="68.1114" x2="214.3698" y2="68.1114">
		<stop  offset="0" style="stop-color:#00A4F3"/>
		<stop  offset="1" style="stop-color:#00CBEF"/>
	</linearGradient>
	<path class="st2" d="M85.5,46.3c-8.7,0-16.5,5.1-20,13.1c-0.3,0.6-0.2,1.3,0.2,1.9c0.4,0.6,1,0.9,1.7,0.9h19.8c3.3,0,6,2.7,6,6
		s-2.7,6-6,6H67.3c-1.1,0-2,0.9-2,2c0,0.3,0.1,0.5,0.2,0.8c3.4,7.7,10.9,12.8,19.3,13.1c8.4,0.3,16.3-4.4,20.1-11.9h69.8
		c3.8,7.5,11.7,12.1,20.1,11.9c8.4-0.3,16-5.3,19.3-13.1c0.3-0.6,0.2-1.3-0.2-1.9c-0.4-0.6-1-0.9-1.7-0.9h-18.2c-3.3,0-6-2.7-6-6
		s2.7-6,6-6h18.2c0.7,0,1.3-0.3,1.7-0.9c0.4-0.6,0.4-1.3,0.2-1.9c-3.4-7.7-10.9-12.8-19.3-13.1c-8.4-0.3-16.3,4.4-20.1,11.9h-69.8
		C101.2,50.9,93.7,46.3,85.5,46.3z M177.9,61c2.6-6,8.3-10.1,14.8-10.6c6.5-0.6,12.8,2.4,16.4,7.9h-14.8c-5.5,0-9.9,4.4-9.9,9.9
		s4.4,9.9,9.9,9.9H209c-3.6,5.4-9.9,8.4-16.4,7.9c-6.5-0.6-12.2-4.7-14.8-10.6c-0.3-0.7-1-1.2-1.8-1.2h-72.4c-0.8,0-1.5,0.5-1.8,1.2
		c-2.6,6-8.3,10.1-14.8,10.6c-6.5,0.6-12.8-2.4-16.4-7.9h16.5c5.5,0,9.9-4.4,9.9-9.9s-4.4-9.9-9.9-9.9H70.7
		c3.6-5.4,9.9-8.4,16.4-7.9c6.5,0.6,12.2,4.7,14.8,10.6c0.3,0.7,1,1.2,1.8,1.2H176C176.8,62.2,177.5,61.7,177.9,61z"/>
	<linearGradient id="SVGID_4_" gradientUnits="userSpaceOnUse" x1="65.3642" y1="110.6855" x2="214.3728" y2="110.6855">
		<stop  offset="0" style="stop-color:#00A4F3"/>
		<stop  offset="1" style="stop-color:#00CBEF"/>
	</linearGradient>
	<path class="st3" d="M111,96.8H74.2c-2.6,0-4.8,1.6-5.6,4.1l-3.1,9.2c-0.1,0.4-0.1,0.8,0,1.2l3.1,9.2c0.8,2.4,3.1,4.1,5.6,4.1H111
		c1.1,0,2-0.9,2-2v-2.7l5.1,2.5c0,0,0,0,0.1,0c0,0,0.1,0,0.1,0c0.2,0.1,0.5,0.1,0.7,0.1h11.9c1.1,0,2-0.9,2-2v-4h65.7
		c0.2,0,0.4,0,0.5-0.1l13.9-4c0.9-0.2,1.4-1,1.4-1.9s-0.6-1.7-1.4-1.9l-13.9-4c-0.2-0.1-0.4-0.1-0.5-0.1h-65.7v-4c0-1.1-0.9-2-2-2
		h-11.9c-0.2,0-0.5,0.1-0.7,0.1c0,0-0.1,0-0.1,0c0,0,0,0-0.1,0l-5.1,2.5v-2.7C113,97.7,112.1,96.8,111,96.8z M74.2,120.6
		c-0.9,0-1.6-0.5-1.9-1.4l-2.2-6.6H109v7.9H74.2z M198.2,108.7l6.9,2l-6.9,2h-65.4v-4H198.2z M128.8,102.8v15.9h-7.9v-15.9H128.8z
		 M116.9,104v13.4l-4-2V106L116.9,104z M109,100.8v7.9H70.1l2.2-6.6c0.3-0.8,1-1.4,1.9-1.4H109z"/>
</g>
</svg>
