<?xml version="1.0" encoding="utf-8"?>
<!-- Generator: Adobe Illustrator 22.1.0, SVG Export Plug-In . SVG Version: 6.00 Build 0)  -->
<svg version="1.1" id="Layer_2" xmlns="http://www.w3.org/2000/svg" xmlns:xlink="http://www.w3.org/1999/xlink" x="0px" y="0px"
	 viewBox="0 0 1063.4 36" style="enable-background:new 0 0 1063.4 36;" xml:space="preserve">
<style type="text/css">
	.st0{fill:url(#SVGID_1_);}
	.st1{fill:#E8EFF2;}
	.st2{fill:#00A3F2;}
	.st3{fill:#FFFFFF;}
	.st4{fill:#00B5F1;}
	.st5{fill:#00C8EF;}
	.st6{fill:#00CBEF;}
</style>
<g>
	<linearGradient id="SVGID_1_" gradientUnits="userSpaceOnUse" x1="20.4256" y1="18" x2="492.4256" y2="18">
		<stop  offset="0" style="stop-color:#00A4F3"/>
		<stop  offset="1" style="stop-color:#00CBEF"/>
	</linearGradient>
	<rect x="20.4" y="16" class="st0" width="472" height="4"/>
	<rect x="525.4" y="16" class="st1" width="538" height="4"/>
	<g>
		<circle class="st2" cx="11.8" cy="18" r="11.8"/>
		<path class="st3" d="M7.3,18.5c-0.1-0.1-0.1-0.2-0.1-0.3c0-0.1,0-0.2,0.1-0.3l0.6-0.6c0.2-0.2,0.4-0.2,0.6,0l0,0l2.2,1.8
			c0.1,0.1,0.2,0.1,0.3,0l4.1-4.6h0l0,0c0.2-0.2,0.4-0.2,0.6,0l0.6,0.6c0.2,0.2,0.2,0.4,0,0.6l0,0l-5.2,5.8
			c-0.1,0.1-0.2,0.1-0.3,0.1c-0.1,0-0.2,0-0.3-0.1l-3.2-2.9L7.3,18.5L7.3,18.5z"/>
	</g>
	<g>
		<circle class="st4" cx="228.8" cy="18" r="11.8"/>
		<path class="st3" d="M224.3,18.5c-0.1-0.1-0.1-0.2-0.1-0.3c0-0.1,0-0.2,0.1-0.3l0.6-0.6c0.2-0.2,0.4-0.2,0.6,0l0,0l2.2,1.8
			c0.1,0.1,0.2,0.1,0.3,0l4.1-4.6h0l0,0c0.2-0.2,0.4-0.2,0.6,0l0.6,0.6c0.2,0.2,0.2,0.4,0,0.6l0,0l-5.2,5.8
			c-0.1,0.1-0.2,0.1-0.3,0.1c-0.1,0-0.2,0-0.3-0.1l-3.2-2.9L224.3,18.5L224.3,18.5z"/>
	</g>
	<g>
		<circle class="st5" cx="445.8" cy="18" r="11.8"/>
		<path class="st3" d="M441.3,18.5c-0.1-0.1-0.1-0.2-0.1-0.3c0-0.1,0-0.2,0.1-0.3l0.6-0.6c0.2-0.2,0.4-0.2,0.6,0l0,0l2.2,1.8
			c0.1,0.1,0.2,0.1,0.3,0l4.1-4.6h0l0,0c0.2-0.2,0.4-0.2,0.6,0l0.6,0.6c0.2,0.2,0.2,0.4,0,0.6l0,0l-5.2,5.8
			c-0.1,0.1-0.2,0.1-0.3,0.1c-0.1,0-0.2,0-0.3-0.1l-3.2-2.9L441.3,18.5L441.3,18.5z"/>
	</g>
	<g>
		<circle class="st3" cx="660.9" cy="18" r="11.8"/>
		<path class="st1" d="M660.9,10.3c4.2,0,7.7,3.4,7.7,7.7s-3.4,7.7-7.7,7.7s-7.7-3.4-7.7-7.7S656.6,10.3,660.9,10.3 M660.9,6.2
			c-6.5,0-11.8,5.3-11.8,11.8s5.3,11.8,11.8,11.8s11.8-5.3,11.8-11.8S667.4,6.2,660.9,6.2L660.9,6.2z"/>
	</g>
	<g>
		<circle class="st3" cx="877.9" cy="18" r="11.8"/>
		<path class="st1" d="M877.9,10.3c4.2,0,7.7,3.4,7.7,7.7s-3.4,7.7-7.7,7.7s-7.7-3.4-7.7-7.7S873.6,10.3,877.9,10.3 M877.9,6.2
			c-6.5,0-11.8,5.3-11.8,11.8s5.3,11.8,11.8,11.8s11.8-5.3,11.8-11.8S884.4,6.2,877.9,6.2L877.9,6.2z"/>
	</g>
	<g>
		<path class="st6" d="M518.4,28.8l0.8,6.4l0.1,0.7l3.9,0.1v-0.5v-0.2v-5.6c-1.8-0.2-2-0.3-2.9-0.4
			C519.6,29.2,518.5,28.9,518.4,28.8z"/>
		<path class="st6" d="M499.1,18.8c-1.9-1.1-3.8-2.2-5.4-3.1c-1.8-1-3.3-1.9-4.6-2.7v0.6c0,1.3-1.1,2.3-2.3,2.3h-1.6
			c3.6,11,5,13.4,7.5,14.8c3,1.8,17.9,1.6,24,1.7l-0.6-4.5C512.9,26.7,508.5,24.4,499.1,18.8z"/>
		<path class="st6" d="M535,28.1c5,0,7.9-0.6,8-0.6c0,0,0.1,0,0.1,0c-1.6-2.6-6.3-7.3-15.7-13.2c0,0-3-2-8.3-3.6
			c-8.8-2.6-19.3-3.2-26.5-3.2c-1.3,0-3.2,0-3.2,0c-1.1,0.1-3.4,0-3.4,0.5c0,0.4,2.7,1.9,3.1,2.2c1.6,1,3.5,2.1,5.8,3.4
			c1.6,0.9,3.5,2,5.5,3.2c9.3,5.5,15.1,8.2,18,9.5c0.6,0.2,0.6,0.2,1.1,0.4c0.6,0.2,0.9,0.4,1.1,0.4C521.6,27.2,530.3,28.1,535,28.1
			z M515.6,21.6C515.6,21.7,515.6,21.7,515.6,21.6c-2.5-1.1-4.3-3.3-4.6-3.6c0,0,0,0,0,0h1.9v-0.4c0-0.7-0.6-1.3-1.3-1.3h-0.2
			c-0.6,0-1.1-0.2-1.4-0.7l-1.3-1.6c0,0,0,0,0,0h2.3c2.8,0,4.6,1.6,4.6,4.5V21.6L515.6,21.6z M516.5,21.7
			C516.5,21.7,516.4,21.7,516.5,21.7l0-3.2c0-2.9,1.7-4.5,4.6-4.5h2.3c0,0,0,0,0,0l-1.3,1.6c-0.4,0.4-0.9,0.7-1.4,0.7h-0.2
			c-0.7,0-1.3,0.6-1.3,1.3v0.4h1.9c0,0,0,0,0,0C520.7,18.3,518.9,20.5,516.5,21.7z"/>
		<path class="st6" d="M535,30.4c-2.6,0-6.4-0.2-9.5-0.5V33c10.9-0.1,16.5-1.6,17.9-3.2C543.1,29.9,540.1,30.4,535,30.4z"/>
		<path class="st6" d="M486.6,11.5c-2.6-1.7-3.6-2.9-3.3-4.2c0.3-1,1.2-1.6,3.3-1.9V4.2V0h-6.5h-1.3l1.2,5.1v0l2.2,8.6h4.4V11.5z"/>
		<path class="st6" d="M514.1,7c-10.4-4.4-19-4.8-23.6-4.8c-0.6,0-1,0-1.5,0v1.9v1.1c1-0.1,2.2-0.1,3.6-0.1
			C501.7,5.2,508.7,6,514.1,7z"/>
	</g>
</g>
</svg>
