<?xml version="1.0" encoding="utf-8"?>
<!-- Generator: Adobe Illustrator 22.1.0, SVG Export Plug-In . SVG Version: 6.00 Build 0)  -->
<svg version="1.1" id="Layer_1" xmlns="http://www.w3.org/2000/svg" xmlns:xlink="http://www.w3.org/1999/xlink" x="0px" y="0px"
	 viewBox="0 0 543.4 340.8" style="enable-background:new 0 0 543.4 340.8;" xml:space="preserve">
<style type="text/css">
	.st0{fill:#BAD1DA;}
	.st1{fill:#032160;}
	.st2{fill:#E8EFF2;}
	.st3{fill:#00A4F3;}
</style>
<g id="Layer_2_1_">
</g>
<g id="Layer_1_1_">
	<g>
		<g>
			<path class="st0" d="M77.6,328.9v-21.7c0-1.2,1-2.2,2.2-2.2h31.7c1.2,0,2.2,1,2.2,2.2v21.7c0,0.4-0.3,0.7-0.7,0.7H78.4
				C77.9,329.6,77.6,329.3,77.6,328.9z M95.1,336.3c0,2.5-2,4.5-4.5,4.5s-4.5-2-4.5-4.5s2-4.5,4.5-4.5S95.1,333.8,95.1,336.3z
				 M92.8,336.3c0-1.3-1-2.3-2.3-2.3s-2.3,1-2.3,2.3s1,2.3,2.3,2.3C91.8,338.6,92.8,337.6,92.8,336.3z M86.7,331.8H76.6
				c-0.4,0-0.7,0.3-0.7,0.7v2.2c0,0.4,0.3,0.7,0.7,0.7h8.1C84.9,334,85.6,332.7,86.7,331.8z M128.8,336.3c0,2.5-2,4.5-4.5,4.5
				s-4.5-2-4.5-4.5s2-4.5,4.5-4.5S128.8,333.8,128.8,336.3z M126.5,336.3c0-1.3-1-2.3-2.3-2.3s-2.3,1-2.3,2.3s1,2.3,2.3,2.3
				S126.5,337.6,126.5,336.3z M136.8,332.5v2.2c0,0.4-0.3,0.7-0.7,0.7h-5.9c-0.4-2.9-2.9-5.1-5.9-5.1s-5.5,2.2-5.9,5.1H96.6
				c-0.2-1.5-0.9-2.7-2-3.7h21.2V311c0-0.8,0.7-1.5,1.5-1.5h6.9c1.9,0,3.7,1,4.8,2.6l4.4,6.6c0.6,1,1,2.1,1,3.3v9.9h1.8
				C136.5,331.8,136.8,332.1,136.8,332.5z M129.4,318.8l-3.5-5c-0.1-0.2-0.4-0.3-0.6-0.3h-5.5c-0.4,0-0.7,0.3-0.7,0.7v5
				c0,0.4,0.3,0.7,0.7,0.7h9.1C129.4,320,129.7,319.3,129.4,318.8z"/>
		</g>
		<g>
			<g>
				<g>
					<path class="st0" d="M239.8,330.6c0,2.9,2.4,5.3,5.3,5.3s5.3-2.4,5.3-5.3s-2.4-5.3-5.3-5.3
						C242.2,325.3,239.8,327.7,239.8,330.6z M241.9,330.6c0-1.7,1.4-3.2,3.2-3.2s3.2,1.4,3.2,3.2s-1.4,3.2-3.2,3.2
						S241.9,332.3,241.9,330.6z"/>
				</g>
			</g>
			<g>
				<g>
					<path class="st0" d="M195.6,326.4v4.2c0,0.6,0.5,1.1,1.1,1.1h4.2c0.6,0,1.1-0.4,1.1-1.1c0-4.1,3.3-7.4,7.4-7.4
						c4.1,0,7.4,3.3,7.4,7.3l0,0c0,0.6,0.5,1.1,1.1,1.1h19c0.6,0,1.1-0.4,1.1-1.1c0-4.1,3.3-7.4,7.4-7.4s7.4,3.3,7.4,7.3l0,0
						c0,0.6,0.5,1.1,1.1,1.1h4.2c0.6,0,1.1-0.5,1.1-1.1v-4.2c0-0.6-0.5-1.1-1.1-1.1l-0.1-2.6c-0.1-1.7-0.9-3.2-2.3-4.1
						c-2.7-1.7-7.3-2.7-11.8-2.7c-6.1-7.3-15.5-10.2-28-8.4l0,0c-6.8,1.2-9.9,4.8-12.1,8.6l-5.9,2c-0.4,0.1-0.7,0.5-0.7,1v6.3
						C196.1,325.3,195.6,325.8,195.6,326.4z M225.1,309.7c0-0.3,0.3-0.6,0.6-0.5c5.7,0.5,10.4,2.4,14,5.7c0.4,0.3,0.1,0.9-0.3,0.9
						h-13.7c-0.3,0-0.5-0.2-0.5-0.5v-5.6H225.1z M212.4,310.8c0-0.2,0.1-0.4,0.3-0.5c0.9-0.3,1.9-0.6,3-0.8c2.4-0.3,4.6-0.5,6.7-0.5
						c0.3,0,0.5,0.2,0.5,0.5v5.8c0,0.3-0.2,0.5-0.5,0.5h-9.5c-0.3,0-0.5-0.2-0.5-0.5V310.8z M206.5,315c0.8-1.1,1.8-2.1,2.9-2.9
						c0.4-0.3,0.8,0,0.9,0.4v2.9c0,0.3-0.2,0.5-0.5,0.5h-2.9C206.5,315.9,206.2,315.3,206.5,315z"/>
				</g>
			</g>
			<g>
				<g>
					<path class="st0" d="M204,330.6c0,2.9,2.4,5.3,5.3,5.3s5.3-2.4,5.3-5.3s-2.4-5.3-5.3-5.3C206.4,325.3,204,327.7,204,330.6z
						 M206.1,330.6c0-1.7,1.4-3.2,3.2-3.2c1.7,0,3.2,1.4,3.2,3.2s-1.4,3.2-3.2,3.2C207.5,333.8,206.1,332.3,206.1,330.6z"/>
				</g>
			</g>
		</g>
		<g>
			<g>
				<g>
					<circle class="st0" cx="325" cy="318" r="5"/>
				</g>
			</g>
			<g>
				<g>
					<path class="st0" d="M359.9,315.5c-0.7,0-1.2,0.6-1.2,1.2c0,0.7,0.6,1.2,1.2,1.2c10.2,0,17.5,9.4,17.5,11.2
						c0,0.7,0.6,1.2,1.2,1.2s1.2-0.6,1.2-1.2C379.8,325.4,371,315.5,359.9,315.5z"/>
				</g>
			</g>
			<g>
				<g>
					<path class="st0" d="M378.6,328h-11.2c-1.7,0-3.1-1.1-3.6-2.7l-2.8-9.1l-2.5-5c-0.2-0.4-0.6-0.7-1.1-0.7h-3.7
						c-0.3,0-0.6,0.1-0.9,0.4l-4.6,4.6h-19.4c-0.7,0-1.2,0.6-1.2,1.2v2.5c0,0.6,0.4,1.1,1,1.2c4.6,0.8,12.3,2.6,14.1,4.5l0.1,0.2
						c2.4,4.6,5.3,10.3,10.9,10.3h17.5c5,0,8.7-2.7,8.7-6.2C379.8,328.5,379.2,328,378.6,328z"/>
				</g>
			</g>
			<g>
				<g>
					<path class="st0" d="M327.4,313.9l-2.5-5c-0.3-0.6-1-0.8-1.6-0.6l-2.5,1.1c-0.6,0.3-0.9,0.9-0.7,1.5l1.2,3.7
						c0.2,0.7,0.9,1,1.6,0.8c0.5-0.2,0.8-0.6,0.8-1.1h1.1l0.3,0.6c0.2,0.4,0.7,0.7,1.1,0.7c0.2,0,0.4,0,0.6-0.1
						C327.4,315.2,327.7,314.5,327.4,313.9z"/>
				</g>
			</g>
			<g>
				<g>
					<path class="st0" d="M326.8,320.6c-0.6-0.3-1.4-0.1-1.7,0.6l-0.2,0.3c-0.1-0.6-0.6-1-1.2-1c-0.7,0-1.2,0.6-1.2,1.2v2.5
						c0,0.7,0.6,1.2,1.2,1.2h1.2c0.5,0,0.9-0.3,1.1-0.7l1.2-2.5C327.6,321.7,327.4,320.9,326.8,320.6z"/>
				</g>
			</g>
			<g>
				<g>
					<path class="st0" d="M356.1,303c-0.7,0-1.2,0.6-1.2,1.2v1.2c0,0.7,0.6,1.2,1.2,1.2c0.7,0,1.2-0.6,1.2-1.2v-1.2
						C357.4,303.6,356.8,303,356.1,303z"/>
				</g>
			</g>
			<g>
				<g>
					<path class="st0" d="M378.6,305.5h-22.4c-0.7,0-1.2,0.6-1.2,1.2s0.6,1.2,1.2,1.2h22.4c0.7,0,1.2-0.6,1.2-1.2
						S379.2,305.5,378.6,305.5z"/>
				</g>
			</g>
			<g>
				<g>
					<path class="st0" d="M356.1,305.5h-22.4c-0.7,0-1.2,0.6-1.2,1.2s0.6,1.2,1.2,1.2h22.4c0.7,0,1.2-0.6,1.2-1.2
						S356.8,305.5,356.1,305.5z"/>
				</g>
			</g>
			<g>
				<g>
					<path class="st0" d="M361.1,333c-0.7,0-1.2,0.6-1.2,1.2v5c0,0.7,0.6,1.2,1.2,1.2c0.7,0,1.2-0.6,1.2-1.2v-5
						C362.3,333.5,361.8,333,361.1,333z"/>
				</g>
			</g>
			<g>
				<g>
					<path class="st0" d="M371.1,333c-0.7,0-1.2,0.6-1.2,1.2v5c0,0.7,0.6,1.2,1.2,1.2c0.7,0,1.2-0.6,1.2-1.2v-5
						C372.3,333.5,371.8,333,371.1,333z"/>
				</g>
			</g>
			<g>
				<g>
					<path class="st0" d="M379.2,335.6c-0.6-0.3-1.4-0.1-1.7,0.5c-0.6,1.1-3,1.7-3.9,1.9h-24.9c-0.7,0-1.2,0.6-1.2,1.2
						c0,0.7,0.6,1.2,1.2,1.2h25.1c0.5-0.1,4.5-0.7,5.9-3.1C380,336.7,379.8,335.9,379.2,335.6z"/>
				</g>
			</g>
		</g>
		<g>
			<g>
				<path class="st1" d="M8.2,46H6.1v-4.3h-4V46H0V36h2.1v3.9h4V36h2.1V46z"/>
				<path class="st1" d="M10.5,36.4c0-0.7,0.4-1,1.1-1s1.1,0.3,1.1,1c0,0.3-0.1,0.6-0.3,0.8c-0.2,0.2-0.5,0.3-0.9,0.3
					C10.9,37.4,10.5,37.1,10.5,36.4z M12.7,46h-2.1v-7.6h2.1V46z"/>
				<path class="st1" d="M21.5,38.4v1.1l-1.2,0.3c0.2,0.3,0.3,0.7,0.3,1.1c0,0.8-0.3,1.5-0.9,1.9c-0.6,0.5-1.4,0.7-2.4,0.7h-0.4
					h-0.3c-0.2,0.2-0.3,0.3-0.3,0.5c0,0.3,0.4,0.5,1.1,0.5h1.3c0.8,0,1.5,0.2,1.9,0.5c0.4,0.4,0.7,0.9,0.7,1.6
					c0,0.9-0.4,1.6-1.1,2.1c-0.7,0.5-1.8,0.7-3.2,0.7c-1.1,0-1.9-0.2-2.4-0.6c-0.6-0.4-0.8-0.9-0.8-1.6c0-0.5,0.1-0.8,0.4-1.2
					c0.3-0.3,0.7-0.5,1.3-0.7c-0.2-0.1-0.4-0.2-0.6-0.4s-0.2-0.4-0.2-0.7c0-0.3,0.1-0.5,0.3-0.7s0.4-0.4,0.7-0.6
					c-0.4-0.2-0.7-0.5-1-0.8c-0.2-0.4-0.4-0.8-0.4-1.4c0-0.8,0.3-1.5,0.8-1.9s1.3-0.7,2.3-0.7c0.2,0,0.5,0,0.8,0.1
					c0.3,0,0.5,0.1,0.6,0.1L21.5,38.4L21.5,38.4z M15.6,47.1c0,0.3,0.1,0.5,0.4,0.7c0.3,0.2,0.7,0.2,1.2,0.2c0.7,0,1.3-0.1,1.8-0.3
					s0.6-0.5,0.6-0.8s-0.1-0.5-0.4-0.6s-0.6-0.2-1.2-0.2h-1.1c-0.4,0-0.7,0.1-1,0.3C15.8,46.5,15.6,46.8,15.6,47.1z M16.4,40.9
					c0,0.4,0.1,0.7,0.3,1c0.2,0.2,0.5,0.4,0.9,0.4s0.7-0.1,0.9-0.4s0.3-0.6,0.3-1c0-0.9-0.4-1.4-1.1-1.4
					C16.8,39.5,16.4,39.9,16.4,40.9z"/>
				<path class="st1" d="M29.8,46h-2v-4.5c0-1.1-0.4-1.7-1.2-1.7c-0.6,0-1,0.2-1.3,0.6s-0.4,1-0.4,1.9v3.6h-2.1V35.3h2.1v2.2
					c0,0.2,0,0.6,0,1.2v0.6H25c0.5-0.7,1.2-1.1,2.2-1.1c0.9,0,1.6,0.2,2,0.7s0.7,1.2,0.7,2.1L29.8,46L29.8,46z"/>
			</g>
			<g>
				<path class="st1" d="M3.1,282v-10h2.1v8.2h4.1v1.8H3.1z"/>
				<path class="st1" d="M17.7,278.2c0,1.2-0.3,2.2-1,2.9s-1.6,1.1-2.7,1.1c-0.7,0-1.4-0.2-1.9-0.5c-0.6-0.3-1-0.8-1.3-1.4
					s-0.5-1.3-0.5-2.1c0-1.2,0.3-2.2,1-2.9s1.6-1,2.7-1c0.7,0,1.4,0.2,1.9,0.5s1,0.8,1.3,1.4S17.7,277.4,17.7,278.2z M12.5,278.2
					c0,0.8,0.1,1.3,0.4,1.7c0.2,0.4,0.7,0.6,1.2,0.6c0.6,0,1-0.2,1.2-0.6s0.4-1,0.4-1.7c0-0.8-0.1-1.3-0.4-1.7s-0.6-0.6-1.2-0.6
					c-0.6,0-1,0.2-1.2,0.6C12.6,276.8,12.5,277.4,12.5,278.2z"/>
				<path class="st1" d="M25.8,282l-0.6-2.7l-0.8-3.4l0,0l-1.4,6h-2.2l-2.2-7.6h2.1l0.9,3.4c0.1,0.6,0.3,1.4,0.4,2.5l0,0
					c0-0.3,0.1-0.9,0.2-1.6l0.1-0.6l0.9-3.7h2.3l0.9,3.7c0,0.1,0,0.2,0.1,0.4c0,0.2,0.1,0.4,0.1,0.6s0.1,0.4,0.1,0.6s0,0.4,0.1,0.5
					l0,0c0-0.3,0.1-0.8,0.2-1.3c0.1-0.6,0.2-1,0.2-1.2l0.9-3.4h2l-2.2,7.6h-2.1V282z"/>
			</g>
		</g>
		<g>
			<path class="st1" d="M486.9,332l0.8,6.2l0.1,0.7l3.8,0.1v-0.5v-0.2v-5.5c-1.7-0.2-1.9-0.3-2.8-0.4C488,332.3,487,332,486.9,332z"
				/>
			<path class="st1" d="M468,322.2c-1.9-1.1-3.7-2.2-5.3-3.1c-1.8-1-3.3-1.9-4.5-2.6v0.6c0,1.3-1,2.3-2.3,2.3h-1.5
				c3.5,10.7,4.9,13.1,7.3,14.5c2.9,1.7,17.5,1.6,23.5,1.7l-0.6-4.4C481.5,329.9,477.2,327.6,468,322.2z"/>
			<path class="st1" d="M503.1,331.2c4.9,0,7.8-0.5,7.8-0.6h0.1c-1.6-2.5-6.2-7.2-15.4-12.9c0,0-3-2-8.1-3.5
				c-8.6-2.6-18.9-3.1-26-3.1c-1.2,0-3.2,0-3.2,0c-1.1,0.1-3.4,0-3.4,0.5c0,0.4,2.7,1.9,3,2.2c1.5,0.9,3.5,2.1,5.7,3.3
				c1.6,0.9,3.4,2,5.3,3.1c9.1,5.3,14.8,8,17.6,9.3c0.6,0.2,0.6,0.2,1,0.4c0.6,0.2,0.9,0.4,1.1,0.4
				C490,330.4,498.5,331.2,503.1,331.2z M484.1,324.9C484.1,325,484.1,325,484.1,324.9c-2.5-1.1-4.2-3.2-4.4-3.6l0,0h1.8V321
				c0-0.7-0.6-1.3-1.3-1.3H480c-0.5,0-1.1-0.2-1.4-0.7l-1.3-1.6l0,0h2.3c2.8,0,4.5,1.6,4.5,4.4V324.9z M485,325
				C485,325,484.9,325,485,325v-3.1c0-2.8,1.7-4.4,4.5-4.4h2.3l0,0l-1.3,1.6c-0.3,0.4-0.9,0.7-1.4,0.7h-0.3c-0.7,0-1.3,0.6-1.3,1.3
				v0.3h1.8l0,0C489.1,321.7,487.4,323.9,485,325z"/>
			<path class="st1" d="M503.1,333.5c-2.6,0-6.2-0.2-9.2-0.5v3c10.7-0.1,16.1-1.6,17.5-3.1C511,333,508.1,333.5,503.1,333.5z"/>
			<path class="st1" d="M455.8,315.1c-2.6-1.7-3.6-2.8-3.2-4.1c0.3-1,1.2-1.5,3.2-1.8v-1.3v-4.1h-6.3h-1.3l1.2,5l0,0l2.1,8.4h4.3
				L455.8,315.1L455.8,315.1z"/>
			<path class="st1" d="M482.6,310.7c-10.2-4.3-18.6-4.7-23.1-4.7c-0.5,0-1,0-1.4,0v1.9v1c1-0.1,2.1-0.1,3.5-0.1
				C470.5,308.9,477.4,309.6,482.6,310.7z"/>
		</g>
		<g>
			<rect x="42.6" y="37.7" class="st2" width="2.7" height="244.2"/>
			<rect x="540.4" y="37.7" class="st2" width="2.7" height="244.2"/>
			<rect x="42.6" y="85.8" class="st2" width="500.5" height="2.7"/>
			<rect x="42.6" y="136.3" class="st2" width="500.5" height="2.7"/>
			<rect x="42.6" y="36.3" class="st2" width="500.5" height="2.7"/>
			<rect x="42.6" y="185.8" class="st2" width="500.5" height="2.7"/>
			<rect x="42.6" y="236.3" class="st2" width="500.5" height="2.7"/>
			<rect x="42.6" y="281.8" class="st2" width="500.5" height="2.7"/>
			<rect x="81.5" y="222.7" class="st3" width="18.5" height="59.2"/>
			<rect x="205.7" y="167.5" class="st3" width="18.5" height="114.3"/>
			<rect x="329.6" y="64.2" class="st3" width="18.5" height="217.7"/>
			<rect x="453" y="167.5" class="st3" width="18.5" height="114.3"/>
			<rect x="228.9" y="167.5" class="st1" width="18.5" height="114.3"/>
			<rect x="352.8" y="64.2" class="st1" width="18.5" height="217.7"/>
			<rect x="476.2" y="64.2" class="st1" width="18.5" height="217.7"/>
			<rect x="105" y="222.7" class="st1" width="18.5" height="59.2"/>
		</g>
		<g>
			<g>
				<path class="st1" d="M249.1,9c0,1.7-0.4,2.9-1.2,3.8s-2,1.3-3.5,1.3s-2.7-0.4-3.5-1.3s-1.2-2.2-1.2-3.8s0.4-2.9,1.2-3.8
					c0.8-0.9,2-1.3,3.5-1.3s2.7,0.4,3.5,1.3C248.7,6.1,249.1,7.3,249.1,9z M241.8,9c0,1.1,0.2,2,0.6,2.5s1.1,0.8,1.9,0.8
					c1.7,0,2.5-1.1,2.5-3.4s-0.8-3.4-2.5-3.4c-0.8,0-1.5,0.3-1.9,0.9S241.8,7.9,241.8,9z"/>
				<path class="st1" d="M255.2,14.1c-0.9,0-1.6-0.3-2.1-1H253c0.1,0.6,0.1,1,0.1,1.1v3.1H251v-11h1.7l0.3,1h0.1
					c0.5-0.8,1.2-1.1,2.2-1.1c0.9,0,1.6,0.3,2.1,1s0.8,1.7,0.8,2.9c0,0.8-0.1,1.5-0.4,2.1c-0.2,0.6-0.6,1.1-1,1.4
					S255.8,14.1,255.2,14.1z M254.6,7.9c-0.5,0-0.9,0.2-1.1,0.5s-0.4,0.8-0.4,1.6v0.2c0,0.8,0.1,1.4,0.4,1.8
					c0.2,0.4,0.6,0.5,1.2,0.5c0.9,0,1.4-0.8,1.4-2.3c0-0.8-0.1-1.3-0.3-1.7C255.5,8.1,255.1,7.9,254.6,7.9z"/>
				<path class="st1" d="M263.4,14.1c-1.2,0-2.2-0.3-2.9-1s-1-1.6-1-2.9s0.3-2.3,1-3c0.6-0.7,1.5-1,2.7-1c1.1,0,1.9,0.3,2.5,0.9
					s0.9,1.5,0.9,2.5v1h-4.9c0,0.6,0.2,1.1,0.5,1.4s0.8,0.5,1.4,0.5c0.5,0,0.9,0,1.3-0.1s0.8-0.2,1.3-0.5v1.6
					c-0.4,0.2-0.8,0.3-1.2,0.4C264.5,14.1,264,14.1,263.4,14.1z M263.1,7.7c-0.4,0-0.8,0.1-1,0.4s-0.4,0.7-0.4,1.2h2.9
					c0-0.5-0.1-0.9-0.4-1.2S263.5,7.7,263.1,7.7z"/>
				<path class="st1" d="M272.4,6.2c0.3,0,0.5,0,0.7,0.1l-0.2,2c-0.2,0-0.4-0.1-0.6-0.1c-0.7,0-1.2,0.2-1.6,0.5s-0.6,0.8-0.6,1.4V14
					H268V6.4h1.6l0.3,1.3h0.1c0.2-0.4,0.6-0.8,1-1C271.5,6.3,272,6.2,272.4,6.2z"/>
				<path class="st1" d="M279.4,14l-0.4-1h-0.1c-0.4,0.4-0.7,0.7-1.1,0.9c-0.4,0.2-0.9,0.3-1.5,0.3c-0.7,0-1.3-0.2-1.7-0.6
					c-0.4-0.4-0.6-1-0.6-1.8s0.3-1.4,0.9-1.8s1.4-0.6,2.6-0.6h1.3V9.1c0-0.8-0.4-1.2-1.2-1.2c-0.6,0-1.3,0.2-2.2,0.6l-0.7-1.4
					c0.9-0.5,1.9-0.7,2.9-0.7s1.8,0.2,2.4,0.7s0.8,1.1,0.8,2V14H279.4z M278.8,10.5H278c-0.6,0-1.1,0.1-1.4,0.3s-0.4,0.5-0.4,0.9
					c0,0.6,0.3,0.9,1,0.9c0.5,0,0.9-0.1,1.2-0.4c0.3-0.3,0.4-0.6,0.4-1.1L278.8,10.5L278.8,10.5z"/>
				<path class="st1" d="M286.2,12.5c0.4,0,0.8-0.1,1.3-0.2v1.6c-0.5,0.2-1.2,0.3-1.9,0.3c-0.8,0-1.4-0.2-1.8-0.6s-0.6-1.1-0.6-1.9
					V8h-1V7l1.1-0.7l0.6-1.6h1.3v1.6h2.1v1.6h-2.1v3.7c0,0.3,0.1,0.5,0.2,0.7C285.7,12.4,285.9,12.5,286.2,12.5z"/>
				<path class="st1" d="M289,4.4c0-0.7,0.4-1,1.1-1s1.1,0.3,1.1,1c0,0.3-0.1,0.6-0.3,0.8c-0.2,0.2-0.5,0.3-0.9,0.3
					C289.3,5.4,289,5.1,289,4.4z M291.1,14H289V6.4h2.1V14z"/>
				<path class="st1" d="M300.4,14h-2.1V9.5c0-0.6-0.1-1-0.3-1.2s-0.5-0.4-0.9-0.4c-0.6,0-1,0.2-1.3,0.6s-0.4,1-0.4,1.9V14h-2.1V6.4
					h1.6l0.3,1h0.1c0.2-0.4,0.6-0.6,1-0.8c0.4-0.2,0.9-0.3,1.4-0.3c0.9,0,1.6,0.2,2,0.7s0.7,1.2,0.7,2.1L300.4,14L300.4,14z"/>
				<path class="st1" d="M309.2,6.4v1.1L308,7.8c0.2,0.3,0.3,0.7,0.3,1.1c0,0.8-0.3,1.5-0.9,1.9c-0.6,0.5-1.4,0.7-2.4,0.7h-0.4h-0.3
					c-0.2,0.2-0.3,0.3-0.3,0.5c0,0.3,0.4,0.5,1.1,0.5h1.3c0.8,0,1.5,0.2,1.9,0.5c0.4,0.4,0.7,0.9,0.7,1.6c0,0.9-0.4,1.6-1.1,2.1
					s-1.8,0.7-3.2,0.7c-1.1,0-1.9-0.2-2.4-0.6c-0.6-0.4-0.8-0.9-0.8-1.6c0-0.5,0.1-0.8,0.4-1.2c0.3-0.3,0.7-0.5,1.3-0.7
					c-0.2-0.1-0.4-0.2-0.6-0.4s-0.2-0.4-0.2-0.7c0-0.3,0.1-0.5,0.3-0.7s0.4-0.4,0.7-0.6c-0.4-0.2-0.7-0.5-1-0.8
					c-0.2-0.4-0.4-0.8-0.4-1.4c0-0.8,0.3-1.5,0.8-1.9s1.3-0.7,2.3-0.7c0.2,0,0.5,0,0.8,0.1c0.3,0,0.5,0.1,0.6,0.1L309.2,6.4
					L309.2,6.4z M303.3,15.1c0,0.3,0.1,0.5,0.4,0.7s0.7,0.2,1.2,0.2c0.7,0,1.3-0.1,1.8-0.3s0.6-0.5,0.6-0.8s-0.1-0.5-0.4-0.6
					s-0.6-0.2-1.2-0.2h-1.1c-0.4,0-0.7,0.1-1,0.3C303.4,14.5,303.3,14.8,303.3,15.1z M304,8.9c0,0.4,0.1,0.7,0.3,1
					c0.2,0.2,0.5,0.4,0.9,0.4s0.7-0.1,0.9-0.4s0.3-0.6,0.3-1c0-0.9-0.4-1.4-1.1-1.4C304.4,7.5,304,7.9,304,8.9z"/>
				<path class="st1" d="M318.5,5.6c-0.8,0-1.4,0.3-1.9,0.9s-0.7,1.4-0.7,2.5c0,2.2,0.8,3.3,2.5,3.3c0.7,0,1.6-0.2,2.5-0.5v1.8
					c-0.8,0.3-1.7,0.5-2.7,0.5c-1.5,0-2.6-0.4-3.3-1.3s-1.1-2.1-1.1-3.8c0-1,0.2-1.9,0.6-2.7s0.9-1.4,1.6-1.8s1.5-0.6,2.5-0.6
					s1.9,0.2,2.9,0.7l-0.7,1.7c-0.4-0.2-0.8-0.3-1.1-0.5S318.9,5.6,318.5,5.6z"/>
				<path class="st1" d="M329.9,10.2c0,1.2-0.3,2.2-1,2.9s-1.6,1.1-2.7,1.1c-0.7,0-1.4-0.2-1.9-0.5s-1-0.8-1.3-1.4s-0.5-1.3-0.5-2.1
					c0-1.2,0.3-2.2,1-2.9s1.6-1,2.7-1c0.7,0,1.4,0.2,1.9,0.5s1,0.8,1.3,1.4S329.9,9.4,329.9,10.2z M324.7,10.2
					c0,0.8,0.1,1.3,0.4,1.7c0.2,0.4,0.7,0.6,1.2,0.6c0.6,0,1-0.2,1.2-0.6s0.4-1,0.4-1.7c0-0.8-0.1-1.3-0.4-1.7s-0.6-0.6-1.2-0.6
					s-1,0.2-1.2,0.6S324.7,9.4,324.7,10.2z"/>
				<path class="st1" d="M337,11.7c0,0.8-0.3,1.4-0.8,1.8s-1.4,0.6-2.4,0.6c-0.6,0-1,0-1.4-0.1s-0.8-0.2-1.1-0.3V12
					c0.4,0.2,0.8,0.3,1.3,0.5c0.5,0.1,0.9,0.2,1.3,0.2c0.8,0,1.1-0.2,1.1-0.7c0-0.2,0-0.3-0.2-0.4s-0.3-0.2-0.5-0.3s-0.6-0.3-1-0.5
					c-0.6-0.2-1-0.5-1.3-0.7s-0.5-0.5-0.6-0.7c-0.1-0.3-0.2-0.6-0.2-1c0-0.7,0.3-1.2,0.8-1.6s1.3-0.6,2.2-0.6c0.9,0,1.8,0.2,2.7,0.6
					l-0.6,1.5c-0.4-0.2-0.7-0.3-1.1-0.4s-0.7-0.2-1-0.2c-0.6,0-0.9,0.2-0.9,0.5c0,0.2,0.1,0.3,0.3,0.5c0.2,0.1,0.6,0.3,1.3,0.6
					c0.6,0.2,1,0.5,1.3,0.7s0.5,0.5,0.6,0.7S337,11.4,337,11.7z"/>
				<path class="st1" d="M341.8,12.5c0.4,0,0.8-0.1,1.3-0.2v1.6c-0.5,0.2-1.2,0.3-1.9,0.3c-0.8,0-1.4-0.2-1.8-0.6s-0.6-1.1-0.6-1.9
					V8h-1V7l1.1-0.7l0.6-1.6h1.3v1.6h2.1v1.6h-2.1v3.7c0,0.3,0.1,0.5,0.2,0.7C341.4,12.4,341.6,12.5,341.8,12.5z"/>
			</g>
			<g>
				<path class="st1" d="M409,11.2c0,0.9-0.3,1.6-1,2.1s-1.6,0.8-2.7,0.8s-2-0.2-2.8-0.6v-2c0.7,0.3,1.2,0.5,1.7,0.6
					s0.9,0.2,1.3,0.2c0.5,0,0.8-0.1,1.1-0.3c0.2-0.2,0.4-0.4,0.4-0.8c0-0.2-0.1-0.4-0.2-0.5s-0.3-0.3-0.5-0.4s-0.6-0.4-1.3-0.7
					c-0.6-0.3-1.1-0.6-1.4-0.8s-0.5-0.6-0.7-0.9s-0.3-0.8-0.3-1.2c0-0.9,0.3-1.6,0.9-2.1s1.4-0.8,2.5-0.8c0.5,0,1,0.1,1.5,0.2
					s1,0.3,1.5,0.5l-0.7,1.6c-0.5-0.2-1-0.4-1.3-0.5s-0.7-0.1-1-0.1c-0.4,0-0.7,0.1-0.9,0.3s-0.3,0.4-0.3,0.7c0,0.2,0,0.3,0.1,0.5
					s0.2,0.3,0.4,0.4c0.2,0.1,0.6,0.4,1.3,0.7c0.9,0.4,1.6,0.9,1.9,1.3S409,10.6,409,11.2z"/>
				<path class="st1" d="M414.8,14.1c-0.9,0-1.6-0.3-2.1-1h-0.1c0.1,0.6,0.1,1,0.1,1.1v3.1h-2.1v-11h1.7l0.3,1h0.1
					c0.5-0.8,1.2-1.1,2.2-1.1c0.9,0,1.6,0.3,2.1,1s0.8,1.7,0.8,2.9c0,0.8-0.1,1.5-0.4,2.1c-0.2,0.6-0.6,1.1-1,1.4
					S415.4,14.1,414.8,14.1z M414.2,7.9c-0.5,0-0.9,0.2-1.1,0.5s-0.4,0.8-0.4,1.6v0.2c0,0.8,0.1,1.4,0.4,1.8
					c0.2,0.4,0.6,0.5,1.2,0.5c0.9,0,1.4-0.8,1.4-2.3c0-0.8-0.1-1.3-0.3-1.7C415,8.1,414.7,7.9,414.2,7.9z"/>
				<path class="st1" d="M422.9,14.1c-1.2,0-2.2-0.3-2.9-1s-1-1.6-1-2.9s0.3-2.3,1-3c0.6-0.7,1.5-1,2.7-1c1.1,0,1.9,0.3,2.5,0.9
					s0.9,1.5,0.9,2.5v1h-4.9c0,0.6,0.2,1.1,0.5,1.4s0.8,0.5,1.4,0.5c0.5,0,0.9,0,1.3-0.1s0.8-0.2,1.3-0.5v1.6
					c-0.4,0.2-0.8,0.3-1.2,0.4C424,14.1,423.5,14.1,422.9,14.1z M422.6,7.7c-0.4,0-0.8,0.1-1,0.4s-0.4,0.7-0.4,1.2h2.9
					c0-0.5-0.1-0.9-0.4-1.2S423.1,7.7,422.6,7.7z"/>
				<path class="st1" d="M431.2,14.1c-1.2,0-2.2-0.3-2.9-1s-1-1.6-1-2.9s0.3-2.3,1-3c0.6-0.7,1.5-1,2.7-1c1.1,0,1.9,0.3,2.5,0.9
					s0.9,1.5,0.9,2.5v1h-4.9c0,0.6,0.2,1.1,0.5,1.4s0.8,0.5,1.4,0.5c0.5,0,0.9,0,1.3-0.1s0.8-0.2,1.3-0.5v1.6
					c-0.4,0.2-0.8,0.3-1.2,0.4C432.3,14.1,431.8,14.1,431.2,14.1z M430.9,7.7c-0.4,0-0.8,0.1-1,0.4s-0.4,0.7-0.4,1.2h2.9
					c0-0.5-0.1-0.9-0.4-1.2S431.3,7.7,430.9,7.7z"/>
				<path class="st1" d="M438.4,14.1c-0.9,0-1.6-0.3-2.1-1s-0.8-1.7-0.8-2.9c0-1.3,0.3-2.2,0.8-2.9c0.5-0.7,1.2-1,2.2-1
					s1.7,0.4,2.2,1.1h0.1c-0.1-0.6-0.2-1.1-0.2-1.5V3.5h2.1V14h-1.6l-0.4-1h-0.1C440.1,13.8,439.4,14.1,438.4,14.1z M439.2,12.5
					c0.5,0,0.9-0.2,1.2-0.5c0.2-0.3,0.4-0.8,0.4-1.6v-0.2c0-0.8-0.1-1.4-0.4-1.8s-0.7-0.5-1.2-0.5s-0.8,0.2-1.1,0.6
					c-0.3,0.4-0.4,1-0.4,1.7s0.1,1.3,0.4,1.7S438.7,12.5,439.2,12.5z"/>
				<path class="st1" d="M453.1,4l-3.7,10h-1.9l3.7-10H453.1z"/>
				<path class="st1" d="M464.2,14l-0.7-2.4h-3.7l-0.7,2.4h-2.3l3.5-10h2.6l3.5,10H464.2z M463,9.8c-0.7-2.2-1-3.4-1.1-3.7
					c-0.1-0.3-0.1-0.5-0.2-0.7c-0.2,0.6-0.6,2-1.3,4.3L463,9.8L463,9.8z"/>
				<path class="st1" d="M470.7,14.1c-2.4,0-3.6-1.3-3.6-3.9c0-1.3,0.3-2.3,1-3s1.6-1,2.8-1c0.9,0,1.7,0.2,2.4,0.5l-0.6,1.6
					c-0.3-0.1-0.6-0.2-0.9-0.3s-0.6-0.1-0.8-0.1c-1.1,0-1.6,0.8-1.6,2.3s0.5,2.2,1.6,2.2c0.4,0,0.8-0.1,1.1-0.2s0.7-0.3,1-0.5v1.8
					c-0.3,0.2-0.7,0.4-1,0.4C471.6,14.1,471.2,14.1,470.7,14.1z"/>
				<path class="st1" d="M477.9,14.1c-2.4,0-3.6-1.3-3.6-3.9c0-1.3,0.3-2.3,1-3s1.6-1,2.8-1c0.9,0,1.7,0.2,2.4,0.5l-0.6,1.6
					c-0.3-0.1-0.6-0.2-0.9-0.3s-0.6-0.1-0.8-0.1c-1.1,0-1.6,0.8-1.6,2.3s0.5,2.2,1.6,2.2c0.4,0,0.8-0.1,1.1-0.2s0.7-0.3,1-0.5v1.8
					c-0.3,0.2-0.7,0.4-1,0.4C478.8,14.1,478.4,14.1,477.9,14.1z"/>
				<path class="st1" d="M485.4,14.1c-1.2,0-2.2-0.3-2.9-1s-1-1.6-1-2.9s0.3-2.3,1-3c0.6-0.7,1.5-1,2.7-1c1.1,0,1.9,0.3,2.5,0.9
					s0.9,1.5,0.9,2.5v1h-4.9c0,0.6,0.2,1.1,0.5,1.4s0.8,0.5,1.4,0.5c0.5,0,0.9,0,1.3-0.1s0.8-0.2,1.3-0.5v1.6
					c-0.4,0.2-0.8,0.3-1.2,0.4C486.5,14.1,486,14.1,485.4,14.1z M485.1,7.7c-0.4,0-0.8,0.1-1,0.4s-0.4,0.7-0.4,1.2h2.9
					c0-0.5-0.1-0.9-0.4-1.2S485.6,7.7,485.1,7.7z"/>
				<path class="st1" d="M495.6,11.7c0,0.8-0.3,1.4-0.8,1.8s-1.4,0.6-2.4,0.6c-0.6,0-1,0-1.4-0.1s-0.8-0.2-1.1-0.3V12
					c0.4,0.2,0.8,0.3,1.3,0.5c0.5,0.1,0.9,0.2,1.3,0.2c0.8,0,1.1-0.2,1.1-0.7c0-0.2,0-0.3-0.2-0.4s-0.3-0.2-0.5-0.3s-0.6-0.3-1-0.5
					c-0.6-0.2-1-0.5-1.3-0.7s-0.5-0.5-0.6-0.7c-0.1-0.3-0.2-0.6-0.2-1c0-0.7,0.3-1.2,0.8-1.6s1.3-0.6,2.2-0.6s1.8,0.2,2.7,0.6
					l-0.6,1.5c-0.4-0.2-0.7-0.3-1.1-0.4s-0.7-0.2-1-0.2c-0.6,0-0.9,0.2-0.9,0.5c0,0.2,0.1,0.3,0.3,0.5c0.2,0.1,0.6,0.3,1.3,0.6
					c0.6,0.2,1,0.5,1.3,0.7s0.5,0.5,0.6,0.7S495.6,11.4,495.6,11.7z"/>
				<path class="st1" d="M502.5,11.7c0,0.8-0.3,1.4-0.8,1.8s-1.4,0.6-2.4,0.6c-0.6,0-1,0-1.4-0.1s-0.8-0.2-1.1-0.3V12
					c0.4,0.2,0.8,0.3,1.3,0.5c0.5,0.1,0.9,0.2,1.3,0.2c0.8,0,1.1-0.2,1.1-0.7c0-0.2,0-0.3-0.2-0.4s-0.3-0.2-0.5-0.3s-0.6-0.3-1-0.5
					c-0.6-0.2-1-0.5-1.3-0.7s-0.5-0.5-0.6-0.7c-0.1-0.3-0.2-0.6-0.2-1c0-0.7,0.3-1.2,0.8-1.6s1.3-0.6,2.2-0.6s1.8,0.2,2.7,0.6
					l-0.6,1.5c-0.4-0.2-0.7-0.3-1.1-0.4s-0.7-0.2-1-0.2c-0.6,0-0.9,0.2-0.9,0.5c0,0.2,0.1,0.3,0.3,0.5c0.2,0.1,0.6,0.3,1.3,0.6
					c0.6,0.2,1,0.5,1.3,0.7s0.5,0.5,0.6,0.7S502.5,11.4,502.5,11.7z"/>
				<path class="st1" d="M504.1,4.4c0-0.7,0.4-1,1.1-1s1.1,0.3,1.1,1c0,0.3-0.1,0.6-0.3,0.8c-0.2,0.2-0.5,0.3-0.9,0.3
					C504.5,5.4,504.1,5.1,504.1,4.4z M506.3,14h-2.1V6.4h2.1V14z"/>
				<path class="st1" d="M512.7,6.2c0.9,0,1.6,0.4,2.1,1.1s0.8,1.7,0.8,2.9c0,1.3-0.3,2.2-0.8,2.9c-0.5,0.7-1.2,1-2.2,1
					c-0.9,0-1.6-0.3-2.1-1h-0.1l-0.3,0.8h-1.6V3.4h2.1v2.5c0,0.3,0,0.8-0.1,1.5h0.1C511,6.6,511.7,6.2,512.7,6.2z M512,7.9
					c-0.5,0-0.9,0.2-1.1,0.5s-0.4,0.8-0.4,1.6v0.2c0,0.8,0.1,1.4,0.4,1.8c0.2,0.4,0.6,0.5,1.2,0.5c0.4,0,0.8-0.2,1-0.6
					c0.3-0.4,0.4-1,0.4-1.7s-0.1-1.3-0.4-1.7S512.5,7.9,512,7.9z"/>
				<path class="st1" d="M517.2,4.4c0-0.7,0.4-1,1.1-1s1.1,0.3,1.1,1c0,0.3-0.1,0.6-0.3,0.8c-0.2,0.2-0.5,0.3-0.9,0.3
					C517.6,5.4,517.2,5.1,517.2,4.4z M519.4,14h-2.1V6.4h2.1V14z"/>
				<path class="st1" d="M523.7,14h-2.1V3.4h2.1V14z"/>
				<path class="st1" d="M525.8,4.4c0-0.7,0.4-1,1.1-1s1.1,0.3,1.1,1c0,0.3-0.1,0.6-0.3,0.8c-0.2,0.2-0.5,0.3-0.9,0.3
					C526.1,5.4,525.8,5.1,525.8,4.4z M527.9,14h-2.1V6.4h2.1V14z"/>
				<path class="st1" d="M533.3,12.5c0.4,0,0.8-0.1,1.3-0.2v1.6c-0.5,0.2-1.2,0.3-1.9,0.3c-0.8,0-1.4-0.2-1.8-0.6
					c-0.4-0.4-0.6-1.1-0.6-1.9V8h-1V7l1.1-0.7l0.6-1.6h1.3v1.6h2.1v1.6h-2.1v3.7c0,0.3,0.1,0.5,0.2,0.7
					C532.8,12.4,533.1,12.5,533.3,12.5z"/>
				<path class="st1" d="M535.1,6.4h2.3l1.4,4.3c0.1,0.4,0.2,0.8,0.3,1.3l0,0c0-0.5,0.1-0.9,0.3-1.3l1.4-4.3h2.2l-3.2,8.6
					c-0.3,0.8-0.7,1.4-1.3,1.8c-0.5,0.4-1.2,0.6-1.9,0.6c-0.4,0-0.7,0-1.1-0.1v-1.7c0.3,0.1,0.5,0.1,0.8,0.1c0.4,0,0.7-0.1,1-0.3
					c0.3-0.2,0.5-0.6,0.6-1L538,14L535.1,6.4z"/>
			</g>
			<rect x="210.8" class="st3" width="19" height="19"/>
			<rect x="371.8" class="st1" width="19" height="19"/>
		</g>
	</g>
</g>
</svg>
